SplineFontDB: 3.0
FontName: Khartiya-Italic
FullName: Khartiya Italic
FamilyName: Khartiya
Weight: Normal
Copyright: Copyright 1990 as an unpublished work by Bitstream Inc.  All rights reserved.  Confidential.\n\nCopyright (c) 2009, 2010 Andrey V. Panov
Version: 0.1
ItalicAngle: -11
UnderlinePosition: -109
UnderlineWidth: 61
Ascent: 770
Descent: 230
Descent: 230
LayerCount: 2
Layer: 0 0 "+BBcEMAQ0BD0EOAQ5 +BD8EOwQwBD0A"  1
Layer: 1 0 "+BB8ENQRABDUENAQ9BDgEOQAA +BD8EOwQwBD0A"  0
NeedsXUIDChange: 1
UniqueID: 15530649
FSType: 8
OS2Version: 0
OS2_WeightWidthSlopeOnly: 0
OS2_UseTypoMetrics: 1
CreationTime: 1136849748
ModificationTime: 1265460658
PfmFamily: 17
TTFWeight: 500
TTFWidth: 5
LineGap: 200
VLineGap: 0
OS2TypoAscent: 0
OS2TypoAOffset: 1
OS2TypoDescent: 0
OS2TypoDOffset: 1
OS2TypoLinegap: 200
OS2WinAscent: 0
OS2WinAOffset: 1
OS2WinDescent: 0
OS2WinDOffset: 1
HheadAscent: 0
HheadAOffset: 1
HheadDescent: 0
HheadDOffset: 1
OS2Vendor: 'PfEd'
Lookup: 258 0 0 "LGC kerning"  {"LGC kerning subtable" [150,15,0] } ['kern' ('cyrl' <'dflt' > 'grek' <'dflt' > 'latn' <'dflt' > ) ]
MarkAttachClasses: 1
DEI: 91125
LangName: 1033 "" "" "" "" "" "" "" "" "" "" "" "" "" "(c) Copyright 1989-1992, Bitstream Inc., Cambridge, MA.+AAoA-BITSTREAM CHARTER is a registered trademark of Bitstream Inc.+AAoACgAA-Copyright (c) 2009, Andrey V. Panov (panov@canopus.iacp.dvo.ru),+AAoA-with Reserved Font Name Khartiya.+AAoACgAA-This Font Software is licensed under the SIL Open Font License, Version 1.1.+AAoA-This license is copied below, and is also available with a FAQ at:+AAoA-http://scripts.sil.org/OFL+AAoA" "http://scripts.sil.org/OFL" 
LangName: 1049 "" "+BCUEMARABEIEOARP" 
Encoding: UnicodeBmp
Compacted: 1
UnicodeInterp: none
NameList: Adobe Glyph List
DisplaySize: -48
AntiAlias: 1
FitToEm: 1
WinInfo: 96 16 14
BeginPrivate: 5
BlueValues 32 [-17 0 473 487 671 684 732 736 ]
OtherBlues 32 [-218 -218  -190 -190 -170 -170]
StdHW 4 [39]
StdVW 4 [82]
ForceBold 5 false
EndPrivate
Grid
52 58 m 1

StartChar: exclam
Encoding: 33 33 1
Width: 338
Flags: W
HStem: -9 114<77.0874 164.745> 663 20G<209 250>
VStem: 64 114<3.84814 91.8289> 158 122<535.094 648.179>
LayerCount: 2
Fore
SplineSet
64 48 m 0xe0
 64 79 90 105 120 105 c 0
 152 105 178 79 178 48 c 0
 178 16 152 -9 120 -9 c 0
 90 -9 64 16 64 48 c 0xe0
113 171 m 1
 158 553 l 2
 168 639 182 683 236 683 c 0
 264 683 280 666 280 638 c 0xd0
 280 623 274 594 263 553 c 2
 162 171 l 1
 113 171 l 1
EndSplineSet
EndChar

StartChar: quotedbl
Encoding: 34 34 2
Width: 331
Flags: HMW
HStem: 422 292<77 93 77 77 238 238 238 253>
VStem: 44 83<662.5 681 662.5 681> 204 83<662.5 680.5>
LayerCount: 2
Fore
SplineSet
44 665 m 0
 44 697 59 714 85 714 c 0
 111 714 127 697 127 665 c 0
 127 660 126 653 125 645 c 2
 93 422 l 1
 77 422 l 1
 46 645 l 2
 45 652 44 659 44 665 c 0
204 664 m 0
 204 697 220 714 246 714 c 0
 272 714 287 697 287 665 c 0
 287 660 287 653 286 645 c 2
 253 422 l 1
 238 422 l 1
 206 645 l 2
 205 652 204 658 204 664 c 0
EndSplineSet
EndChar

StartChar: numbersign
Encoding: 35 35 3
Width: 745
Flags: HMW
HStem: -23 20 230 47<64 208 64 223 274 409 64 256 476 639> 423 47<113 271 113 287 338 474 113 323 541 680> 692 18
VStem: 64 616<230 470 277 470>
LayerCount: 2
Fore
SplineSet
64 230 m 1
 64 277 l 1
 223 277 l 1
 271 423 l 1
 113 423 l 1
 113 470 l 1
 287 470 l 1
 370 710 l 1
 417 692 l 1
 338 470 l 1
 492 470 l 1
 572 709 l 1
 619 692 l 1
 541 470 l 1
 680 470 l 1
 680 423 l 1
 525 423 l 1
 476 277 l 1
 639 277 l 1
 639 230 l 1
 460 230 l 1
 376 -23 l 1
 329 -7 l 1
 409 230 l 1
 256 230 l 1
 173 -23 l 1
 126 -7 l 1
 208 230 l 1
 64 230 l 1
274 277 m 1
 423 277 l 1
 474 423 l 1
 323 423 l 1
 274 277 l 1
EndSplineSet
EndChar

StartChar: dollar
Encoding: 36 36 4
Width: 556
Flags: HMW
HStem: -102 20 0 47<237 248> 627 45<357 366> 723 20<338 379 379 379>
VStem: 108 83<474 522> 380 88<151.5 207>
LayerCount: 2
Fore
SplineSet
21 44 m 1
 53 197 l 1
 105 197 l 1
 95 85 l 1
 104 73 l 1
 139 56 172 47 204 46 c 1
 254 306 l 1
 155 351 108 401 108 472 c 0
 108 572 194 660 324 669 c 1
 338 743 l 1
 379 743 l 1
 366 672 l 1
 411 671 460 661 514 642 c 1
 483 496 l 1
 438 496 l 1
 443 592 l 1
 431 609 l 1
 407 620 382 626 357 627 c 1
 309 375 l 1
 417 336 468 284 468 206 c 0
 468 97 383 17 237 0 c 1
 217 -102 l 1
 175 -102 l 1
 195 0 l 1
 126 3 69 18 21 44 c 1
191 498 m 0
 191 450 216 418 270 395 c 1
 315 626 l 1
 237 611 191 560 191 498 c 0
248 47 m 1
 334 63 380 113 380 181 c 0
 380 233 353 264 294 287 c 1
 248 47 l 1
EndSplineSet
EndChar

StartChar: percent
Encoding: 37 37 5
Width: 852
Flags: W
HStem: -12 36<571.995 654.128> 0 671<116 734 116 734> 264 36<134.516 217.762> 372 35<631.907 713.412> 647 36<194.907 276.412>
VStem: 50 68<314.674 528.271> 116 618 294 71<418.962 630.885> 487 68<39.1744 252.929> 731 71<143.962 355.705>
LayerCount: 2
Fore
SplineSet
50 404 m 0x2d
 50 471 69 541 100 592 c 0
 137 652 189 683 247 683 c 0
 320 683 365 630 365 542 c 0
 365 475 346 407 314 355 c 0
 277 295 226 264 167 264 c 0
 94 264 50 315 50 404 c 0x2d
118 388 m 0
 118 328 135 300 174 300 c 0
 206 300 233 323 255 372 c 0x3d
 278 422 294 493 294 558 c 0
 294 617 276 647 239 647 c 0
 206 647 179 623 157 574 c 0
 133 521 118 452 118 388 c 0
487 129 m 0x90c0
 487 196 506 265 537 316 c 0
 574 376 626 407 684 407 c 0
 757 407 802 355 802 267 c 0
 802 200 783 132 751 80 c 0
 714 20 663 -12 604 -12 c 0
 531 -12 487 40 487 129 c 0x90c0
555 113 m 0
 555 53 572 24 611 24 c 0
 643 24 670 48 692 97 c 0
 715 147 731 218 731 283 c 0
 731 342 713 372 676 372 c 0
 643 372 616 348 594 299 c 0
 570 246 555 177 555 113 c 0
EndSplineSet
Refer: 98 8260 S 1 0 0 1 342 0 2
EndChar

StartChar: ampersand
Encoding: 38 38 6
Width: 704
Flags: HW
HStem: -11 59<203 229> 1 40<620 631> 639 45<297 356.5>
VStem: 20 90<143.5 195> 137 75<503 549> 416 82<511 574.5>
LayerCount: 2
Fore
SplineSet
20 152 m 0
 20 238 76 307 192 366 c 1
 156 417 137 459 137 499 c 0
 137 599 225 684 352 684 c 0
 442 684 498 630 498 553 c 0
 498 469 428 401 294 360 c 1
 443 162 l 1
 470 186 498 230 530 292 c 1
 518 308 l 1
 469 318 l 1
 469 360 l 1
 665 360 l 1xbc
 665 318 l 1
 594 309 l 1
 551 228 508 167 468 128 c 1
 509 67 555 41 620 41 c 0
 624 41 627 41 631 41 c 1
 631 1 l 1x40
 560 -3 l 2
 548 -4 540 -4 535 -4 c 0
 485 -4 456 20 411 74 c 1
 343 17 267 -11 191 -11 c 0
 89 -11 20 58 20 152 c 0
110 182 m 0
 110 105 165 48 241 48 c 0
 290 48 340 67 387 105 c 1xbc
 215 335 l 1
 144 291 110 246 110 182 c 0
212 524 m 0
 212 482 232 438 271 387 c 1
 368 422 416 473 416 546 c 0
 416 603 382 639 331 639 c 0
 263 639 212 589 212 524 c 0
EndSplineSet
EndChar

StartChar: quoteright
Encoding: 8217 8217 7
Width: 201
Flags: HMW
HStem: 442 271<51 182.5 51 182.5>
VStem: 92 135<640.5 662.5>
LayerCount: 2
Fore
SplineSet
51 442 m 1
 129 513 163 568 163 615 c 0
 163 616 163 618 163 619 c 1
 99 619 l 1
 94 628 92 636 92 645 c 0
 92 680 123 713 163 713 c 0
 202 713 227 687 227 647 c 0
 227 585 183 514 94 442 c 1
 51 442 l 1
EndSplineSet
EndChar

StartChar: parenleft
Encoding: 40 40 8
Width: 419
Flags: HMW
HStem: -142 42<294 302> 676 42<451 459>
VStem: 79 82<57.5 156.5 55.5 180>
LayerCount: 2
Fore
SplineSet
79 137 m 0
 79 223 98 325 138 437 c 0
 165 512 207 574 267 629 c 0
 324 682 391 713 459 718 c 1
 451 676 l 1
 398 668 348 641 310 598 c 0
 266 549 236 492 216 425 c 0
 177 295 161 192 161 121 c 0
 161 -10 211 -86 302 -100 c 1
 294 -142 l 1
 167 -132 79 -22 79 137 c 0
EndSplineSet
EndChar

StartChar: parenright
Encoding: 41 41 9
Width: 419
Flags: HMW
HStem: -142 42<-66 -58> 676 42<91 99>
VStem: 231 82<429.5 521.5 338.5 524>
LayerCount: 2
Fore
SplineSet
-66 -142 m 1
 -58 -100 l 1
 -5 -93 45 -65 83 -22 c 0
 130 30 162 94 183 171 c 0
 218 299 231 398 231 461 c 0
 231 587 180 663 91 676 c 1
 99 718 l 1
 226 707 313 598 313 445 c 0
 313 232 243 55 126 -53 c 0
 67 -107 0 -138 -66 -142 c 1
EndSplineSet
EndChar

StartChar: asterisk
Encoding: 42 42 10
Width: 500
Flags: HMW
VStem: 99 393<571 571>
LayerCount: 2
Fore
SplineSet
99 571 m 1
 172 589 l 1
 267 519 l 1
 261 507 l 1
 133 515 l 1
 99 571 l 1
131 338 m 1
 148 410 l 1
 264 491 l 1
 273 484 l 1
 203 363 l 1
 131 338 l 1
272 657 m 1
 323 718 l 1
 351 657 l 1
 295 532 l 1
 281 532 l 1
 272 657 l 1
283 484 m 1
 295 491 l 1
 379 410 l 1
 369 338 l 1
 307 364 l 1
 283 484 l 1
304 520 m 1
 426 589 l 1
 492 571 l 1
 436 515 l 1
 306 507 l 1
 304 520 l 1
EndSplineSet
EndChar

StartChar: plus
Encoding: 43 43 11
Width: 833
Flags: HMW
HStem: 270 57<124 388 124 388 446 709>
VStem: 388 58<0 270 0 270 327 596>
LayerCount: 2
Fore
SplineSet
124 270 m 1
 124 327 l 1
 388 327 l 1
 388 596 l 1
 446 596 l 1
 446 327 l 1
 709 327 l 1
 709 270 l 1
 446 270 l 1
 446 0 l 1
 388 0 l 1
 388 270 l 1
 124 270 l 1
EndSplineSet
EndChar

StartChar: comma
Encoding: 44 44 12
Width: 278
Flags: MW
HStem: -169 275<-57 104.5>
VStem: 13 135<30.5 56.5>
LayerCount: 2
Fore
SplineSet
-57 -169 m 1
 -51 -136 l 1
 29 -121 75 -72 86 7 c 1
 22 7 l 1
 16 16 13 25 13 36 c 0
 13 77 44 106 84 106 c 0
 125 106 148 81 148 38 c 0
 148 -55 65 -154 -57 -169 c 1
EndSplineSet
EndChar

StartChar: hyphen
Encoding: 45 45 13
Width: 319
Flags: HMW
HStem: 207 67<36 247 23 260>
VStem: 23 237<207 274>
LayerCount: 2
Fore
SplineSet
23 207 m 1
 36 274 l 1
 260 274 l 1
 247 207 l 1
 23 207 l 1
EndSplineSet
EndChar

StartChar: period
Encoding: 46 46 14
Width: 278
Flags: HMW
HStem: -5 119<69 101.5>
VStem: 26 119<37.5 70.5>
LayerCount: 2
Fore
SplineSet
26 54 m 0
 26 87 52 114 85 114 c 0
 118 114 145 87 145 54 c 0
 145 21 118 -5 85 -5 c 0
 53 -5 26 21 26 54 c 0
EndSplineSet
EndChar

StartChar: slash
Encoding: 47 47 15
Width: 481
Flags: HMW
HStem: -93 764<-111 525 -111 525>
VStem: -111 636
LayerCount: 2
Fore
SplineSet
-111 -93 m 1
 464 671 l 1
 525 671 l 1
 -50 -93 l 1
 -111 -93 l 1
EndSplineSet
EndChar

StartChar: zero
Encoding: 48 48 16
Width: 556
Flags: HMW
HStem: -12 48<187 250.5 187 257.5> 636 47<304.5 368.5>
VStem: 27 92<142.5 215.5 142.5 270.5> 436 92<457 529>
LayerCount: 2
Fore
SplineSet
27 213 m 0
 27 328 59 444 111 532 c 0
 170 631 251 683 344 683 c 0
 457 683 528 600 528 458 c 0
 528 342 496 227 444 140 c 0
 385 41 304 -12 211 -12 c 0
 98 -12 27 72 27 213 c 0
119 196 m 0
 119 89 152 36 222 36 c 0
 279 36 328 77 368 161 c 0
 387 201 405 261 420 336 c 0
 431 392 436 438 436 476 c 0
 436 582 402 636 335 636 c 0
 274 636 227 594 187 510 c 0
 168 470 150 412 135 336 c 0
 124 281 119 235 119 196 c 0
EndSplineSet
EndChar

StartChar: one
Encoding: 49 49 17
Width: 556
Flags: MW
HStem: 0 42<82 381> 663 20<380 404 404 404>
VStem: 82 322
DStem2: 202 66 285 62 0.188202 0.98213<11.6923 528.546>
LayerCount: 2
Fore
SplineSet
82 0 m 1
 82 43 l 1
 186 49 l 1
 202 66 l 1
 302 585 l 1
 292 595 l 1
 147 576 l 1
 147 617 l 1
 380 683 l 1
 404 683 l 1
 285 62 l 1
 294 47 l 1
 381 42 l 1
 381 0 l 1
 82 0 l 1
EndSplineSet
EndChar

StartChar: two
Encoding: 50 50 18
Width: 556
Flags: HMW
HStem: 0 79<92 393 92 441> 632 51<304 345>
VStem: 419 98<461 557.5>
LayerCount: 2
Fore
SplineSet
-22 0 m 1
 -10 63 l 1
 266 256 419 372 419 523 c 0
 419 592 380 632 310 632 c 0
 279 632 249 624 216 608 c 1
 196 501 l 1
 180 491 164 486 148 486 c 0
 119 486 101 503 101 526 c 0
 101 553 115 583 144 610 c 0
 192 654 266 683 342 683 c 0
 454 683 517 627 517 533 c 0
 517 389 368 269 92 79 c 1
 393 79 l 1
 427 164 l 1
 472 164 l 1
 441 0 l 1
 -22 0 l 1
EndSplineSet
EndChar

StartChar: three
Encoding: 51 51 19
Width: 556
Flags: HW
HStem: -11 47<174.5 213> 636 47<286.5 337.5>
VStem: 377 95<193.5 249> 415 97<503.5 562>
LayerCount: 2
Fore
SplineSet
1 97 m 0
 1 131 22 153 56 153 c 0
 66 153 78 151 91 146 c 1
 106 60 l 1
 132 44 159 36 190 36 c 0
 298 36 377 115 377 215 c 0xa0
 377 283 333 324 255 324 c 0
 237 324 217 322 195 320 c 1
 203 376 l 1
 212 375 220 375 228 375 c 0
 342 375 415 444 415 529 c 0
 415 595 372 636 303 636 c 0
 270 636 239 625 208 604 c 1
 194 508 l 1
 174 501 159 496 147 496 c 0
 122 496 103 515 103 543 c 0
 103 609 203 683 341 683 c 0
 449 683 512 629 512 546 c 0
 512 461 444 388 319 357 c 1x50
 417 353 472 303 472 227 c 0
 472 160 433 91 365 44 c 0
 313 9 247 -11 179 -11 c 0
 73 -11 1 37 1 97 c 0
EndSplineSet
EndChar

StartChar: four
Encoding: 52 52 20
Width: 556
Flags: MW
HStem: -37 20 194 65<12 12 87 322 0 12 412 511> 657 20<433 492 492 492>
VStem: 0 524<194 259>
DStem2: 12 259 87 259 0.709631 0.704574<53.2223 488.792> 278 -37 355 -37 0.188439 0.982085<14.5098 235.153 315.948 616.02>
LayerCount: 2
Fore
SplineSet
0 194 m 1
 12 259 l 1
 433 677 l 1
 492 677 l 1
 412 259 l 1
 524 259 l 1
 511 194 l 1
 399 194 l 1
 355 -37 l 1
 278 -37 l 1
 322 194 l 1
 0 194 l 1
87 259 m 1
 335 259 l 1
 394 568 l 1
 87 259 l 1
EndSplineSet
EndChar

StartChar: five
Encoding: 53 53 21
Width: 556
Flags: MW
HStem: -13 47<171.5 202> 352 56<194 343> 595 76<214 505 214 214>
VStem: 377 90<214 266>
DStem2: 103 346 173 391 0.199015 0.979997<58.0309 266.11>
LayerCount: 2
Fore
SplineSet
3 79 m 0
 3 112 28 137 61 137 c 0
 68 137 77 136 86 134 c 1
 112 49 l 1
 134 39 158 34 185 34 c 0
 290 34 377 121 377 223 c 0
 377 309 318 352 199 352 c 0
 189 352 158 350 103 346 c 1
 169 671 l 1
 519 671 l 1
 505 595 l 1
 214 595 l 1
 173 391 l 1
 214 402 251 408 285 408 c 0
 401 408 467 346 467 247 c 0
 467 181 433 110 372 60 c 0
 314 12 242 -13 162 -13 c 0
 59 -13 3 26 3 79 c 0
EndSplineSet
EndChar

StartChar: six
Encoding: 54 54 22
Width: 556
Flags: HMW
HStem: -12 46<202.5 285.5 202.5 306> 390 60<298.5 325.5> 665 51<488 490>
VStem: 32 90<152.5 231 152.5 288.5> 411 90<192.5 294>
LayerCount: 2
Fore
SplineSet
32 217 m 0
 32 360 92 495 203 595 c 0
 276 661 371 701 488 716 c 1
 490 665 l 1
 320 648 195 545 154 387 c 1
 212 430 271 450 326 450 c 0
 431 450 501 381 501 268 c 0
 501 117 383 -12 229 -12 c 0
 111 -12 32 73 32 217 c 0
122 208 m 0
 122 97 166 34 239 34 c 0
 332 34 411 123 411 247 c 0
 411 341 368 390 283 390 c 0
 233 390 183 371 141 336 c 1
 128 296 122 254 122 208 c 0
EndSplineSet
EndChar

StartChar: seven
Encoding: 55 55 23
Width: 556
Flags: MW
HStem: -37 22<45 132> 595 76<183 492 183 183>
VStem: 45 551
DStem2: 45 -37 132 -15 0.576683 0.816968<68.1447 774.101>
LayerCount: 2
Fore
SplineSet
45 -37 m 1
 492 595 l 1
 183 595 l 1
 150 504 l 1
 103 504 l 1
 135 671 l 1
 596 671 l 1
 588 631 l 1
 132 -15 l 1
 128 -37 l 1
 45 -37 l 1
EndSplineSet
EndChar

StartChar: eight
Encoding: 56 56 24
Width: 556
Flags: HW
HStem: -17 49<198.5 287 198.5 301.5> 640 44<292.5 364.5>
VStem: 18 84<120.5 183> 105 84<471 534.5> 402 90<145.5 215.5> 438 79<500.5 567.5>
LayerCount: 2
Fore
SplineSet
18 141 m 0
 18 225 76 299 188 350 c 1
 131 379 105 418 105 477 c 0
 105 592 208 684 346 684 c 0
 452 684 517 627 517 541 c 0
 517 459 465 392 365 353 c 1
 452 311 492 273 492 205 c 0xa8
 492 86 380 -17 223 -17 c 0
 92 -17 18 48 18 141 c 0
102 159 m 0
 102 82 157 32 240 32 c 0
 334 32 402 99 402 180 c 0
 402 251 343 273 222 328 c 1xa8
 141 282 102 232 102 159 c 0
189 499 m 0
 189 443 233 408 325 369 c 1xf4
 396 402 438 466 438 535 c 0
 438 600 398 640 331 640 c 0
 254 640 189 581 189 499 c 0
EndSplineSet
EndChar

StartChar: nine
Encoding: 57 57 25
Width: 556
Flags: HMW
HStem: -56 42<28 46> 225 56<227 244.5> 639 44<291 347>
VStem: 46 92<380.5 445> 432 90<459 531.5>
LayerCount: 2
Fore
SplineSet
28 -14 m 1
 198 48 316 141 391 280 c 1
 326 244 269 225 220 225 c 0
 118 225 46 297 46 405 c 0
 46 485 83 565 146 618 c 0
 198 661 258 683 324 683 c 0
 451 683 522 609 522 477 c 0
 522 248 353 45 46 -56 c 1
 28 -14 l 1
138 425 m 0
 138 336 188 281 266 281 c 0
 317 281 366 302 413 344 c 1
 425 394 432 439 432 479 c 0
 432 584 386 639 308 639 c 0
 219 639 138 544 138 425 c 0
EndSplineSet
EndChar

StartChar: colon
Encoding: 58 58 26
Width: 319
Flags: W
HStem: -5 119<90 122.5> 358 119<159 191.5>
VStem: 47 119<37.5 70.5> 116 119<400.5 433.5>
LayerCount: 2
Back
SplineSet
116 418 m 0
 116 451 142 477 175 477 c 0x50
 208 477 234 451 234 418 c 0
 234 385 208 358 175 358 c 0
 143 358 116 385 116 418 c 0
EndSplineSet
Refer: 14 46 S 1 0 0 1 21 0 2
Fore
Refer: 14 46 S 1 0 0 1 90 363 2
Refer: 14 46 N 1 0 0 1 21 0 2
EndChar

StartChar: semicolon
Encoding: 59 59 27
Width: 319
Flags: W
HStem: -169 275<-32 129.5> 358 119<159 191.5>
VStem: 38 135<30.5 56.5> 116 119<400.5 433.5>
LayerCount: 2
Back
SplineSet
116 418 m 0
 116 451 142 477 175 477 c 0x50
 208 477 234 451 234 418 c 0
 234 385 208 358 175 358 c 0
 143 358 116 385 116 418 c 0
EndSplineSet
Refer: 12 44 S 1 0 0 1 25 0 2
Fore
Refer: 14 46 S 1 0 0 1 90 363 2
Refer: 12 44 N 1 0 0 1 25 0 2
EndChar

StartChar: less
Encoding: 60 60 28
Width: 833
Flags: HMW
HStem: 37 522<704 704>
VStem: 129 575<37 323 37 323>
LayerCount: 2
Fore
SplineSet
129 273 m 1
 129 323 l 1
 704 559 l 1
 704 497 l 1
 216 298 l 1
 704 100 l 1
 704 37 l 1
 129 273 l 1
EndSplineSet
EndChar

StartChar: equal
Encoding: 61 61 29
Width: 833
Flags: HMW
HStem: 176 57<124 709 124 709> 363 57<124 709 124 709>
VStem: 124 585<176 233 176 233 363 420 176 420>
LayerCount: 2
Fore
SplineSet
124 176 m 1
 124 233 l 1
 709 233 l 1
 709 176 l 1
 124 176 l 1
124 363 m 1
 124 420 l 1
 709 420 l 1
 709 363 l 1
 124 363 l 1
EndSplineSet
EndChar

StartChar: greater
Encoding: 62 62 30
Width: 833
Flags: HMW
HStem: 37 522<129 129>
VStem: 129 575<37 323 100 323 273 559 273 559>
LayerCount: 2
Fore
SplineSet
129 37 m 1
 129 100 l 1
 617 298 l 1
 129 497 l 1
 129 559 l 1
 704 323 l 1
 704 273 l 1
 129 37 l 1
EndSplineSet
EndChar

StartChar: question
Encoding: 63 63 31
Width: 486
Flags: HMW
HStem: -9 114<136 167> 637 46<232 235 232 232.5>
VStem: 94 114<32 63.5> 353 92<486.5 566.5>
LayerCount: 2
Fore
SplineSet
94 48 m 0
 94 79 121 105 151 105 c 0
 183 105 208 79 208 48 c 0
 208 16 183 -9 151 -9 c 0
 121 -9 94 16 94 48 c 0
103 576 m 0
 103 633 170 683 269 683 c 0
 381 683 445 628 445 540 c 0
 445 433 369 347 218 288 c 1
 195 171 l 1
 143 171 l 1
 171 317 l 1
 290 359 353 436 353 532 c 0
 353 601 312 637 235 637 c 0
 234 637 233 637 232 637 c 2
 172 538 l 1
 166 537 160 537 154 537 c 0
 121 537 103 552 103 576 c 0
EndSplineSet
EndChar

StartChar: at
Encoding: 64 64 32
Width: 942
Flags: HMW
HStem: -153 49<421 524> 56 62<421.5 427> 452 40<493.5 534.5> 649 43<487.5 626.5>
VStem: 76 71<187 312.5> 280 85<192.5 248.5> 825 46<336 455>
LayerCount: 2
Fore
SplineSet
76 246 m 0
 76 379 125 490 221 578 c 0
 300 650 413 692 528 692 c 0
 740 692 871 564 871 373 c 0
 871 299 852 233 815 176 c 0
 765 99 689 56 625 56 c 0
 577 56 551 81 551 132 c 0
 551 135 551 138 551 141 c 1
 497 85 450 56 404 56 c 0
 333 56 280 119 280 217 c 0
 280 280 300 339 336 388 c 0
 385 454 458 492 529 492 c 0
 561 492 593 483 627 465 c 1
 645 488 l 1
 699 488 l 1
 686 455 680 419 672 381 c 2
 633 209 l 2
 627 183 625 165 625 154 c 0
 625 128 642 111 667 111 c 0
 693 111 726 128 755 163 c 0
 799 215 825 293 825 377 c 0
 825 533 711 649 542 649 c 0
 433 649 342 615 271 549 c 0
 188 472 147 376 147 258 c 0
 147 39 290 -104 504 -104 c 0
 593 -104 683 -80 767 -31 c 1
 781 -65 l 1
 675 -124 571 -153 477 -153 c 0
 365 -153 265 -114 188 -40 c 0
 114 31 76 128 76 246 c 0
365 229 m 0
 365 156 395 118 448 118 c 0
 484 118 518 140 553 184 c 1
 594 394 l 1
 553 450 l 1
 546 451 538 452 531 452 c 0
 439 452 365 359 365 229 c 0
EndSplineSet
EndChar

StartChar: A
Encoding: 65 65 33
Width: 606
Flags: HMW
HStem: 0 38<-79 119 -79 -79> 248 43<182 391 182 400 157 391> 657 20<345 411 411 411>
VStem: -79 663<0 38 0 38>
DStem2: -24 44 50 57 0.503616 0.863927<48.4987 267.396 317.135 648.036> 411 677 345 579 0.171139 -0.985247<85.259 376.883 420.788 614.276>
LayerCount: 2
Fore
SplineSet
-79 0 m 1
 -79 38 l 1
 -24 44 l 1
 345 677 l 1
 411 677 l 1
 518 61 l 1
 535 43 l 1
 584 38 l 1
 584 0 l 1
 365 0 l 1
 365 38 l 1
 424 43 l 1
 431 57 l 1
 400 248 l 1
 157 248 l 1
 50 57 l 1
 58 43 l 1
 119 38 l 1
 119 0 l 1
 -79 0 l 1
182 291 m 1
 391 291 l 1
 345 579 l 1
 182 291 l 1
EndSplineSet
EndChar

StartChar: B
Encoding: 66 66 34
Width: 588
Flags: W
HStem: 0 38<-28 35 138.077 309.224> 327 39<199 348.621> 632 39<84 148 248.121 399.305>
VStem: 426 98<124.443 284.466> 444 99<458.699 596.698>
DStem2: 40.7259 0 128.447 0 0.190809 0.981627<61.5616 350.859 392.421 624.114>
LayerCount: 2
Fore
SplineSet
-28 0 m 1xf0
 -28 38 l 1
 35 44 l 1
 52 58 l 1
 158 613 l 1
 148 628 l 1
 84 633 l 1
 84 671 l 1
 341 671 l 2
 476 671 543 633 543 546 c 0xe8
 543 451 482 385 366 356 c 1
 470 351 524 305 524 223 c 0
 524 73 424 0 222 0 c 2
 -28 0 l 1xf0
137 44 m 1
 160 42 182 41 203 41 c 0
 351 41 426 100 426 216 c 0xf0
 426 294 375 327 268 327 c 0
 250 327 224 325 191 322 c 1
 137 44 l 1
199 369 m 1
 221 367 237 366 250 366 c 0
 372 366 444 434 444 536 c 0xe8
 444 602 398 632 302 632 c 0
 289 632 271 631 247 629 c 1
 199 369 l 1
EndSplineSet
EndChar

StartChar: C
Encoding: 67 67 35
Width: 604
Flags: HMW
HStem: -12 47<278 341> 636 47<405 456.5>
VStem: 41 95<184 318.5 184 330>
LayerCount: 2
Back
SplineSet
43 336 m 0
 83 544 250 683 458 683 c 0
 517 683 580 672 649 649 c 1
 619 495 l 1
 563 495 l 1
 566 586 l 1
 556 604 l 1
 522 621 488 630 449 630 c 0
 300 630 182 522 147 343 c 0
 110 153 188 41 350 41 c 0
 378 41 407 45 439 54 c 1
 458 70 l 1
 502 181 l 1
 558 181 l 1
 527 23 l 1
 457 0 385 -12 318 -12 c 0
 252 -12 197 2 156 28 c 0
 61 89 18 205 43 336 c 0
EndSplineSet
Fore
SplineSet
41 265 m 0
 41 395 98 516 196 597 c 0
 265 653 349 683 441 683 c 0
 497 683 557 672 622 649 c 1
 594 495 l 1
 552 495 l 1
 552 591 l 1
 544 610 l 1
 510 628 475 636 438 636 c 0
 372 636 310 612 261 568 c 0
 183 498 136 384 136 253 c 0
 136 115 212 35 344 35 c 0
 372 35 401 40 430 49 c 1
 449 66 l 1
 493 181 l 1
 536 181 l 1
 509 23 l 1
 440 0 372 -12 310 -12 c 0
 145 -12 41 96 41 265 c 0
EndSplineSet
EndChar

StartChar: D
Encoding: 68 68 36
Width: 671
Flags: HMW
HStem: 0 47<140 183> 625 46<249 249 249 303>
VStem: 526 97<374 493.5>
LayerCount: 2
Fore
SplineSet
-28 0 m 1
 -28 38 l 1
 36 44 l 1
 52 58 l 1
 159 613 l 1
 149 628 l 1
 84 633 l 1
 84 671 l 1
 311 671 l 2
 516 671 623 581 623 416 c 0
 623 299 578 189 499 111 c 0
 420 33 320 0 183 0 c 2
 -28 0 l 1
140 47 m 1
 195 47 l 2
 304 47 388 84 440 152 c 0
 491 219 526 322 526 426 c 0
 526 561 453 625 303 625 c 2
 249 625 l 1
 140 47 l 1
EndSplineSet
EndChar

StartChar: E
Encoding: 69 69 37
Width: 546
Flags: MW
HStem: 0 46<139 394 139 460> 325 47<202 346 193 354> 625 46<251 466 251 251>
VStem: -24 577
DStem2: 56 58 139 46 0.189916 0.9818<3.98146 288.159 336.013 565.22>
LayerCount: 2
Fore
SplineSet
-24 0 m 1
 -24 38 l 1
 39 44 l 1
 56 58 l 1
 163 613 l 1
 152 628 l 1
 88 633 l 1
 88 671 l 1
 553 671 l 1
 525 525 l 1
 477 525 l 1
 477 610 l 1
 466 625 l 1
 251 625 l 1
 202 372 l 1
 354 372 l 1
 372 386 l 1
 394 459 l 1
 437 459 l 1
 395 239 l 1
 354 239 l 1
 358 311 l 1
 346 325 l 1
 193 325 l 1
 139 46 l 1
 394 46 l 1
 412 62 l 1
 446 163 l 1
 492 163 l 1
 460 0 l 1
 -24 0 l 1
EndSplineSet
EndChar

StartChar: F
Encoding: 70 70 38
Width: 509
Flags: MW
HStem: 0 40<-26 225> 315 46<199 331 190 340> 625 46<249 451 249 249>
VStem: -26 566
DStem2: 53 57 141 60 0.187751 0.982217<19.4688 279.134 326.006 566.202>
LayerCount: 2
Fore
SplineSet
-26 0 m 1
 -26 38 l 1
 37 43 l 1
 53 57 l 1
 160 613 l 1
 150 627 l 1
 86 633 l 1
 86 671 l 1
 540 671 l 1
 509 514 l 1
 461 514 l 1
 461 609 l 1
 451 625 l 1
 249 625 l 1
 199 361 l 1
 340 361 l 1
 358 376 l 1
 381 448 l 1
 425 448 l 1
 382 228 l 1
 339 228 l 1
 343 300 l 1
 331 315 l 1
 190 315 l 1
 141 60 l 1
 155 45 l 1
 225 40 l 1
 225 0 l 1
 -26 0 l 1
EndSplineSet
EndChar

StartChar: G
Encoding: 71 71 39
Width: 664
Flags: HMW
HStem: -12 49<277 339.5> 283 39<404 650 404 650> 635 49<417 467.5>
VStem: 39 97<187.5 317.5 187.5 330.5>
LayerCount: 2
Fore
SplineSet
39 266 m 0
 39 395 98 516 201 596 c 0
 275 653 363 684 459 684 c 0
 532 684 593 672 639 654 c 1
 610 495 l 1
 557 495 l 1
 560 589 l 1
 551 610 l 1
 519 626 485 635 450 635 c 0
 384 635 320 610 267 565 c 0
 186 496 136 383 136 252 c 0
 136 123 218 37 336 37 c 0
 363 37 398 42 441 51 c 1
 479 264 l 1
 469 278 l 1
 404 283 l 1
 404 322 l 1
 650 322 l 1
 650 283 l 1
 586 278 l 1
 570 264 l 1
 523 23 l 1
 438 -1 367 -12 312 -12 c 0
 147 -12 39 99 39 266 c 0
EndSplineSet
EndChar

StartChar: H
Encoding: 72 72 40
Width: 712
Flags: MW
HStem: 0 38<-28 215 -28 -28> 328 46<200 516 191 526> 633 38<84 328 84 328>
VStem: -28 769<0 671 38 671>
DStem2: 52 58 139 58 0.191012 0.981588<16.618 291.579 338.451 565.219> 465 58 553 58 0.191012 0.981588<16.809 274.77 321.833 565.41>
LayerCount: 2
Fore
SplineSet
-28 0 m 1
 -28 38 l 1
 36 44 l 1
 52 58 l 1
 159 613 l 1
 149 628 l 1
 84 633 l 1
 84 671 l 1
 328 671 l 1
 328 633 l 1
 262 628 l 1
 247 613 l 1
 200 374 l 1
 526 374 l 1
 573 613 l 1
 561 628 l 1
 497 633 l 1
 497 671 l 1
 741 671 l 1
 741 633 l 1
 675 628 l 1
 659 613 l 1
 553 58 l 1
 563 44 l 1
 627 38 l 1
 627 0 l 1
 385 0 l 1
 385 38 l 1
 450 44 l 1
 465 58 l 1
 516 328 l 1
 191 328 l 1
 139 58 l 1
 151 44 l 1
 215 38 l 1
 215 0 l 1
 -28 0 l 1
EndSplineSet
EndChar

StartChar: I
Encoding: 73 73 41
Width: 312
Flags: MW
HStem: 0 38<-23 221 -23 -23> 633 38<89 333 89 333>
VStem: -23 356
DStem2: 57 58 144 58 0.189307 0.981918<16.4697 565.22>
LayerCount: 2
Fore
SplineSet
-23 0 m 1
 -23 38 l 1
 41 44 l 1
 57 58 l 1
 164 613 l 1
 153 628 l 1
 89 633 l 1
 89 671 l 1
 333 671 l 1
 333 633 l 1
 267 628 l 1
 251 613 l 1
 144 58 l 1
 156 44 l 1
 221 38 l 1
 221 0 l 1
 -23 0 l 1
EndSplineSet
EndChar

StartChar: J
Encoding: 74 74 42
Width: 447
Flags: MW
HStem: -12 48<83.5 134.5 83.5 157> 633 38<228 471 228 471>
VStem: -42 513
DStem2: 233 252 323 256 0.19036 0.981714<-158.326 367.724>
LayerCount: 2
Fore
SplineSet
-42 12 m 1
 -9 180 l 1
 41 180 l 1
 41 53 l 1
 53 40 l 1
 67 37 79 36 88 36 c 0
 181 36 205 108 233 252 c 2
 303 613 l 1
 292 628 l 1
 228 633 l 1
 228 671 l 1
 471 671 l 1
 471 633 l 1
 406 628 l 1
 390 613 l 1
 323 256 l 2
 288 69 233 -12 81 -12 c 0
 33 -12 -8 -4 -42 12 c 1
EndSplineSet
EndChar

StartChar: K
Encoding: 75 75 43
Width: 625
Flags: HMW
HStem: 0 38<-30 214 -30 -30> 298 42<190 219 190 252 182 219> 633 38<82 325 82 325>
VStem: -30 690<0 671 38 671>
DStem2: 50 58 136 58 0.191012 0.981588<16.427 260.795 303.549 565.219> 219 340 314 368 0.712268 0.701908<87.3189 386.091> 314 368 252 298 0.457494 -0.889213<33.8803 375.857>
LayerCount: 2
Fore
SplineSet
-30 0 m 1
 -30 38 l 1
 34 44 l 1
 50 58 l 1
 157 613 l 1
 146 628 l 1
 82 633 l 1
 82 671 l 1
 325 671 l 1
 325 633 l 1
 260 628 l 1
 244 613 l 1
 190 340 l 1
 219 340 l 1
 494 611 l 1
 488 627 l 1
 418 632 l 1
 418 671 l 1
 660 671 l 1
 660 631 l 1
 577 625 l 1
 314 368 l 1
 456 92 l 2
 477 51 494 38 554 38 c 0
 560 38 567 38 574 38 c 1
 574 0 l 1
 528 -3 497 -4 484 -4 c 0
 413 -4 398 10 368 69 c 2
 252 298 l 1
 182 298 l 1
 136 58 l 1
 149 44 l 1
 214 38 l 1
 214 0 l 1
 -30 0 l 1
EndSplineSet
EndChar

StartChar: L
Encoding: 76 76 44
Width: 498
Flags: MW
HStem: 0 46<136 348 136 418> 633 38<84 327 84 327>
VStem: -28 481<0 182 38 182>
DStem2: 52 58 136 46 0.190453 0.981696<4.21766 565.22>
LayerCount: 2
Fore
SplineSet
-28 0 m 1
 -28 38 l 1
 36 43 l 1
 52 58 l 1
 159 613 l 1
 149 628 l 1
 84 633 l 1
 84 671 l 1
 327 671 l 1
 327 633 l 1
 262 628 l 1
 246 613 l 1
 136 46 l 1
 348 46 l 1
 366 62 l 1
 405 182 l 1
 453 182 l 1
 418 0 l 1
 -28 0 l 1
EndSplineSet
EndChar

StartChar: M
Encoding: 77 77 45
Width: 839
Flags: MW
HStem: 0 38<-27 181 -27 -27> 633 38<84 288>
VStem: -27 894<0 671 38 671>
DStem2: 52 58 107 58 0.183225 0.983071<10.0774 565.026> 288 644 211 616 0.172691 -0.984976<14.2822 517.068> 379 135 363 0 0.486841 0.873491<0 577.428> 601 58 682 58 0.187353 0.982293<15.1756 571.113>
LayerCount: 2
Fore
SplineSet
-27 0 m 1
 -27 38 l 1
 36 44 l 1
 52 58 l 1
 158 613 l 1
 147 628 l 1
 84 633 l 1
 84 671 l 1
 288 671 l 1
 288 644 l 1
 379 135 l 1
 659 640 l 1
 659 671 l 1
 867 671 l 1
 867 633 l 1
 804 628 l 1
 788 613 l 1
 682 58 l 1
 692 44 l 1
 756 38 l 1
 756 0 l 1
 519 0 l 1
 519 38 l 1
 591 44 l 1
 601 58 l 1
 708 619 l 1
 363 0 l 1
 319 0 l 1
 211 616 l 1
 107 58 l 1
 122 44 l 1
 181 38 l 1
 181 0 l 1
 -27 0 l 1
EndSplineSet
EndChar

StartChar: N
Encoding: 78 78 46
Width: 683
Flags: MW
HStem: 0 38<-31 180 -31 -31> 633 38<81 253>
VStem: -31 751<0 671 38 671>
DStem2: 49 58 105 58 0.189307 0.981918<10.6012 517.959> 253 646 202 556 0.427597 -0.903969<59.5498 560.508> 492 139 523 0 0.18748 0.982268<0 482.843>
LayerCount: 2
Fore
SplineSet
-31 0 m 1
 -31 38 l 1
 33 44 l 1
 49 58 l 1
 156 613 l 1
 146 628 l 1
 81 633 l 1
 81 671 l 1
 253 671 l 1
 253 646 l 1
 492 139 l 1
 584 613 l 1
 574 628 l 1
 510 633 l 1
 510 671 l 1
 720 671 l 1
 720 633 l 1
 656 628 l 1
 640 613 l 1
 523 0 l 1
 465 0 l 1
 202 556 l 1
 105 58 l 1
 116 44 l 1
 180 38 l 1
 180 0 l 1
 -31 0 l 1
EndSplineSet
EndChar

StartChar: O
Encoding: 79 79 47
Width: 708
Flags: HMW
HStem: -12 48<258.5 344.5 258.5 357> 636 46<364 436.5 354 450>
VStem: 41 96<186 302 186 311> 571 98<369.5 464 364 487>
LayerCount: 2
Back
SplineSet
43 336 m 0
 64 445 116 535 196 600 c 0
 267 658 348 688 434 688 c 0
 520 688 588 658 637 600 c 0
 691 535 710 445 689 336 c 0
 675 262 645 196 600 138 c 0
 525 42 414 -16 298 -16 c 0
 213 -16 141 14 94 70 c 0
 39 136 22 227 43 336 c 0
147 336 m 0
 111 150 178 37 308 37 c 0
 437 37 548 150 584 336 c 0
 620 522 553 634 424 634 c 0
 294 634 184 524 147 336 c 0
EndSplineSet
Fore
SplineSet
41 259 m 0
 41 363 74 461 135 541 c 0
 203 631 303 682 405 682 c 0
 468 682 522 665 562 636 c 0
 630 586 669 508 669 420 c 0
 669 308 636 206 577 129 c 0
 508 39 409 -12 305 -12 c 0
 150 -12 41 100 41 259 c 0
137 253 m 0
 137 119 207 36 310 36 c 0
 379 36 441 74 492 149 c 0
 540 220 571 320 571 419 c 0
 571 555 502 636 398 636 c 0
 330 636 267 598 216 523 c 0
 167 451 137 351 137 253 c 0
EndSplineSet
EndChar

StartChar: P
Encoding: 80 80 48
Width: 542
Flags: MW
HStem: 0 38<-28 209 -28 -28> 252 47<230.5 297.5 219.5 332> 628 43<148 148 282.5 297 297 324 84 344>
VStem: 450 93<437 542.5>
DStem2: 52 58 138 58 0.190129 0.981759<16.3511 219.218 263.855 565.22>
LayerCount: 2
Fore
SplineSet
-28 0 m 1
 -28 38 l 1
 36 44 l 1
 52 58 l 1
 159 613 l 1
 148 628 l 1
 84 633 l 1
 84 671 l 1
 297 671 l 2
 351 671 400 670 447 653 c 0
 505 632 543 577 543 513 c 0
 543 361 426 252 238 252 c 0
 223 252 203 253 176 254 c 1
 138 58 l 1
 145 44 l 1
 209 38 l 1
 209 0 l 1
 -28 0 l 1
185 301 m 1
 199 300 213 299 226 299 c 0
 369 299 450 373 450 497 c 0
 450 588 399 628 289 628 c 0
 276 628 262 627 248 626 c 1
 185 301 l 1
EndSplineSet
EndChar

StartChar: Q
Encoding: 81 81 49
Width: 708
Flags: HMW
HStem: -160 54<558.5 563.5> -12 48<258.5 310> 636 46<364.5 437.5 355 451>
VStem: 40 96<187.5 301.5 187.5 310> 571 98<369.5 463 329.5 486.5>
LayerCount: 2
Fore
SplineSet
40 258 m 0
 40 362 74 461 135 541 c 0
 204 631 303 682 407 682 c 0
 468 682 521 665 562 635 c 0
 629 586 669 507 669 419 c 0
 669 240 588 95 448 19 c 1
 494 -69 523 -106 594 -106 c 0
 616 -106 654 -99 700 -80 c 1
 700 -114 l 1
 639 -143 587 -160 540 -160 c 0
 456 -160 406 -113 360 -8 c 1
 337 -11 318 -12 302 -12 c 0
 153 -12 40 102 40 258 c 0
136 253 m 0
 136 122 207 36 310 36 c 0
 379 36 441 74 492 149 c 0
 540 220 571 320 571 419 c 0
 571 554 503 636 399 636 c 0
 330 636 268 598 216 523 c 0
 167 452 136 350 136 253 c 0
EndSplineSet
EndChar

StartChar: R
Encoding: 82 82 50
Width: 602
Flags: MW
HStem: 0 38<-29 215 -29 -29> 299 45<232 253.5> 626 45<283.5 329 329 342.5>
VStem: 445 95<474 550>
DStem2: 51 57 138 57 0.190453 0.981696<16.5694 266.24 309.963 566.202>
LayerCount: 2
Fore
SplineSet
-29 0 m 1
 -29 38 l 1
 35 43 l 1
 51 57 l 1
 158 613 l 1
 147 627 l 1
 76 633 l 1
 76 671 l 1
 329 671 l 2
 471 671 540 628 540 525 c 0
 540 423 469 345 341 317 c 1
 429 298 437 233 464 139 c 0
 485 63 504 38 581 38 c 0
 584 38 587 38 590 38 c 1
 590 1 l 1
 559 -3 536 -5 520 -5 c 0
 478 -5 447 4 428 20 c 0
 392 50 383 102 368 170 c 0
 355 228 349 268 298 291 c 0
 286 297 267 299 240 299 c 0
 224 299 206 298 185 297 c 1
 138 57 l 1
 150 43 l 1
 215 38 l 1
 215 0 l 1
 -29 0 l 1
194 345 m 1
 207 344 219 344 231 344 c 0
 370 344 445 407 445 510 c 0
 445 590 395 626 290 626 c 0
 277 626 263 625 248 624 c 1
 194 345 l 1
EndSplineSet
EndChar

StartChar: S
Encoding: 83 83 51
Width: 537
Flags: HMW
HStem: -12 48<186.5 257 186.5 273> 637 45<293.5 354.5>
VStem: 97 85<466.5 530> 376 88<141 214>
LayerCount: 2
Fore
SplineSet
9 34 m 1
 42 193 l 1
 94 193 l 1
 84 78 l 1
 94 65 l 1
 132 46 168 36 205 36 c 0
 309 36 376 94 376 182 c 0
 376 246 331 263 266 296 c 0
 161 350 97 389 97 470 c 0
 97 590 195 682 344 682 c 0
 401 682 457 673 511 653 c 1
 479 501 l 1
 435 501 l 1
 439 600 l 1
 427 618 l 1
 398 631 369 637 340 637 c 0
 247 637 182 577 182 503 c 0
 182 430 230 411 314 372 c 0
 412 326 464 287 464 202 c 0
 464 80 353 -12 193 -12 c 0
 127 -12 65 3 9 34 c 1
EndSplineSet
EndChar

StartChar: T
Encoding: 84 84 52
Width: 565
Flags: MW
HStem: 0 38<101 345 101 101> 630 41<147 288 147 147 377 519 377 377>
VStem: 43 567<522 671>
DStem2: 181 58 267 58 0.188847 0.982006<16.2409 581.914>
LayerCount: 2
Fore
SplineSet
43 522 m 1
 72 671 l 1
 610 671 l 1
 580 522 l 1
 526 522 l 1
 530 615 l 1
 519 630 l 1
 377 630 l 1
 267 58 l 1
 280 44 l 1
 345 38 l 1
 345 0 l 1
 101 0 l 1
 101 38 l 1
 165 44 l 1
 181 58 l 1
 288 630 l 1
 147 630 l 1
 130 615 l 1
 98 522 l 1
 43 522 l 1
EndSplineSet
EndChar

StartChar: U
Encoding: 85 85 53
Width: 664
Flags: MW
HStem: -11 61<251 313.5> 633 38<73 316 73 316>
VStem: 73 631<633 671 633 671>
DStem2: 76 240 164 249 0.189531 0.981875<-48.9962 379.885> 501 249 551 240 0.192067 0.981382<-132.566 370.86>
LayerCount: 2
Fore
SplineSet
64 152 m 0
 64 175 69 204 76 240 c 2
 148 613 l 1
 137 628 l 1
 73 633 l 1
 73 671 l 1
 316 671 l 1
 316 633 l 1
 251 628 l 1
 235 613 l 1
 164 249 l 2
 158 218 155 192 155 174 c 0
 155 94 205 50 297 50 c 0
 421 50 475 114 501 249 c 2
 572 613 l 1
 560 628 l 1
 495 633 l 1
 495 671 l 1
 704 671 l 1
 704 633 l 1
 641 628 l 1
 624 613 l 1
 551 240 l 2
 538 174 527 116 477 64 c 0
 431 17 358 -11 269 -11 c 0
 136 -11 64 46 64 152 c 0
EndSplineSet
EndChar

StartChar: V
Encoding: 86 86 54
Width: 590
Flags: MW
HStem: -5 20 633 38<31 240 31 240>
VStem: 31 618<633 671 633 671>
DStem2: 177 613 94 610 0.155798 -0.987789<0 526.946> 256 92 253 -5 0.477 0.878903<0 587.176>
LayerCount: 2
Fore
SplineSet
31 633 m 1
 31 671 l 1
 240 671 l 1
 240 633 l 1
 184 628 l 1
 177 613 l 1
 256 92 l 1
 527 613 l 1
 519 628 l 1
 461 633 l 1
 461 671 l 1
 649 671 l 1
 649 633 l 1
 596 627 l 1
 253 -5 l 1
 191 -5 l 1
 94 610 l 1
 78 628 l 1
 31 633 l 1
EndSplineSet
EndChar

StartChar: W
Encoding: 87 87 55
Width: 898
Flags: MW
HStem: 0 20 633 38<51 265 51 265>
VStem: 51 900<633 671 633 671>
DStem2: 201 613 116 610 0.0816932 -0.996658<0 472.448> 238 142 229 0 0.421257 0.906941<0 472.754> 551 671 484 549 0.106853 -0.994275<114.142 538.915> 607 135 600 0 0.42336 0.905962<0 525.765>
LayerCount: 2
Fore
SplineSet
51 633 m 1
 51 671 l 1
 265 671 l 1
 265 633 l 1
 208 628 l 1
 201 613 l 1
 238 142 l 1
 486 671 l 1
 551 671 l 1
 607 135 l 1
 826 613 l 1
 818 628 l 1
 759 633 l 1
 759 671 l 1
 951 671 l 1
 951 633 l 1
 893 627 l 1
 600 0 l 1
 543 0 l 1
 484 549 l 1
 229 0 l 1
 166 0 l 1
 116 610 l 1
 99 628 l 1
 51 633 l 1
EndSplineSet
EndChar

StartChar: X
Encoding: 88 88 56
Width: 569
Flags: MW
HStem: 0 38<-83 144 -83 -83> 633 38<54 297 54 297>
VStem: -83 715<0 671 38 671>
DStem2: -1 58 69 58 0.654172 0.756345<45.7921 354.511 463.385 739.008> 216 613 128 613 0.403843 -0.914828<0 225.311 321.146 571.133>
LayerCount: 2
Fore
SplineSet
-83 0 m 1
 -83 38 l 1
 -18 44 l 1
 -1 58 l 1
 248 340 l 1
 128 613 l 1
 118 628 l 1
 54 633 l 1
 54 671 l 1
 297 671 l 1
 297 633 l 1
 231 628 l 1
 216 613 l 1
 305 406 l 1
 487 613 l 1
 481 628 l 1
 424 633 l 1
 424 671 l 1
 632 671 l 1
 632 633 l 1
 562 628 l 1
 328 360 l 1
 460 58 l 1
 470 44 l 1
 534 38 l 1
 534 0 l 1
 292 0 l 1
 292 38 l 1
 357 44 l 1
 373 58 l 1
 275 288 l 1
 69 58 l 1
 79 44 l 1
 144 38 l 1
 144 0 l 1
 -83 0 l 1
EndSplineSet
EndChar

StartChar: Y
Encoding: 89 89 57
Width: 562
Flags: MW
HStem: 0 38<97 340 97 97> 633 38<31 274 31 274>
VStem: 31 611<633 671 633 671>
DStem2: 193 613 106 613 0.312046 -0.950067<0 296.953> 176 58 262 58 0.193577 0.981085<16.6476 218.082> 283 330 306 281 0.607628 0.794222<0 351.759>
LayerCount: 2
Fore
SplineSet
31 633 m 1
 31 671 l 1
 274 671 l 1
 274 633 l 1
 209 628 l 1
 193 613 l 1
 283 330 l 1
 492 613 l 1
 482 628 l 1
 418 633 l 1
 418 671 l 1
 642 671 l 1
 642 633 l 1
 576 628 l 1
 560 613 l 1
 306 281 l 1
 262 58 l 1
 275 44 l 1
 340 38 l 1
 340 0 l 1
 97 0 l 1
 97 38 l 1
 160 44 l 1
 176 58 l 1
 218 272 l 1
 106 613 l 1
 96 628 l 1
 31 633 l 1
EndSplineSet
EndChar

StartChar: Z
Encoding: 90 90 58
Width: 556
Flags: MW
HStem: 0 49<90 376 90 445> 623 48<206 454 206 206>
VStem: -25 597
DStem2: -18 41 90 49 0.629889 0.776685<74.2415 749.338>
LayerCount: 2
Fore
SplineSet
-25 0 m 1
 -18 41 l 1
 454 623 l 1
 206 623 l 1
 184 610 l 1
 150 516 l 1
 98 516 l 1
 128 671 l 1
 572 671 l 1
 563 629 l 1
 90 49 l 1
 376 49 l 1
 390 62 l 1
 430 181 l 1
 479 181 l 1
 445 0 l 1
 -25 0 l 1
EndSplineSet
EndChar

StartChar: bracketleft
Encoding: 91 91 59
Width: 421
Flags: HMW
HStem: -133 43<136 286> 665 43<281 439 281 281>
VStem: 49 398
LayerCount: 2
Fore
SplineSet
49 -133 m 1
 210 708 l 1
 447 708 l 1
 439 665 l 1
 281 665 l 1
 136 -90 l 1
 294 -90 l 1
 286 -133 l 1
 49 -133 l 1
EndSplineSet
EndChar

StartChar: backslash
Encoding: 92 92 60
Width: 481
Flags: HMW
HStem: -93 764<35 488 35 432>
VStem: 35 453
LayerCount: 2
Fore
SplineSet
35 671 m 1
 92 671 l 1
 488 -93 l 1
 432 -93 l 1
 35 671 l 1
EndSplineSet
EndChar

StartChar: bracketright
Encoding: 93 93 61
Width: 421
Flags: HMW
HStem: -133 43<-36 122 -36 193 -44 122> 665 43<117 267 109 354>
VStem: -44 398
LayerCount: 2
Fore
SplineSet
-44 -133 m 1
 -36 -90 l 1
 122 -90 l 1
 267 665 l 1
 109 665 l 1
 117 708 l 1
 354 708 l 1
 193 -133 l 1
 -44 -133 l 1
EndSplineSet
EndChar

StartChar: asciicircum
Encoding: 94 94 62
Width: 1000
Flags: HMW
HStem: 438 276<201 543 201 543 456 797 456 752>
VStem: 201 596<438 438>
LayerCount: 2
Fore
SplineSet
201 438 m 1
 456 714 l 1
 543 714 l 1
 797 438 l 1
 752 438 l 1
 499 651 l 1
 245 438 l 1
 201 438 l 1
EndSplineSet
EndChar

StartChar: underscore
Encoding: 95 95 63
Width: 500
Flags: MW
HStem: -236 58<0 500 0 500>
VStem: 0 500<-236 -178 -236 -178>
LayerCount: 2
Fore
SplineSet
0 -178 m 1
 500 -178 l 1
 500 -236 l 1
 0 -236 l 1
 0 -178 l 1
EndSplineSet
EndChar

StartChar: quoteleft
Encoding: 8216 8216 64
Width: 201
Flags: HMW
HStem: 442 271<114.5 246>
VStem: 70 135<492.5 514.5 492.5 539>
LayerCount: 2
Fore
SplineSet
70 509 m 0
 70 569 114 641 203 713 c 1
 246 713 l 1
 173 646 134 590 134 538 c 0
 134 537 134 537 134 536 c 1
 198 536 l 1
 203 527 205 519 205 510 c 0
 205 475 175 442 134 442 c 0
 95 442 70 467 70 509 c 0
EndSplineSet
EndChar

StartChar: a
Encoding: 97 97 65
Width: 525
Flags: MW
HStem: -9 61<158 179> 443 39<250.5 305.5 303 314 250.5 317>
VStem: 17 83<132 199.5>
DStem2: 305 118 388 162 0.193256 0.981148<-10.7514 269.072>
LayerCount: 2
Fore
SplineSet
17 166 m 0
 17 233 35 295 69 351 c 0
 120 435 201 482 300 482 c 0
 328 482 359 475 390 460 c 1
 410 482 l 1
 462 482 l 1
 452 461 439 413 424 339 c 2
 388 162 l 2
 381 129 378 106 378 92 c 0
 378 60 395 46 432 46 c 0
 443 46 461 50 488 56 c 1
 488 26 l 1
 433 3 392 -9 365 -9 c 0
 323 -9 304 16 304 67 c 0
 304 70 304 72 304 75 c 1
 251 19 203 -9 155 -9 c 0
 70 -9 17 56 17 166 c 0
100 172 m 0
 100 92 129 52 187 52 c 0
 225 52 264 74 305 118 c 1
 357 382 l 1
 317 443 l 1
 312 443 308 443 303 443 c 0
 186 443 100 331 100 172 c 0
EndSplineSet
EndChar

StartChar: b
Encoding: 98 98 66
Width: 507
Flags: MW
HStem: -9 41<182.5 215> 423 61<302 311.5> 681 25<55 55> 716 20<207 240 240 240>
VStem: 370 82<271 339.5>
DStem2: 25 35 110 72 0.182592 0.983189<39.7347 373.499 394.919 640.252>
LayerCount: 2
Fore
SplineSet
25 35 m 1
 142 665 l 1
 55 681 l 1
 55 706 l 1
 207 736 l 1
 240 736 l 1
 231 708 223 678 217 644 c 2
 174 409 l 1
 233 459 282 484 322 484 c 0
 397 484 452 417 452 314 c 0
 452 228 425 148 374 86 c 0
 323 24 253 -9 177 -9 c 0
 124 -9 73 5 25 35 c 1
110 72 m 1
 137 45 166 32 199 32 c 0
 241 32 280 58 314 109 c 0
 346 157 370 232 370 301 c 0
 370 378 336 423 287 423 c 0
 251 423 215 403 167 370 c 1
 110 72 l 1
EndSplineSet
EndChar

StartChar: c
Encoding: 99 99 67
Width: 394
Flags: HMW
HStem: -10 60<163 192.5> 436 49<203.5 304.5 246 249>
VStem: 15 79<142.5 216.5>
LayerCount: 2
Fore
SplineSet
15 172 m 0
 15 261 45 340 98 398 c 0
 149 454 215 485 277 485 c 0
 332 485 370 453 370 415 c 0
 370 384 345 361 307 360 c 1
 249 436 l 1
 247 436 246 436 244 436 c 0
 163 436 94 335 94 186 c 0
 94 99 132 50 194 50 c 0
 240 50 296 78 350 133 c 1
 350 87 l 1
 288 22 222 -10 163 -10 c 0
 75 -10 15 59 15 172 c 0
EndSplineSet
EndChar

StartChar: d
Encoding: 100 100 68
Width: 523
Flags: MW
HStem: -9 57<162 178.5> 447 39<253.5 292.5> 679 28<322 322> 716 20<475 501 501 501>
VStem: 21 81<131.5 204>
DStem2: 316 133 394 137 0.175848 0.984417<-35.4968 257.955 341.139 544.177>
LayerCount: 2
Fore
SplineSet
21 170 m 0
 21 238 38 300 70 351 c 0
 124 436 212 486 295 486 c 0
 322 486 348 481 375 469 c 1
 410 669 l 1
 322 679 l 1
 322 707 l 1
 475 736 l 1
 501 736 l 1
 394 137 l 2
 390 115 388 96 388 83 c 0
 388 55 402 41 432 41 c 0
 445 41 467 45 497 52 c 1
 497 22 l 1
 442 2 400 -7 374 -7 c 0
 328 -7 307 15 307 64 c 0
 307 70 307 77 308 84 c 1
 259 22 205 -9 152 -9 c 0
 72 -9 21 56 21 170 c 0
102 171 m 0
 102 92 136 48 188 48 c 0
 225 48 271 76 316 133 c 1
 361 387 l 1
 313 444 l 1
 304 445 296 447 289 447 c 0
 199 447 102 338 102 171 c 0
EndSplineSet
EndChar

StartChar: e
Encoding: 101 101 69
Width: 424
Flags: HMW
HStem: -9 55<174 205> 222 34 440 42<250.5 268.5>
VStem: 21 81<135.5 184 135.5 215> 306 72<354.5 401.5>
LayerCount: 2
Fore
SplineSet
21 173 m 0
 21 257 54 341 110 400 c 0
 161 453 226 482 275 482 c 0
 338 482 378 443 378 383 c 0
 378 298 283 234 105 222 c 1
 103 208 102 192 102 176 c 0
 102 95 142 46 206 46 c 0
 252 46 308 74 366 128 c 1
 366 81 l 1
 304 21 238 -9 172 -9 c 0
 78 -9 21 57 21 173 c 0
110 256 m 1
 235 263 306 323 306 386 c 0
 306 417 283 440 254 440 c 0
 196 440 139 377 110 256 c 1
EndSplineSet
EndChar

StartChar: f
Encoding: 102 102 70
Width: 292
Flags: MW
HStem: -216 66<-113 -25> 410 45<182 323 182 323 174 323> 688 44<272 344>
VStem: -151 554
DStem2: 58 123 134 126 0.144799 0.989461<-174.27 290.057 347.904 477.846>
LayerCount: 2
Fore
SplineSet
-151 -163 m 0
 -151 -147 -143 -133 -129 -123 c 1
 -25 -150 l 1
 22 -101 39 -10 58 123 c 2
 100 410 l 1
 33 403 l 1
 34 436 l 1
 110 467 l 1
 143 639 227 732 320 732 c 0
 368 732 403 703 403 673 c 0
 403 647 385 627 354 621 c 1
 272 688 l 1
 234 663 204 585 182 455 c 1
 323 455 l 1
 323 410 l 1
 174 410 l 1
 134 126 l 2
 121 34 103 -41 59 -103 c 0
 6 -178 -49 -216 -97 -216 c 0
 -129 -216 -151 -195 -151 -163 c 0
EndSplineSet
EndChar

StartChar: g
Encoding: 103 103 71
Width: 481
Flags: HW
HStem: -218 42<142 225.5 142 227> 160 34<197 223.5 174.5 249.5> 415 43<377 480 377 377> 446 37<214 260 189.5 264.5>
VStem: -31 78<-97 -53> 49 79<262.5 325 251 343.5> 311 79<309.5 359.5 294 384.5> 322 77<-106 -76>
LayerCount: 2
Fore
SplineSet
-31 -85 m 0
 -31 -21 12 19 102 54 c 1
 101 60 101 65 101 71 c 0
 101 104 114 134 141 168 c 1
 81 192 49 236 49 289 c 0
 49 398 135 483 244 483 c 0xdd
 276 483 306 474 337 458 c 1x22
 480 458 l 1
 480 415 l 1
 377 415 l 1
 386 392 390 370 390 349 c 0x22
 390 239 301 160 198 160 c 0
 196 160 188 160 175 161 c 1
 166 144 162 127 162 108 c 0
 162 106 162 104 162 102 c 1
 321 30 l 2
 373 6 399 -26 399 -69 c 0
 399 -143 296 -218 158 -218 c 0
 41 -218 -31 -165 -31 -85 c 0
47 -65 m 0
 47 -129 102 -176 182 -176 c 0
 269 -176 322 -134 322 -89 c 0
 322 -63 304 -42 266 -25 c 2
 139 34 l 1xdd
 79 20 47 -14 47 -65 c 0
128 278 m 0
 128 224 154 194 195 194 c 0
 252 194 311 264 311 355 c 0x56
 311 414 286 446 243 446 c 0
 185 446 128 372 128 278 c 0
EndSplineSet
EndChar

StartChar: h
Encoding: 104 104 72
Width: 551
Flags: MW
HStem: -6 49<360 456> 0 20 421 62<301.5 399> 678 25<66 66> 716 20<223 254 254 254>
VStem: 372 85<350.5 427.5>
DStem2: 23 0 108 0 0.200332 0.979728<17.0283 396.146 411.787 683.863> 319 108 408 158 0.226397 0.974035<4.05457 253.933>
LayerCount: 2
Fore
SplineSet
23 0 m 1
 160 670 l 1
 66 678 l 1
 66 703 l 1
 223 736 l 1x7c
 254 736 l 1
 241 688 228 629 214 559 c 2
 181 388 l 1
 259 451 321 483 373 483 c 0
 425 483 457 452 457 403 c 0
 457 378 451 349 443 313 c 2
 408 158 l 2
 402 131 398 110 398 93 c 0
 398 61 416 43 449 43 c 0
 463 43 482 46 505 52 c 1
 505 25 l 1
 452 4 411 -6 385 -6 c 0xac
 335 -6 312 13 312 55 c 0
 312 68 314 86 319 108 c 2
 362 293 l 2
 369 322 372 344 372 357 c 0
 372 400 356 421 318 421 c 0
 285 421 232 395 170 339 c 1
 108 0 l 1
 23 0 l 1
EndSplineSet
EndChar

StartChar: i
Encoding: 105 105 73
Width: 287
Flags: HMW
HStem: -7 51<91.5 189.5> 424 26<33 33> 462 20<181 207 207 207> 596 108<186 215.5>
VStem: 49 83<37 86> 147 108<635 664.5 635 665>
LayerCount: 2
Fore
SplineSet
147 650 m 0
 147 680 171 704 201 704 c 0
 230 704 255 679 255 650 c 0
 255 620 230 596 201 596 c 0
 171 596 147 619 147 650 c 0
EndSplineSet
Refer: 144 305 S 1 0 0 1 0 0 3
EndChar

StartChar: j
Encoding: 106 106 74
Width: 269
Flags: W
HStem: -216 66<-91 -3> 430 23<25 25> 462 20<177 213 213 213> 593 108<151.676 238.03>
VStem: -128 341 141 108<604.463 689.537>
DStem2: 81 123 157 126 0.155393 0.987853<-179.652 298.409>
LayerCount: 2
Fore
SplineSet
141 647 m 0xf4
 141 677 165 701 195 701 c 0
 224 701 249 677 249 647 c 0
 249 617 224 593 195 593 c 0
 165 593 141 617 141 647 c 0xf4
EndSplineSet
Refer: 228 567 S 1 0 0 1 0 0 3
EndChar

StartChar: k
Encoding: 107 107 75
Width: 514
Flags: MW
HStem: -5 48<356 448.5> 0 22 462 20<407 435.5> 679 28<68 68> 716 20<225 253 253 253>
VStem: 25 451<0 445.5>
DStem2: 25 0 108 0 0.193295 0.981141<16.0435 210.608 256.9 687.384>
LayerCount: 2
Fore
SplineSet
25 0 m 1
 160 674 l 1
 68 679 l 1
 68 707 l 1
 225 736 l 1x5c
 253 736 l 1
 146 238 l 1
 331 429 l 2
 366 465 395 482 419 482 c 0
 452 482 476 460 476 431 c 0
 476 405 458 384 421 369 c 1
 385 408 l 1
 342 377 300 340 256 300 c 1
 332 128 372 43 441 43 c 0xac
 456 43 473 46 493 50 c 1
 493 22 l 1x5c
 435 3 395 -5 376 -5 c 0xac
 336 -5 308 20 282 72 c 2
 197 244 l 1
 140 192 l 1
 108 0 l 1
 25 0 l 1
EndSplineSet
EndChar

StartChar: l
Encoding: 108 108 76
Width: 275
Flags: MW
HStem: -9 49<83.5 178.5> 680 26<60 60> 716 20<212 239 239 239>
VStem: 35 80<71.5 72>
DStem2: 53 180 126 168 0.196866 0.98043<-78.3212 499.31>
LayerCount: 2
Fore
SplineSet
35 65 m 0
 35 79 41 118 53 180 c 2
 149 670 l 1
 60 680 l 1
 60 706 l 1
 212 736 l 1
 239 736 l 1
 232 699 228 677 227 671 c 2
 126 168 l 2
 118 128 115 101 115 87 c 0
 115 56 134 40 170 40 c 0
 187 40 211 46 241 56 c 1
 241 25 l 1
 184 1 139 -9 108 -9 c 0
 59 -9 35 15 35 65 c 0
EndSplineSet
EndChar

StartChar: m
Encoding: 109 109 77
Width: 815
Flags: HMW
HStem: -6 49<628 724> 0 20 421 29 424 58
VStem: 376 79<340 380.5> 640 83<350 423.5>
DStem2: 32 0 116 0 0.18355 0.98301<15.4182 386.774 409.059 416.303> 307 0 390 0 0.187776 0.982212<15.5854 367.866> 588 108 677 158 0.226397 0.974035<3.7841 253.663>
LayerCount: 2
Fore
SplineSet
32 0 m 1x6c
 115 408 l 1
 33 424 l 1x5c
 33 450 l 1x2c
 181 482 l 1
 206 482 l 1
 188 387 l 1
 266 451 330 482 377 482 c 0
 427 482 457 450 458 391 c 1
 531 452 593 482 641 482 c 0
 689 482 723 450 723 397 c 0
 723 375 719 347 711 313 c 2
 677 158 l 2
 671 131 666 109 666 93 c 0
 666 61 685 43 717 43 c 0
 731 43 750 46 773 52 c 1
 773 25 l 1
 720 5 680 -6 653 -6 c 0x9c
 603 -6 580 13 580 54 c 0
 580 66 583 85 588 108 c 2
 631 293 l 2
 638 322 640 343 640 357 c 0
 640 399 624 421 591 421 c 0
 553 421 501 394 455 340 c 1
 390 0 l 1
 307 0 l 1
 367 293 l 2
 373 325 376 348 376 362 c 0
 376 399 356 421 321 421 c 0
 295 421 242 396 179 339 c 1
 116 0 l 1
 32 0 l 1x6c
EndSplineSet
EndChar

StartChar: n
Encoding: 110 110 78
Width: 556
Flags: MW
HStem: -6 49<369.5 466> 0 20 420 62 424 25<33 33>
VStem: 381 85<350.5 426.5>
DStem2: 32 0 117 0 0.181578 0.983377<15.4341 385.147 407.909 417.272> 329 108 418 158 0.226397 0.974035<2.76512 253.707>
LayerCount: 2
Fore
SplineSet
32 0 m 1x68
 115 409 l 1
 33 424 l 1
 33 449 l 1x58
 181 482 l 1
 206 482 l 1
 188 386 l 1
 267 449 329 482 382 482 c 0
 434 482 466 451 466 402 c 0
 466 377 460 349 452 313 c 2
 418 158 l 2
 412 129 407 107 407 92 c 0
 407 60 426 43 459 43 c 0
 473 43 491 46 514 52 c 1
 514 24 l 1
 462 4 422 -6 394 -6 c 0xa8
 345 -6 321 14 321 54 c 0
 321 67 324 86 329 108 c 2
 372 293 l 2
 379 322 381 344 381 357 c 0
 381 401 365 420 327 420 c 0
 293 420 240 394 179 338 c 1
 117 0 l 1
 32 0 l 1x68
EndSplineSet
EndChar

StartChar: o
Encoding: 111 111 79
Width: 502
Flags: HMW
HStem: -9 41<174 226.5> 444 39<245 296.5>
VStem: 22 85<132 221.5> 364 85<247.5 342.5>
LayerCount: 2
Back
SplineSet
22 181 m 4
 22 262 52 343 102 400 c 4
 150 454 211 483 279 483 c 4
 383 483 449 408 449 287 c 4
 449 208 420 132 368 72 c 4
 321 18 261 -9 192 -9 c 4
 89 -9 22 65 22 181 c 4
107 180 m 4
 107 84 144 32 204 32 c 4
 289 32 364 141 364 293 c 4
 364 392 327 444 266 444 c 4
 180 444 107 335 107 180 c 4
EndSplineSet
Fore
SplineSet
22 181 m 0
 22 262 52 343 102 400 c 0
 150 454 211 483 279 483 c 0
 383 483 449 408 449 287 c 0
 449 208 420 132 368 72 c 0
 321 18 261 -9 192 -9 c 0
 89 -9 22 65 22 181 c 0
107 180 m 0
 107 84 144 32 204 32 c 0
 289 32 364 141 364 293 c 0
 364 392 327 444 266 444 c 0
 180 444 107 335 107 180 c 0
EndSplineSet
EndChar

StartChar: p
Encoding: 112 112 80
Width: 516
Flags: MW
HStem: -218 30<-69 171 -69 -69> -4 44<191 220> 427 25<27 27> 430 52<312.5 315>
VStem: 378 83<266 345.5>
DStem2: 0 -165 76 -171 0.179283 0.983797<7.72273 196.625 242.708 586.758>
LayerCount: 2
Fore
SplineSet
-69 -188 m 1xd8
 -10 -176 l 1
 0 -165 l 1
 105 417 l 1
 27 427 l 1
 27 452 l 1xe8
 169 482 l 1
 195 482 l 1
 183 421 l 1
 241 462 291 482 334 482 c 0
 413 482 461 421 461 308 c 0
 461 221 433 148 376 85 c 0
 325 29 254 -4 186 -4 c 0
 160 -4 134 3 109 15 c 1
 76 -171 l 1
 171 -188 l 1
 171 -218 l 1
 -69 -218 l 1
 -69 -188 l 1xd8
119 67 m 1
 149 49 177 40 205 40 c 0
 249 40 286 60 317 101 c 0
 350 145 378 226 378 306 c 0
 378 385 342 430 288 430 c 0xd8
 258 430 221 412 176 377 c 1
 119 67 l 1
EndSplineSet
EndChar

StartChar: q
Encoding: 113 113 81
Width: 512
Flags: MW
HStem: -218 32<197 443 197 197> -6 58<170.5 183.5> 445 42<271.5 297.5>
VStem: 25 81<131 210 131 211>
DStem2: 269 -162 347 -169 0.168604 0.985684<6.25131 234.437 252.262 553.215>
LayerCount: 2
Fore
SplineSet
25 172 m 0
 25 250 48 319 91 375 c 0
 145 446 222 487 293 487 c 0
 322 487 354 477 388 462 c 1
 414 487 l 1
 462 487 l 1
 457 467 453 452 451 439 c 2
 347 -169 l 1
 443 -186 l 1
 443 -218 l 1
 197 -218 l 1
 197 -186 l 1
 258 -174 l 1
 269 -162 l 1
 309 69 l 1
 256 19 207 -6 160 -6 c 0
 78 -6 25 60 25 172 c 0
106 167 m 0
 106 95 142 52 199 52 c 0
 237 52 275 72 316 112 c 1
 364 383 l 1
 314 444 l 1
 307 445 301 445 294 445 c 0
 249 445 209 424 173 381 c 0
 136 336 106 253 106 167 c 0
EndSplineSet
EndChar

StartChar: r
Encoding: 114 114 82
Width: 398
Flags: MW
HStem: 0 20 419 63 424 25<29 29>
VStem: 29 370<424 445 411 449 411 449>
DStem2: 28 0 112 0 0.173669 0.984804<14.5882 417.199>
LayerCount: 2
Fore
SplineSet
28 0 m 1
 111 409 l 1
 29 424 l 1
 29 449 l 1xb0
 177 482 l 1x50
 197 482 l 1
 165 345 l 1
 229 436 293 482 343 482 c 0
 377 482 399 460 399 430 c 0
 399 392 373 365 332 365 c 0
 329 365 327 365 325 365 c 1
 299 419 l 1x50
 201 381 169 327 153 235 c 2
 112 0 l 1
 28 0 l 1
EndSplineSet
EndChar

StartChar: s
Encoding: 115 115 83
Width: 370
Flags: HMW
HStem: -9 36<116.5 160.5 116.5 170.5> 437 45<183 198.5>
VStem: 59 64<352 372> 223 76<101.5 131>
LayerCount: 2
Fore
SplineSet
-17 79 m 0
 -17 110 4 130 35 130 c 0
 49 130 62 124 78 112 c 1
 60 62 l 1
 76 39 101 27 132 27 c 0
 189 27 223 59 223 112 c 0
 223 150 196 173 154 205 c 0
 97 248 59 275 59 331 c 0
 59 413 135 482 231 482 c 0
 288 482 324 455 324 420 c 0
 324 392 303 371 266 369 c 1
 224 427 l 1
 214 434 204 437 193 437 c 0
 153 437 123 409 123 370 c 0
 123 334 151 313 198 277 c 0
 258 231 299 205 299 145 c 0
 299 58 225 -9 116 -9 c 0
 32 -9 -17 27 -17 79 c 0
EndSplineSet
EndChar

StartChar: t
Encoding: 116 116 84
Width: 333
Flags: HMW
HStem: -7 56<99.5 198.5> 422 43<192 336 192 336 184 336> 559 20<167 213 213 213>
VStem: 44 82<91 92>
LayerCount: 2
Fore
SplineSet
44 84 m 0
 44 100 46 123 52 151 c 2
 106 422 l 1
 44 417 l 1
 44 447 l 1
 117 479 l 1
 167 579 l 1
 213 579 l 1
 192 465 l 1
 336 465 l 1
 336 422 l 1
 184 422 l 1
 132 155 l 2
 129 137 126 122 126 111 c 0
 126 71 147 49 187 49 c 0
 210 49 242 56 282 69 c 1
 282 37 l 1
 215 8 163 -7 128 -7 c 0
 71 -7 44 23 44 84 c 0
EndSplineSet
EndChar

StartChar: u
Encoding: 117 117 85
Width: 553
Flags: HMW
HStem: -8 57<169 171> 424 26<30 30> 453 20<404 485 485 485>
VStem: 47 82<86.5 94.5>
DStem2: 55 146 140 178 0.211593 0.977358<-24.6962 269.318> 329 112 414 147 0.203413 0.979093<-16.0889 368.709>
LayerCount: 2
Fore
SplineSet
30 424 m 1
 30 450 l 1
 187 483 l 1
 203 469 l 1
 140 178 l 2
 133 144 129 119 129 104 c 0
 129 69 151 49 187 49 c 0
 222 49 273 68 329 112 c 1
 404 473 l 1
 485 473 l 1
 414 147 l 2
 409 122 404 100 404 79 c 0
 404 58 424 40 456 40 c 0
 469 40 488 44 512 51 c 1
 512 23 l 1
 457 3 415 -8 384 -8 c 0
 343 -8 324 12 324 56 c 0
 324 62 324 68 325 75 c 1
 258 19 198 -8 144 -8 c 0
 84 -8 47 27 47 86 c 0
 47 103 50 123 55 146 c 2
 113 409 l 1
 30 424 l 1
EndSplineSet
EndChar

StartChar: v
Encoding: 118 118 86
Width: 454
Flags: HMW
HStem: 0 20 464 20
VStem: -8 442<426 445 392.5 451 392.5 451>
LayerCount: 2
Fore
SplineSet
-8 426 m 1
 -8 451 l 1
 93 484 l 2
 94 484 95 484 95 484 c 2
 152 484 163 449 171 369 c 2
 197 95 l 1
 273 192 324 273 350 342 c 1
 331 464 l 1
 347 477 364 484 381 484 c 0
 415 484 434 463 434 427 c 0
 434 358 346 210 160 0 c 1
 112 0 l 1
 122 19 126 41 126 65 c 0
 126 77 125 89 124 101 c 2
 99 335 l 2
 94 381 86 409 69 420 c 1
 -8 426 l 1
EndSplineSet
EndChar

StartChar: w
Encoding: 119 119 87
Width: 713
Flags: HMW
HStem: 0 22<101 101 101 158 93 101> 427 24<0 0> 465 19
VStem: 0 688<427 445 389.5 451 389.5 451>
LayerCount: 2
Fore
SplineSet
0 427 m 1
 0 451 l 1
 115 485 l 1
 150 483 l 1
 172 89 l 1
 238 214 303 336 356 460 c 1
 416 467 l 1
 420 375 429 244 443 75 c 1
 526 186 582 274 605 344 c 1
 585 461 l 1
 598 477 615 484 636 484 c 0
 669 484 688 463 688 427 c 0
 688 352 596 217 431 0 c 1
 373 0 l 1
 349 349 l 1
 323 292 260 175 158 0 c 1
 93 0 l 1
 101 22 l 1
 74 418 l 1
 0 427 l 1
EndSplineSet
EndChar

StartChar: x
Encoding: 120 120 88
Width: 477
Flags: HMW
HStem: -6 49<287 386.5> 415 71<111 169.5>
VStem: -47 541<30 444.5>
LayerCount: 2
Fore
SplineSet
-47 46 m 0
 -47 73 -29 91 2 97 c 1
 48 54 l 1
 93 78 146 142 187 241 c 1
 161 332 138 390 111 415 c 1
 28 426 l 1
 28 450 l 1
 129 485 l 1
 133 485 136 486 140 486 c 0
 199 486 211 420 246 284 c 1
 312 418 374 485 437 485 c 0
 469 485 494 460 494 429 c 0
 494 405 477 386 445 373 c 1
 402 412 l 1
 356 400 312 343 268 241 c 1
 307 106 321 43 381 43 c 0
 392 43 410 47 434 54 c 1
 434 23 l 1
 387 4 349 -6 322 -6 c 0
 252 -6 239 53 206 195 c 1
 141 59 81 -8 15 -8 c 0
 -23 -8 -47 14 -47 46 c 0
EndSplineSet
EndChar

StartChar: y
Encoding: 121 121 89
Width: 475
Flags: HMW
HStem: -217 62<0 0 0 12.5> 424 62<70 128>
VStem: -113 597<-169 456>
LayerCount: 2
Fore
SplineSet
-113 -151 m 0
 -113 -124 -92 -101 -59 -96 c 1
 0 -155 l 1
 61 -151 116 -92 175 21 c 1
 172 19 l 1
 110 320 l 2
 101 366 88 400 70 424 c 1
 -15 431 l 1
 -15 453 l 1
 83 485 l 2
 87 486 92 486 96 486 c 0
 160 486 167 417 196 271 c 2
 229 102 l 1
 271 209 323 335 386 482 c 1
 405 482 l 1
 484 456 l 1
 484 435 l 1
 433 405 l 1
 360 323 320 184 237 34 c 0
 145 -133 54 -217 -29 -217 c 0
 -78 -217 -113 -187 -113 -151 c 0
EndSplineSet
EndChar

StartChar: z
Encoding: 122 122 90
Width: 440
Flags: HMW
HStem: -2 67<278.5 289.5> 412 71<139.5 153.5>
VStem: -14 448<19 458>
LayerCount: 2
Fore
SplineSet
-14 19 m 1
 330 405 l 1
 231 383 l 1
 194 402 164 412 143 412 c 0
 117 412 95 401 80 380 c 1
 133 316 l 1
 121 295 106 284 86 284 c 0
 58 284 39 306 39 343 c 0
 39 413 105 483 174 483 c 0
 204 483 229 470 256 456 c 0
 282 443 303 433 324 433 c 0
 333 433 343 436 354 441 c 1
 373 490 l 1
 434 458 l 1
 89 73 l 1
 186 98 l 1
 235 76 269 65 288 65 c 0
 313 65 334 77 350 101 c 1
 295 162 l 1
 309 186 326 198 343 198 c 0
 371 198 392 174 392 138 c 0
 392 69 326 -2 253 -2 c 0
 196 -2 145 41 97 41 c 0
 86 41 76 38 65 32 c 1
 41 -11 l 1
 -14 19 l 1
EndSplineSet
EndChar

StartChar: braceleft
Encoding: 123 123 91
Width: 486
Flags: HMW
HStem: -134 39<322 418 393 418> 268 43<87 88 65 136> 666 37<405 418>
VStem: 210 80<440 465 465 542 542 546>
LayerCount: 2
Fore
SplineSet
65 268 m 1
 65 312 l 1
 74 311 83 311 91 311 c 0
 181 311 210 347 210 440 c 2
 210 542 l 2
 210 656 268 703 405 703 c 0
 409 703 414 703 418 703 c 1
 418 666 l 1
 318 663 290 634 290 546 c 2
 290 465 l 2
 290 360 260 311 160 290 c 1
 254 269 291 221 291 121 c 2
 291 38 l 2
 291 -62 305 -93 418 -95 c 1
 418 -134 l 1
 409 -134 401 -134 393 -134 c 0
 251 -134 211 -90 211 49 c 2
 211 134 l 2
 211 233 180 268 88 268 c 0
 81 268 73 268 65 268 c 1
EndSplineSet
EndChar

StartChar: bar
Encoding: 124 124 92
Width: 500
Flags: HMW
HStem: -236 20 744 20<219 281 281 281>
VStem: 219 62<-236 764 -236 764>
LayerCount: 2
Fore
SplineSet
219 -236 m 1
 219 764 l 1
 281 764 l 1
 281 -236 l 1
 219 -236 l 1
EndSplineSet
EndChar

StartChar: braceright
Encoding: 125 125 93
Width: 486
Flags: HMW
HStem: -134 39<64 88 64 68> 268 43<348 395 346 397.5 394 395 346 417> 666 37<64 77>
VStem: 191 80<38 49 49 121 121 134>
LayerCount: 2
Fore
SplineSet
64 -95 m 1
 177 -93 191 -62 191 38 c 2
 191 121 l 2
 191 221 228 269 322 290 c 1
 222 311 192 360 192 465 c 2
 192 546 l 2
 192 634 164 663 64 666 c 1
 64 703 l 1
 68 703 73 703 77 703 c 0
 214 703 272 656 272 542 c 2
 272 440 l 2
 272 347 301 311 391 311 c 0
 399 311 408 311 417 312 c 1
 417 268 l 1
 409 268 401 268 394 268 c 0
 302 268 271 233 271 134 c 2
 271 49 l 2
 271 -89 231 -134 88 -134 c 0
 80 -134 72 -134 64 -134 c 1
 64 -95 l 1
EndSplineSet
EndChar

StartChar: asciitilde
Encoding: 126 126 94
Width: 833
Flags: HMW
HStem: 236 58<543.5 588> 303 58<247 302 247 306>
VStem: 87 660<225 370 290 370>
LayerCount: 2
Fore
SplineSet
87 225 m 1
 87 290 l 1
 155 337 218 361 276 361 c 0
 328 361 373 345 418 329 c 0
 466 312 509 294 559 294 c 0
 619 294 677 321 747 370 c 1
 747 306 l 1
 681 259 618 236 558 236 c 0
 529 236 498 242 465 253 c 0
 396 276 337 303 275 303 c 0
 216 303 158 275 87 225 c 1
EndSplineSet
EndChar

StartChar: exclamdown
Encoding: 161 161 95
Width: 338
Flags: HMW
HStem: -9 512<90.5 228> 569 114<205 236 205 236.5>
VStem: 163 114<610.5 641.5 610.5 642>
LayerCount: 2
Fore
SplineSet
61 39 m 0
 61 50 67 78 78 121 c 2
 179 503 l 1
 228 503 l 1
 183 121 l 2
 173 35 159 -9 105 -9 c 0
 76 -9 61 8 61 39 c 0
163 626 m 0
 163 658 189 683 221 683 c 0
 251 683 277 657 277 626 c 0
 277 595 252 569 221 569 c 0
 189 569 163 594 163 626 c 0
EndSplineSet
EndChar

StartChar: cent
Encoding: 162 162 96
Width: 556
Flags: HMW
HStem: -98 20 1 45<263 277 254 278.5> 458 44<350 357> 581 20<324 369 369 369>
VStem: 42 85<155.5 256.5 155.5 266>
LayerCount: 2
Fore
SplineSet
42 187 m 0
 42 345 146 474 305 500 c 1
 324 601 l 1
 369 601 l 1
 350 502 l 1
 356 502 362 502 369 502 c 0
 417 502 458 495 491 480 c 1
 470 367 l 1
 417 367 l 1
 422 438 l 1
 399 451 372 458 342 458 c 1
 263 46 l 1
 294 46 324 52 351 65 c 1
 373 139 l 1
 426 139 l 1
 403 22 l 1
 362 8 321 1 277 1 c 0
 270 1 262 1 254 1 c 1
 235 -98 l 1
 190 -98 l 1
 209 3 l 1
 102 20 42 89 42 187 c 0
127 194 m 0
 127 117 161 64 218 48 c 1
 296 454 l 1
 198 427 127 319 127 194 c 0
EndSplineSet
EndChar

StartChar: sterling
Encoding: 163 163 97
Width: 556
Flags: HMW
HStem: 0 76<151 448 151 448> 305 46<72 142 72 150 234 418> 634 48<363.5 419 418 422>
VStem: -21 568<0 630.5 57 630.5>
LayerCount: 2
Fore
SplineSet
-21 0 m 1
 -21 57 l 1
 87 79 117 152 142 305 c 1
 72 305 l 1
 72 351 l 1
 150 351 l 1
 172 568 272 682 421 682 c 0
 498 682 547 650 547 611 c 0
 547 576 520 556 467 547 c 1
 422 634 l 2
 421 634 420 634 418 634 c 0
 309 634 264 543 234 351 c 1
 418 351 l 1
 418 305 l 1
 225 305 l 1
 208 195 159 117 81 73 c 1
 82 71 l 1
 121 75 143 76 151 76 c 2
 448 76 l 1
 448 0 l 1
 -21 0 l 1
EndSplineSet
EndChar

StartChar: fraction
Encoding: 8260 8260 98
Width: 167
Flags: HMW
HStem: 0 671<-226 392 -226 392>
VStem: -226 618
LayerCount: 2
Fore
SplineSet
-226 0 m 1
 331 671 l 1
 392 671 l 1
 -165 0 l 1
 -226 0 l 1
EndSplineSet
EndChar

StartChar: yen
Encoding: 165 165 99
Width: 556
Flags: HMW
HStem: 0 40<86 341 86 86> 236 41<2 213 2 221 298 520> 380 41<31 170 31 187 31 170 411 548> 624 40<56 271 56 271>
VStem: 2 614<236 664 277 664>
LayerCount: 2
Fore
SplineSet
2 236 m 1
 2 277 l 1
 221 277 l 1
 187 380 l 1
 31 380 l 1
 31 421 l 1
 170 421 l 1
 108 614 l 1
 56 624 l 1
 56 664 l 1
 271 664 l 1
 271 624 l 1
 210 618 l 1
 199 607 l 1
 286 337 l 1
 487 599 l 1
 481 613 l 1
 433 624 l 1
 433 664 l 1
 616 664 l 1
 616 624 l 1
 556 612 l 1
 411 421 l 1
 548 421 l 1
 548 380 l 1
 375 380 l 1
 298 277 l 1
 520 277 l 1
 520 236 l 1
 293 236 l 1
 260 59 l 1
 274 45 l 1
 341 40 l 1
 341 0 l 1
 86 0 l 1
 86 40 l 1
 159 45 l 1
 180 59 l 1
 213 236 l 1
 2 236 l 1
EndSplineSet
EndChar

StartChar: florin
Encoding: 402 402 100
Width: 556
Flags: HMW
HStem: -169 60<-42.5 59> 319 49<106 216 106 225 306 464> 633 50<434 511>
VStem: -81 644
LayerCount: 2
Fore
SplineSet
-81 -123 m 0
 -81 -96 -64 -70 -32 -52 c 1
 59 -109 l 1
 127 -74 152 -7 173 100 c 2
 216 319 l 1
 106 319 l 1
 106 368 l 1
 225 368 l 1
 239 443 l 2
 254 521 278 573 337 622 c 0
 384 661 442 683 488 683 c 0
 534 683 563 660 563 633 c 0
 563 603 543 580 505 561 c 1
 434 633 l 1
 364 610 341 550 321 448 c 2
 306 368 l 1
 464 368 l 1
 464 319 l 1
 297 319 l 1
 269 151 243 29 181 -52 c 0
 124 -127 43 -169 -25 -169 c 0
 -60 -169 -81 -151 -81 -123 c 0
EndSplineSet
EndChar

StartChar: section
Encoding: 167 167 101
Width: 500
Flags: HMW
HStem: -140 44<146.5 197 146.5 207> 676 42<287 334.5>
VStem: 50 79<259.5 298> 355 79<295 330>
LayerCount: 2
Fore
SplineSet
4 -109 m 1
 26 20 l 1
 75 20 l 1
 72 -70 l 1
 102 -88 131 -96 162 -96 c 0
 232 -96 283 -49 283 0 c 0
 283 60 226 79 139 125 c 0
 80 156 50 200 50 260 c 0
 50 336 103 405 202 443 c 1
 148 473 123 503 123 550 c 0
 123 648 207 718 346 718 c 0
 390 718 432 710 475 695 c 1
 450 566 l 1
 406 566 l 1
 410 646 l 1
 378 666 349 676 320 676 c 0
 254 676 202 629 202 580 c 0
 202 527 251 514 328 472 c 0
 400 433 434 392 434 330 c 0
 434 260 376 182 278 144 c 1
 333 116 360 82 360 37 c 0
 360 -57 270 -140 144 -140 c 0
 98 -140 52 -130 4 -109 c 1
129 289 m 0
 129 230 166 202 246 162 c 1
 319 204 355 251 355 305 c 0
 355 355 317 393 240 424 c 1
 167 394 129 345 129 289 c 0
EndSplineSet
EndChar

StartChar: currency
Encoding: 164 164 102
Width: 606
Flags: HMW
HStem: 229 50<279 327> 586 50<279.5 326.5 279.5 346.5>
VStem: 100 51<409 455> 457 50<409 455 409 475>
LayerCount: 2
Fore
SplineSet
42 207 m 1
 143 307 l 1
 115 344 100 386 100 432 c 0
 100 478 115 520 143 557 c 1
 42 657 l 1
 77 693 l 1
 178 592 l 1
 216 621 256 636 303 636 c 0
 350 636 392 621 430 592 c 1
 530 693 l 1
 565 657 l 1
 465 557 l 1
 493 520 507 478 507 432 c 0
 507 386 493 344 465 307 c 1
 565 207 l 1
 530 171 l 1
 430 272 l 1
 393 243 351 229 303 229 c 0
 255 229 215 243 178 272 c 1
 77 171 l 1
 42 207 l 1
151 433 m 0
 151 348 219 279 304 279 c 0
 389 279 457 349 457 433 c 0
 457 517 389 586 304 586 c 0
 219 586 151 517 151 433 c 0
EndSplineSet
EndChar

StartChar: quotesingle
Encoding: 39 39 103
Width: 170
Flags: HMW
HStem: 422 292<77 93 77 77>
VStem: 44 83<662.5 680.5>
LayerCount: 2
Fore
SplineSet
44 664 m 0
 44 697 59 714 85 714 c 0
 111 714 127 697 127 665 c 0
 127 660 126 653 125 645 c 2
 93 422 l 1
 77 422 l 1
 45 645 l 2
 44 652 44 658 44 664 c 0
EndSplineSet
EndChar

StartChar: quotedblleft
Encoding: 8220 8220 104
Width: 403
Flags: HMW
HStem: 442 271<114.5 246 203 355.5>
VStem: 70 135<492.5 514.5 492.5 539> 272 135<492.5 514.5 492.5 539>
LayerCount: 2
Fore
SplineSet
272 509 m 0
 272 569 316 641 405 713 c 1
 448 713 l 1
 371 642 336 587 336 540 c 0
 336 539 336 537 336 536 c 1
 400 536 l 1
 405 527 407 519 407 510 c 0
 407 475 376 442 335 442 c 0
 296 442 272 467 272 509 c 0
EndSplineSet
Refer: 64 8216 S 1 0 0 1 0 0 2
EndChar

StartChar: guillemotleft
Encoding: 171 171 105
Width: 442
Flags: HW
HStem: 67 346<151 218 218 349>
VStem: 13 205 211 204
LayerCount: 2
Fore
SplineSet
211 200 m 1
 226 280 l 1
 415 413 l 1xa0
 403 347 l 1
 265 240 l 1
 361 132 l 1
 349 67 l 1
 211 200 l 1
EndSplineSet
Refer: 106 8249 S 1 0 0 1 0 0 2
EndChar

StartChar: guilsinglleft
Encoding: 8249 8249 106
Width: 245
Flags: HMW
HStem: 67 346<151 218>
VStem: 13 205
LayerCount: 2
Fore
SplineSet
13 200 m 1
 28 280 l 1
 218 413 l 1
 205 347 l 1
 67 240 l 1
 164 132 l 1
 151 67 l 1
 13 200 l 1
EndSplineSet
EndChar

StartChar: guilsinglright
Encoding: 8250 8250 107
Width: 245
Flags: HMW
HStem: 67 346<-6 60>
VStem: -6 205
LayerCount: 2
Fore
SplineSet
-6 67 m 1
 6 132 l 1
 144 240 l 1
 48 347 l 1
 60 413 l 1
 199 280 l 1
 184 200 l 1
 -6 67 l 1
EndSplineSet
EndChar

StartChar: fi
Encoding: 64257 64257 108
Width: 574
Flags: HW
HStem: -216 66<-113 -25> 409 46 596 108<478 507.5> 688 44<272 344>
VStem: -151 698
LayerCount: 2
Fore
SplineSet
-151 -163 m 0
 -151 -147 -143 -133 -129 -123 c 1
 -25 -150 l 1
 22 -101 39 -10 58 123 c 2
 100 410 l 1
 33 403 l 1
 34 436 l 1
 110 467 l 1
 143 639 227 732 320 732 c 0
 368 732 403 703 403 673 c 0
 403 647 385 627 354 621 c 1xd8
 272 688 l 1
 234 663 204 585 182 455 c 1
 348 455 l 1
 473 482 l 1
 499 482 l 1
 427 108 l 2
 425 97 424 89 424 83 c 0
 424 57 441 44 472 44 c 0
 491 44 515 49 546 59 c 1
 546 28 l 1
 491 5 443 -7 405 -7 c 0
 362 -7 341 15 341 59 c 0
 341 71 343 89 347 111 c 2
 406 409 l 1
 174 410 l 1
 134 126 l 2
 121 34 103 -41 59 -103 c 0
 6 -178 -49 -216 -97 -216 c 0
 -129 -216 -151 -195 -151 -163 c 0
439 650 m 0
 439 680 463 704 493 704 c 0x28
 522 704 547 679 547 650 c 0
 547 620 522 596 493 596 c 0
 463 596 439 619 439 650 c 0
EndSplineSet
EndChar

StartChar: fl
Encoding: 64258 64258 109
Width: 579
Flags: HMW
HStem: -216 66<-113 -25> -9 49<386.5 481.5> 409 46<182 322 182 322 174 322> 688 44<272 333.5>
VStem: -151 695<-179 56>
LayerCount: 2
Fore
SplineSet
-151 -163 m 0
 -151 -147 -143 -133 -129 -123 c 1
 -25 -150 l 1
 22 -101 39 -10 58 123 c 2
 100 410 l 1
 33 403 l 1
 34 436 l 1
 110 467 l 1
 143 639 227 732 320 732 c 0
 347 732 367 725 383 710 c 1
 515 736 l 1
 542 736 l 1
 535 699 531 677 530 671 c 2
 429 168 l 2
 421 128 418 101 418 87 c 0
 418 56 437 40 473 40 c 0
 490 40 514 46 544 56 c 1
 544 25 l 1
 487 1 442 -9 411 -9 c 0
 362 -9 339 15 339 65 c 0
 339 79 344 118 356 180 c 2
 452 670 l 1
 403 675 l 1
 354 621 l 1
 272 688 l 1
 234 663 204 585 182 455 c 1
 322 455 l 1
 322 409 l 1
 174 409 l 1
 134 126 l 2
 121 34 103 -41 59 -103 c 0
 6 -178 -49 -216 -97 -216 c 0
 -129 -216 -151 -195 -151 -163 c 0
EndSplineSet
EndChar

StartChar: endash
Encoding: 8211 8211 110
Width: 500
Flags: HMW
HStem: 210 61<-12 476 -24 487>
VStem: -24 511<210 271>
LayerCount: 2
Fore
SplineSet
-24 210 m 1
 -12 271 l 1
 487 271 l 1
 476 210 l 1
 -24 210 l 1
EndSplineSet
EndChar

StartChar: dagger
Encoding: 8224 8224 111
Width: 500
Flags: HMW
HStem: -129 20 460 42<275 281 281 281> 698 20<323 323>
LayerCount: 2
Fore
SplineSet
46 483 m 1
 125 528 l 1
 261 488 l 1
 258 472 l 1
 107 437 l 1
 46 483 l 1
154 -129 m 1
 194 294 l 1
 267 460 l 1
 281 460 l 1
 291 294 l 1
 168 -129 l 1
 154 -129 l 1
263 642 m 1
 323 718 l 1
 353 642 l 1
 289 502 l 1
 275 502 l 1
 263 642 l 1
295 472 m 1
 298 488 l 1
 447 528 l 1
 511 483 l 1
 429 437 l 1
 295 472 l 1
EndSplineSet
EndChar

StartChar: daggerdbl
Encoding: 8225 8225 112
Width: 500
Flags: HW
HStem: -132 20 84 43<203 209 209 209> 460 42<275 281 281 281> 698 20<323 323>
LayerCount: 2
Fore
SplineSet
-27 106 m 1
 53 151 l 1
 189 111 l 1
 186 95 l 1
 35 60 l 1
 -27 106 l 1
46 483 m 1
 125 528 l 1
 261 488 l 1
 258 472 l 1
 107 437 l 1
 46 483 l 1
129 -56 m 1
 195 84 l 1xf0
 209 84 l 1
 219 -56 l 1
 159 -132 l 1
 129 -56 l 1
184 294 m 1
 267 460 l 1
 281 460 l 1
 297 294 l 1
 217 127 l 1
 203 127 l 1
 184 294 l 1
222 95 m 1
 225 111 l 1
 374 151 l 1
 439 106 l 1
 357 60 l 1
 222 95 l 1
263 642 m 1
 323 718 l 1
 353 642 l 1
 289 502 l 1
 275 502 l 1
 263 642 l 1
295 472 m 1
 298 488 l 1
 447 528 l 1xf0
 511 483 l 1
 429 437 l 1
 295 472 l 1
EndSplineSet
EndChar

StartChar: paragraph
Encoding: 182 182 114
Width: 484
Flags: HMW
HStem: -79 20 630 41<271 347 271 271>
VStem: 26 245<409 544> 347 49<-79 625 -79 630 -79 630>
LayerCount: 2
Fore
SplineSet
26 474 m 0
 26 614 101 671 262 671 c 2
 458 671 l 1
 458 635 l 1
 396 625 l 1
 396 -79 l 1
 347 -79 l 1
 347 630 l 1
 271 630 l 1
 271 281 l 1
 265 281 259 281 253 281 c 0
 100 281 26 344 26 474 c 0
EndSplineSet
EndChar

StartChar: bullet
Encoding: 8226 8226 115
Width: 590
Flags: MW
HStem: 227 289<255 334>
VStem: 150 289<332.5 412 332.5 412>
LayerCount: 2
Fore
SplineSet
150 372 m 0
 150 452 215 516 295 516 c 0
 374 516 439 452 439 372 c 0
 439 293 374 227 294 227 c 0
 214 227 150 292 150 372 c 0
EndSplineSet
EndChar

StartChar: quotesinglbase
Encoding: 8218 8218 116
Width: 201
Flags: HMW
HStem: -164 270<-65 66.5 -65 66.5>
VStem: -24 135<34.5 56.5>
LayerCount: 2
Fore
SplineSet
-65 -164 m 1
 9 -96 47 -41 47 12 c 1
 -17 12 l 1
 -22 21 -24 30 -24 39 c 0
 -24 74 7 106 47 106 c 0
 86 106 111 81 111 41 c 0
 111 -21 67 -92 -22 -164 c 1
 -65 -164 l 1
EndSplineSet
EndChar

StartChar: quotedblbase
Encoding: 8222 8222 117
Width: 403
Flags: HMW
HStem: -164 270<-65 66.5 -65 66.5 27 137 27 180>
VStem: -24 135<34.5 56.5> 177 135<34.5 56.5>
LayerCount: 2
Fore
SplineSet
137 -164 m 1
 211 -96 249 -41 249 12 c 1
 184 12 l 1
 179 21 177 30 177 39 c 0
 177 74 209 106 249 106 c 0
 288 106 312 81 312 41 c 0
 312 -21 269 -92 180 -164 c 1
 137 -164 l 1
EndSplineSet
Refer: 116 8218 S 1 0 0 1 0 0 2
EndChar

StartChar: quotedblright
Encoding: 8221 8221 118
Width: 403
Flags: HMW
HStem: 442 271<51 182.5 51 182.5 143 253 143 296>
VStem: 92 135<640.5 662.5> 293 135<640.5 662.5>
LayerCount: 2
Fore
SplineSet
253 442 m 1
 331 513 365 568 365 615 c 0
 365 616 365 618 365 619 c 1
 300 619 l 1
 295 628 293 636 293 645 c 0
 293 680 325 713 365 713 c 0
 404 713 428 687 428 647 c 0
 428 585 385 514 296 442 c 1
 253 442 l 1
EndSplineSet
Refer: 7 8217 S 1 0 0 1 0 0 2
EndChar

StartChar: guillemotright
Encoding: 187 187 119
Width: 442
Flags: HW
HStem: 67 346<-6 60 60 191>
VStem: -6 205 191 205
LayerCount: 2
Fore
SplineSet
191 67 m 1
 204 132 l 1
 342 240 l 1
 245 347 l 1
 258 413 l 1xa0
 396 280 l 1
 381 200 l 1
 191 67 l 1
EndSplineSet
Refer: 107 8250 S 1 0 0 1 0 0 2
EndChar

StartChar: perthousand
Encoding: 8240 8240 121
Width: 1225
Flags: HW
HStem: -12 36<591.5 627 591.5 633.5 963.5 999> 264 36<154.5 190 154.5 196.5> 372 35<659.5 694.5 1031.5 1066.5> 647 36<222.5 257.5>
VStem: 50 68<359.5 420 358 437.5> 294 71<525.5 586 508.5 587.5> 487 68<84.5 145 83 162.5> 731 71<250.5 311 233.5 312.5> 859 69<83.5 145 83 161.5> 1104 70<250.5 311 233.5 312.5>
LayerCount: 2
Fore
SplineSet
859 128 m 0
 859 195 879 265 910 316 c 0
 947 376 998 407 1056 407 c 0
 1129 407 1174 355 1174 267 c 0
 1174 200 1155 132 1123 80 c 0
 1086 20 1035 -12 976 -12 c 0
 903 -12 859 39 859 128 c 0
928 113 m 0
 928 53 944 24 983 24 c 0
 1015 24 1043 49 1065 97 c 0
 1088 147 1104 218 1104 283 c 0
 1104 342 1085 372 1048 372 c 0
 1015 372 989 348 967 299 c 0
 943 246 928 177 928 113 c 0
EndSplineSet
Refer: 5 37 S 1 0 0 1 0 0 2
EndChar

StartChar: questiondown
Encoding: 191 191 122
Width: 486
Flags: HMW
HStem: -9 46<238 241 238 254.5> 569 114<306.5 337 306.5 337.5>
VStem: 28 92<107.5 187.5> 265 114<610.5 641.5 610.5 642>
LayerCount: 2
Fore
SplineSet
28 134 m 0
 28 241 105 327 256 386 c 1
 278 503 l 1
 330 503 l 1
 302 357 l 1
 182 315 120 238 120 142 c 0
 120 73 161 37 238 37 c 0
 239 37 240 37 241 37 c 2
 301 136 l 1
 308 137 314 137 319 137 c 0
 353 137 370 123 370 98 c 0
 370 41 304 -9 205 -9 c 0
 93 -9 28 46 28 134 c 0
265 626 m 0
 265 658 291 683 322 683 c 0
 352 683 379 657 379 626 c 0
 379 595 353 569 322 569 c 0
 290 569 265 594 265 626 c 0
EndSplineSet
EndChar

StartChar: grave
Encoding: 96 96 123
Width: 500
Flags: MW
HStem: 546 190<181 340 181 290>
VStem: 181 159
LayerCount: 2
Fore
SplineSet
181 736 m 1
 280 736 l 1
 340 546 l 1
 290 546 l 1
 181 736 l 1
EndSplineSet
EndChar

StartChar: acute
Encoding: 180 180 124
Width: 500
Flags: HMW
HStem: 546 190<253 485 253 485>
VStem: 253 232<546 736>
LayerCount: 2
Fore
SplineSet
253 546 m 1
 386 736 l 1
 485 736 l 1
 302 546 l 1
 253 546 l 1
EndSplineSet
EndChar

StartChar: circumflex
Encoding: 710 710 125
Width: 500
Flags: HMW
HStem: 546 190<148 359 148 359 294 433 294 378>
VStem: 148 285<546 546>
LayerCount: 2
Fore
SplineSet
148 546 m 1
 294 736 l 1
 359 736 l 1
 433 546 l 1
 378 546 l 1
 317 687 l 1
 203 546 l 1
 148 546 l 1
EndSplineSet
EndChar

StartChar: tilde
Encoding: 732 732 126
Width: 500
Flags: HW
HStem: 588 53<364 393.5> 638 55<222 247>
VStem: 143 331<573 708>
LayerCount: 2
Fore
SplineSet
143 573 m 1
 155 652 193 693 251 693 c 0x60
 304 693 347 641 381 641 c 0
 408 641 425 663 432 708 c 1xa0
 474 708 l 1
 465 633 419 588 368 588 c 0xa0
 309 588 261 638 233 638 c 0
 210 638 189 614 186 573 c 1
 143 573 l 1
EndSplineSet
EndChar

StartChar: macron
Encoding: 175 175 127
Width: 500
Flags: HMW
HStem: 615 51<164 456 155 465>
VStem: 155 310<615 666>
LayerCount: 2
Fore
SplineSet
155 615 m 1
 164 666 l 1
 465 666 l 1
 456 615 l 1
 155 615 l 1
EndSplineSet
EndChar

StartChar: breve
Encoding: 728 728 128
Width: 500
Flags: HMW
HStem: 567 63<273.5 339.5 273.5 345>
VStem: 180 39<671 709> 424 39<709 709>
LayerCount: 2
Fore
SplineSet
177 671 m 0
 177 683 178 695 180 709 c 1
 220 709 l 1
 219 703 219 698 219 693 c 0
 219 649 244 630 303 630 c 0
 376 630 409 646 424 709 c 1
 463 709 l 1
 444 611 394 567 296 567 c 0
 215 567 177 600 177 671 c 0
EndSplineSet
EndChar

StartChar: dotaccent
Encoding: 729 729 129
Width: 500
Flags: HMW
HStem: 585 112<289 318.5>
VStem: 249 112<625.5 656.5>
LayerCount: 2
Fore
SplineSet
249 641 m 0
 249 672 273 697 303 697 c 0
 335 697 361 672 361 641 c 0
 361 610 334 585 303 585 c 0
 275 585 249 610 249 641 c 0
EndSplineSet
EndChar

StartChar: dieresis
Encoding: 168 168 130
Width: 500
Flags: HMW
HStem: 590 102<200 227 387 414>
VStem: 163 102<627 655 627 655.5> 349 102<627 655 627 655.5>
LayerCount: 2
Fore
SplineSet
163 641 m 0
 163 670 186 692 213 692 c 0
 242 692 265 669 265 641 c 0
 265 613 241 590 213 590 c 0
 187 590 163 613 163 641 c 0
349 641 m 0
 349 670 373 692 400 692 c 0
 429 692 451 669 451 641 c 0
 451 613 428 590 400 590 c 0
 374 590 349 613 349 641 c 0
EndSplineSet
EndChar

StartChar: ring
Encoding: 730 730 131
Width: 500
Flags: HMW
HStem: 558 41<299.5 336.5 299.5 348.5> 732 41<299.5 336.5>
VStem: 210 42<646.5 684 646.5 696> 385 41<647 683.5>
LayerCount: 2
Fore
SplineSet
210 666 m 0
 210 726 258 773 318 773 c 0
 378 773 426 726 426 666 c 0
 426 606 379 558 318 558 c 0
 258 558 210 606 210 666 c 0
252 665 m 0
 252 628 281 599 318 599 c 0
 355 599 385 629 385 665 c 0
 385 702 355 732 318 732 c 0
 281 732 252 703 252 665 c 0
EndSplineSet
EndChar

StartChar: cedilla
Encoding: 184 184 132
Width: 500
Flags: HMW
HStem: -223 38<118.5 149.5 115.5 170.5> -105 45<155 223.5> -20 20<158 194 194 194>
VStem: 201 65<-145.5 -124.5>
LayerCount: 2
Fore
SplineSet
61 -213 m 1
 68 -177 l 1
 86 -182 105 -185 126 -185 c 0
 173 -185 201 -164 201 -133 c 0
 201 -116 185 -105 158 -105 c 0
 152 -105 145 -106 137 -107 c 1
 158 0 l 1
 194 0 l 1
 182 -61 l 1
 191 -60 199 -60 203 -60 c 0
 244 -60 266 -80 266 -116 c 0
 266 -175 212 -223 129 -223 c 0
 108 -223 85 -220 61 -213 c 1
EndSplineSet
EndChar

StartChar: hungarumlaut
Encoding: 733 733 133
Width: 500
Flags: HW
HStem: 546 190<175 403 175 403 281 403 311 328>
VStem: 175 228<546 736> 281 288<546 736>
LayerCount: 2
Fore
SplineSet
175 546 m 1
 311 736 l 1xc0
 403 736 l 1
 218 546 l 1
 175 546 l 1
281 546 m 1
 462 736 l 1xa0
 569 736 l 1
 328 546 l 1
 281 546 l 1
EndSplineSet
EndChar

StartChar: ogonek
Encoding: 731 731 134
Width: 500
Flags: HMW
HStem: -216 53<146 204.5> -20 20<186 229 229 229>
VStem: 91 63<-134.5 -128.5>
LayerCount: 2
Fore
SplineSet
91 -154 m 0
 91 -103 124 -42 186 0 c 1
 229 0 l 1
 179 -37 154 -84 154 -122 c 0
 154 -147 171 -163 201 -163 c 0
 208 -163 219 -161 235 -159 c 1
 225 -209 l 1
 207 -214 190 -216 173 -216 c 0
 119 -216 91 -193 91 -154 c 0
EndSplineSet
EndChar

StartChar: caron
Encoding: 711 711 135
Width: 500
Flags: MW
HStem: 546 190<184 323 184 258>
VStem: 184 285<736 736>
LayerCount: 2
Fore
SplineSet
184 736 m 1
 240 736 l 1
 300 595 l 1
 415 736 l 1
 469 736 l 1
 323 546 l 1
 258 546 l 1
 184 736 l 1
EndSplineSet
EndChar

StartChar: emdash
Encoding: 8212 8212 136
Width: 1000
Flags: HMW
HStem: 210 61<-7 979 -19 991>
VStem: -19 1010<210 271>
LayerCount: 2
Fore
SplineSet
-19 210 m 1
 -7 271 l 1
 991 271 l 1
 979 210 l 1
 -19 210 l 1
EndSplineSet
EndChar

StartChar: AE
Encoding: 198 198 137
Width: 873
Flags: HMW
HStem: 0 46<465 720 465 786> 256 47<218 421 180 430> 325 47<528 672 519 680> 625 46<396 396 577 792 577 577>
VStem: -115 994<0 671 38 671>
LayerCount: 2
Fore
SplineSet
-115 0 m 1
 -115 38 l 1
 -54 51 l 1
 402 610 l 1
 396 625 l 1
 338 631 l 1
 338 671 l 1
 879 671 l 1
 850 525 l 1
 803 525 l 1
 803 610 l 1
 792 625 l 1
 577 625 l 1
 528 372 l 1
 680 372 l 1
 697 386 l 1
 720 459 l 1
 763 459 l 1
 720 239 l 1
 679 239 l 1
 683 311 l 1
 672 325 l 1
 519 325 l 1
 465 46 l 1
 720 46 l 1
 737 62 l 1
 772 163 l 1
 818 163 l 1
 786 0 l 1
 303 0 l 1
 303 38 l 1
 366 44 l 1
 382 58 l 1
 421 256 l 1
 180 256 l 1
 21 61 l 1
 23 47 l 1
 87 38 l 1
 87 0 l 1
 -115 0 l 1
218 303 m 1
 430 303 l 1
 494 641 l 1
 218 303 l 1
EndSplineSet
EndChar

StartChar: ordfeminine
Encoding: 170 170 138
Width: 394
Flags: HMW
HStem: 326 42<118.5 134> 642 27<188 229 227 235.5 188 238>
VStem: 13 62<424 471.5>
LayerCount: 2
Fore
SplineSet
13 448 m 0
 13 495 26 538 52 578 c 0
 90 636 151 669 225 669 c 0
 246 669 269 664 293 654 c 1
 308 669 l 1
 347 669 l 1
 339 655 329 621 318 569 c 2
 291 445 l 2
 286 422 284 406 284 396 c 0
 284 374 296 364 324 364 c 0
 332 364 346 367 366 371 c 1
 366 350 l 1
 325 334 294 326 274 326 c 0
 242 326 228 343 228 379 c 0
 228 381 228 382 228 384 c 1
 188 345 152 326 116 326 c 0
 53 326 13 371 13 448 c 0
75 452 m 0
 75 396 97 368 140 368 c 0
 169 368 198 384 229 415 c 1
 268 599 l 1
 238 642 l 1
 234 642 231 642 227 642 c 0
 140 642 75 564 75 452 c 0
EndSplineSet
EndChar

StartChar: Lslash
Encoding: 321 321 139
Width: 498
Flags: HMW
HStem: 0 46<136 348 136 418> 633 38<84 327 84 327>
VStem: -28 481<0 182 38 182>
LayerCount: 2
Fore
SplineSet
-28 0 m 1
 -28 38 l 1
 36 43 l 1
 52 58 l 1
 97 295 l 1
 27 256 l 1
 6 298 l 1
 109 355 l 1
 159 613 l 1
 149 628 l 1
 84 633 l 1
 84 671 l 1
 327 671 l 1
 327 633 l 1
 262 628 l 1
 246 613 l 1
 206 409 l 1
 307 464 l 1
 330 423 l 1
 196 352 l 1
 136 46 l 1
 348 46 l 1
 366 62 l 1
 405 182 l 1
 453 182 l 1
 418 0 l 1
 -28 0 l 1
EndSplineSet
EndChar

StartChar: Oslash
Encoding: 216 216 140
Width: 708
Flags: HMW
HStem: -12 45<292 349.5 292 358> 636 46<360.5 416.5>
VStem: 42 89<229.5 304.5 229.5 314> 577 92<365.5 449>
LayerCount: 2
Fore
SplineSet
42 263 m 0
 42 365 74 461 135 541 c 0
 204 631 303 682 409 682 c 0
 452 682 490 674 524 657 c 1
 579 743 l 1
 616 720 l 1
 561 636 l 1
 632 582 669 507 669 420 c 0
 669 308 636 206 577 129 c 0
 508 39 410 -12 306 -12 c 0
 256 -12 208 0 162 25 c 1
 98 -74 l 1
 66 -50 l 1
 130 49 l 1
 73 96 42 169 42 263 c 0
131 257 m 0
 131 202 143 154 168 110 c 1
 493 610 l 1
 465 627 434 636 399 636 c 0
 322 636 262 600 210 524 c 0
 161 453 131 352 131 257 c 0
198 79 m 1
 232 48 270 33 314 33 c 0
 385 33 447 71 498 146 c 0
 546 217 577 317 577 414 c 0
 577 484 560 540 525 582 c 1
 198 79 l 1
EndSplineSet
EndChar

StartChar: OE
Encoding: 338 338 141
Width: 1007
Flags: HW
HStem: -12 48<258.5 344.5 258.5 344.5> 0 46<590 845 590 911> 325 47<653 797 644 805> 625 46<702 917 702 702> 636 46<371 450>
VStem: 41 96<185.5 302.5 185.5 328>
LayerCount: 2
Fore
SplineSet
41 259 m 0
 41 397 98 522 195 603 c 0
 257 654 331 682 411 682 c 0
 506 682 568 642 606 556 c 1
 626 671 l 1
 1004 671 l 1
 975 525 l 1
 927 525 l 1
 927 610 l 1
 917 625 l 1
 702 625 l 1
 653 372 l 1
 805 372 l 1
 822 386 l 1
 845 459 l 1
 888 459 l 1
 845 239 l 1
 804 239 l 1
 808 311 l 1
 797 325 l 1
 644 325 l 1
 590 46 l 1
 845 46 l 1
 862 62 l 1
 897 163 l 1
 943 163 l 1
 911 0 l 1
 499 0 l 1x70
 514 85 l 1
 453 20 385 -12 304 -12 c 0
 150 -12 41 100 41 259 c 0
137 253 m 0
 137 118 207 36 310 36 c 0
 379 36 441 74 492 149 c 0
 540 220 571 320 571 419 c 0x8c
 571 555 502 636 398 636 c 0
 330 636 267 598 216 523 c 0
 167 452 137 352 137 253 c 0
EndSplineSet
EndChar

StartChar: ordmasculine
Encoding: 186 186 142
Width: 377
Flags: HMW
HStem: 326 28<130.5 170> 643 27<183.5 222.5>
VStem: 17 63<424.5 487> 273 64<505.5 571.5>
LayerCount: 2
Fore
SplineSet
17 459 m 0
 17 515 39 572 77 612 c 0
 113 650 158 670 209 670 c 0
 287 670 337 618 337 533 c 0
 337 478 315 424 276 382 c 0
 241 345 196 326 144 326 c 0
 67 326 17 377 17 459 c 0
80 458 m 0
 80 391 108 354 153 354 c 0
 217 354 273 431 273 537 c 0
 273 606 245 643 200 643 c 0
 135 643 80 566 80 458 c 0
EndSplineSet
EndChar

StartChar: ae
Encoding: 230 230 143
Width: 671
Flags: HMW
HStem: -8 60<71.5 177.5> 231 37 439 43<228.5 260.5 500.5 518.5>
VStem: 2 90<95.5 142.5> 275 77<160 182> 556 72<354.5 401.5>
LayerCount: 2
Fore
SplineSet
2 93 m 0
 2 192 97 249 288 268 c 1
 300 329 l 2
 304 348 306 364 306 377 c 0
 306 417 282 439 239 439 c 0
 218 439 196 433 172 423 c 1
 156 341 l 1
 58 341 l 1
 58 422 146 482 268 482 c 0
 327 482 362 461 376 415 c 1
 430 459 476 482 525 482 c 0
 588 482 628 443 628 383 c 0
 628 298 533 234 355 222 c 1
 353 208 352 192 352 176 c 0
 352 95 392 46 456 46 c 0
 502 46 558 74 616 128 c 1
 616 81 l 1
 554 21 488 -8 422 -8 c 0
 362 -8 320 16 291 68 c 1
 221 18 158 -8 103 -8 c 0
 40 -8 2 33 2 93 c 0
92 116 m 0
 92 75 115 52 159 52 c 0
 196 52 237 68 282 100 c 1
 278 124 275 148 275 172 c 0
 275 192 277 211 280 231 c 1
 153 215 92 181 92 116 c 0
360 256 m 1
 485 263 556 323 556 386 c 0
 556 417 533 439 504 439 c 0
 446 439 389 377 360 256 c 1
EndSplineSet
EndChar

StartChar: dotlessi
Encoding: 305 305 144
Width: 287
Flags: MW
HStem: -7 51<91.5 189.5> 424 26<33 33> 462 20<181 207 207 207>
VStem: 49 83<37 86>
DStem2: 55 111 135 108 0.189042 0.981969<-12.6611 303.78>
LayerCount: 2
Fore
SplineSet
33 424 m 1
 33 450 l 1
 181 482 l 1
 207 482 l 1
 135 108 l 2
 133 97 132 89 132 83 c 0
 132 57 149 44 180 44 c 0
 199 44 223 49 254 59 c 1
 254 28 l 1
 199 5 151 -7 113 -7 c 0
 70 -7 49 15 49 59 c 0
 49 71 51 89 55 111 c 2
 114 409 l 1
 33 424 l 1
EndSplineSet
EndChar

StartChar: lslash
Encoding: 322 322 145
Width: 275
Flags: HMW
HStem: -9 49<83.5 178.5> 680 26<60 60> 716 20<212 239 239 239>
VStem: 35 80<71.5 72>
LayerCount: 2
Fore
SplineSet
-14 323 m 1
 89 376 l 1
 149 670 l 1
 60 680 l 1
 60 706 l 1
 212 736 l 1
 239 736 l 1
 232 699 228 677 227 671 c 2
 178 422 l 1
 273 471 l 1
 292 436 l 1
 167 371 l 1
 126 168 l 2
 118 129 115 101 115 87 c 0
 115 56 134 40 170 40 c 0
 187 40 211 46 241 56 c 1
 241 25 l 1
 184 1 139 -9 108 -9 c 0
 59 -9 35 15 35 65 c 0
 35 79 41 117 53 180 c 2
 82 329 l 1
 3 286 l 1
 -14 323 l 1
EndSplineSet
EndChar

StartChar: oslash
Encoding: 248 248 146
Width: 502
Flags: HMW
HStem: -9 41<192 226.5> 444 39<244.5 281.5>
VStem: 22 80<164 221.5> 371 78<248 311>
LayerCount: 2
Fore
SplineSet
22 181 m 0
 22 262 52 343 102 400 c 0
 150 454 210 483 279 483 c 0
 312 483 340 476 362 463 c 1
 414 547 l 1
 442 529 l 1
 388 445 l 1
 427 410 449 357 449 287 c 0
 449 209 420 132 368 72 c 0
 321 19 261 -9 192 -9 c 0
 169 -9 143 -4 116 7 c 1
 60 -80 l 1
 35 -63 l 1
 88 24 l 1
 44 62 22 113 22 181 c 0
102 182 m 0
 102 146 108 113 122 81 c 1
 334 416 l 1
 316 435 295 444 268 444 c 0
 179 444 102 331 102 182 c 0
143 55 m 1
 159 39 180 32 204 32 c 0
 294 32 371 142 371 291 c 0
 371 331 365 363 353 386 c 1
 143 55 l 1
EndSplineSet
EndChar

StartChar: oe
Encoding: 339 339 147
Width: 750
Flags: HMW
HStem: -9 41<174 226> 222 34 444 39<244.5 292.5>
VStem: 22 86<130.5 221.5> 632 72<354.5 401.5>
LayerCount: 2
Fore
SplineSet
22 181 m 0
 22 262 52 343 102 400 c 0
 150 454 210 483 279 483 c 0
 348 483 400 451 429 390 c 1
 484 451 548 483 602 483 c 0
 665 483 704 443 704 383 c 0
 704 298 609 234 431 222 c 1
 429 208 428 192 428 176 c 0
 428 95 469 46 533 46 c 0
 579 46 634 74 692 128 c 1
 692 81 l 1
 630 21 564 -9 499 -9 c 0
 436 -9 391 18 366 71 c 1
 317 18 260 -9 192 -9 c 0
 89 -9 22 65 22 181 c 0
108 178 m 0
 108 83 145 32 203 32 c 0
 287 32 359 141 359 293 c 0
 359 391 322 444 263 444 c 0
 179 444 108 335 108 178 c 0
437 256 m 1
 562 263 632 323 632 386 c 0
 632 417 610 440 581 440 c 0
 523 440 466 377 437 256 c 1
EndSplineSet
EndChar

StartChar: germandbls
Encoding: 223 223 148
Width: 574
Flags: HMW
HStem: -216 66<-113 -25> -9 36<326.5 370.5 326.5 380.5> 694 44<317.5 397>
VStem: 270 64<351.5 369.5> 434 75<101.5 131>
LayerCount: 2
Fore
SplineSet
-151 -163 m 0
 -151 -147 -143 -133 -129 -123 c 1
 -25 -150 l 1
 22 -101 39 -10 58 123 c 2
 100 410 l 2
 132 628 224 738 374 738 c 0
 468 738 522 688 522 607 c 0
 522 573 512 516 490 437 c 1
 472 439 458 440 447 440 c 0
 374 440 334 411 334 368 c 0
 334 335 362 313 409 277 c 0
 469 231 509 205 509 145 c 0
 509 58 435 -9 326 -9 c 0
 242 -9 194 27 194 79 c 0
 194 110 215 130 246 130 c 0
 260 130 273 124 289 112 c 1
 271 62 l 1
 287 39 311 27 342 27 c 0
 399 27 434 59 434 112 c 0
 434 150 407 173 365 205 c 0
 308 248 270 275 270 331 c 0
 270 408 333 473 432 481 c 1
 447 532 455 575 455 610 c 0
 455 664 425 694 369 694 c 0
 266 694 205 606 179 431 c 2
 134 126 l 2
 121 36 105 -39 59 -103 c 0
 6 -178 -49 -216 -97 -216 c 0
 -129 -216 -151 -195 -151 -163 c 0
EndSplineSet
EndChar

StartChar: Aring
Encoding: 197 197 153
Width: 606
Flags: HMW
HStem: 0 38<-79 119 -79 -79> 248 43<182 391 182 400 157 391> 657 20<345 411 411 411> 741 45<373.5 415 373.5 427.5> 934 46<373.5 415>
VStem: -79 353 319 150<839.5 881> 513 71
LayerCount: 2
Fore
SplineSet
274 860 m 0
 274 927 327 980 393 980 c 0
 460 980 513 927 513 860 c 0
 513 793 461 741 394 741 c 0
 327 741 274 793 274 860 c 0
319 860 m 0
 319 819 353 786 394 786 c 0
 436 786 469 819 469 860 c 0
 469 902 436 934 394 934 c 0
 353 934 319 902 319 860 c 0
EndSplineSet
Refer: 33 65 S 1 0 0 1 0 0 2
EndChar

StartChar: aring
Encoding: 229 229 181
Width: 525
Flags: HMW
HStem: -9 61<158 179> 443 39<250.5 305.5 303 314 250.5 317> 546 41<299.5 336.5 299.5 348.5> 720 41<299.5 336.5>
VStem: 17 83<132 199.5> 210 41<634.5 672 634.5 683> 385 41<635 671.5>
LayerCount: 2
Fore
SplineSet
210 653 m 0
 210 713 258 761 318 761 c 0
 378 761 426 713 426 653 c 0
 426 593 379 546 318 546 c 0
 258 546 210 593 210 653 c 0
251 653 m 0
 251 616 281 587 318 587 c 0
 355 587 385 617 385 653 c 0
 385 690 355 720 318 720 c 0
 281 720 251 691 251 653 c 0
EndSplineSet
Refer: 65 97 S 1 0 0 1 0 0 2
EndChar

StartChar: trademark
Encoding: 8482 8482 205
Width: 822
Flags: HMW
HStem: 399 22<172 294 172 172> 639 23<159 211 159 159 256 308 256 256>
VStem: 211 45<425 639 425 639> 409 28<425 634 634 634> 639 45<425 634 425 637 425 637>
LayerCount: 2
Fore
SplineSet
118 593 m 1
 118 662 l 1
 347 662 l 1
 347 593 l 1
 321 593 l 1
 315 633 l 1
 308 639 l 1
 256 639 l 1
 256 425 l 1
 294 421 l 1
 294 399 l 1
 172 399 l 1
 172 421 l 1
 211 425 l 1
 211 639 l 1
 159 639 l 1
 151 633 l 1
 145 593 l 1
 118 593 l 1
377 639 m 1
 377 662 l 1
 479 662 l 1
 479 650 l 1
 547 470 l 1
 616 649 l 1
 616 662 l 1
 716 662 l 1
 716 639 l 1
 684 634 l 1
 684 425 l 1
 716 421 l 1
 716 399 l 1
 609 399 l 1
 609 421 l 1
 639 425 l 1
 639 637 l 1
 547 399 l 1
 525 399 l 1
 437 637 l 1
 437 425 l 1
 468 421 l 1
 468 399 l 1
 378 399 l 1
 378 421 l 1
 409 425 l 1
 409 634 l 1
 377 639 l 1
EndSplineSet
EndChar

StartChar: copyright
Encoding: 169 169 206
Width: 900
Flags: HMW
HStem: -46 42<406 498 406 500> 102 46<423 480 423 487.5> 528 46<425.5 487> 685 41<407.5 497>
VStem: 67 44<293 386 293 391> 221 87<284 394 284 408> 793 44<295 386>
LayerCount: 2
Fore
SplineSet
67 340 m 0
 67 442 106 537 179 611 c 0
 251 684 350 726 453 726 c 0
 554 726 655 683 727 610 c 0
 797 539 837 440 837 336 c 0
 837 237 795 138 719 63 c 0
 647 -8 553 -46 447 -46 c 0
 349 -46 253 -6 180 67 c 0
 106 141 67 236 67 340 c 0
111 340 m 0
 111 246 145 163 211 97 c 0
 278 31 360 -4 452 -4 c 0
 544 -4 628 31 692 97 c 0
 757 164 793 250 793 340 c 0
 793 432 756 521 693 584 c 0
 629 648 541 685 453 685 c 0
 362 685 275 648 211 583 c 0
 146 516 111 432 111 340 c 0
221 338 m 0
 221 478 319 574 468 574 c 0
 510 574 558 567 609 551 c 1
 609 431 l 1
 566 431 l 1
 551 506 l 1
 526 521 501 528 473 528 c 0
 378 528 308 449 308 339 c 0
 308 229 378 148 468 148 c 0
 492 148 520 156 553 168 c 1
 566 252 l 1
 609 252 l 1
 609 127 l 1
 563 111 513 102 462 102 c 0
 320 102 221 199 221 338 c 0
EndSplineSet
EndChar

StartChar: logicalnot
Encoding: 172 172 207
Width: 833
Flags: HMW
HStem: 362 57<124 653 124 709>
VStem: 653 56<174 362 362 362>
LayerCount: 2
Fore
SplineSet
124 362 m 1
 124 419 l 1
 709 419 l 1
 709 174 l 1
 653 174 l 1
 653 362 l 1
 124 362 l 1
EndSplineSet
EndChar

StartChar: registered
Encoding: 174 174 208
Width: 900
Flags: HMW
HStem: -46 42<406 498 406 500> 121 37<259 450> 316 38<411.5 443> 524 36<409 454.5> 685 41<407.5 497>
VStem: 67 44<293 386 293 391> 312 75<165 315 165 355 355 516 516 516> 540 87<423.5 464.5> 793 44<295 386>
LayerCount: 2
Fore
SplineSet
67 340 m 0
 67 442 106 537 179 611 c 0
 251 684 350 726 453 726 c 0
 554 726 655 683 727 610 c 0
 797 539 837 440 837 336 c 0
 837 237 795 138 719 63 c 0
 647 -8 553 -46 447 -46 c 0
 349 -46 253 -6 180 67 c 0
 106 141 67 236 67 340 c 0
111 340 m 0
 111 246 145 163 211 97 c 0
 278 31 360 -4 452 -4 c 0
 544 -4 628 31 692 97 c 0
 757 164 793 250 793 340 c 0
 793 432 756 521 693 584 c 0
 629 648 541 685 453 685 c 0
 362 685 275 648 211 583 c 0
 146 516 111 432 111 340 c 0
254 526 m 1
 254 560 l 1
 465 560 l 2
 573 560 627 526 627 451 c 0
 627 396 585 355 506 338 c 1
 537 333 560 321 578 299 c 0
 601 271 604 239 614 215 c 0
 631 172 653 160 711 160 c 1
 711 124 l 1
 685 119 664 116 649 116 c 0
 618 116 593 125 570 145 c 0
 538 172 533 218 515 259 c 0
 495 304 470 316 416 316 c 0
 407 316 398 316 387 315 c 1
 387 165 l 1
 450 158 l 1
 450 121 l 1
 259 121 l 1
 259 157 l 1
 312 164 l 1
 312 516 l 1
 254 526 l 1
387 355 m 1
 396 354 404 354 412 354 c 0
 496 354 540 383 540 437 c 0
 540 492 496 524 413 524 c 0
 405 524 396 523 387 522 c 1
 387 355 l 1
EndSplineSet
EndChar

StartChar: minus
Encoding: 8722 8722 209
Width: 833
Flags: HMW
HStem: 269 58<124 709 124 709>
VStem: 124 585<269 327 269 327>
LayerCount: 2
Fore
SplineSet
124 269 m 1
 124 327 l 1
 709 327 l 1
 709 269 l 1
 124 269 l 1
EndSplineSet
EndChar

StartChar: Eth
Encoding: 208 208 210
Width: 671
Flags: HMW
HStem: 0 47<140 183> 331 46<24 105 19 114 202 343> 625 46<249 249 249 304>
VStem: 526 97<374 493.5>
LayerCount: 2
Fore
SplineSet
-28 0 m 1
 -28 38 l 1
 36 44 l 1
 52 58 l 1
 105 331 l 1
 19 331 l 1
 24 377 l 1
 114 377 l 1
 159 613 l 1
 149 628 l 1
 85 633 l 1
 85 671 l 1
 312 671 l 2
 517 671 623 581 623 416 c 0
 623 299 579 189 500 111 c 0
 421 33 320 0 183 0 c 2
 -28 0 l 1
140 47 m 1
 195 47 l 2
 304 47 389 84 441 152 c 0
 492 219 526 322 526 426 c 0
 526 561 454 625 304 625 c 2
 249 625 l 1
 202 377 l 1
 352 377 l 1
 343 331 l 1
 192 331 l 1
 140 47 l 1
EndSplineSet
EndChar

StartChar: Thorn
Encoding: 222 222 211
Width: 532
Flags: HMW
HStem: 0 38<-29 207 -29 -29> 126 47<205.5 269 191 306.5> 502 43<256.5 271 271 317.5> 633 38<83 326 83 326>
VStem: 423 94<309.5 416.5>
LayerCount: 2
Fore
SplineSet
-29 0 m 1
 -29 38 l 1
 34 44 l 1
 50 58 l 1
 158 614 l 1
 146 628 l 1
 83 633 l 1
 83 671 l 1
 326 671 l 1
 326 633 l 1
 261 628 l 1
 245 614 l 1
 232 545 l 1
 271 545 l 2
 437 545 517 498 517 382 c 0
 517 237 399 126 214 126 c 0
 197 126 175 127 150 128 c 1
 136 58 l 1
 143 44 l 1
 207 38 l 1
 207 0 l 1
 -29 0 l 1
159 175 m 1
 172 174 185 173 197 173 c 0
 341 173 423 248 423 371 c 0
 423 462 372 502 263 502 c 0
 250 502 237 501 223 500 c 1
 159 175 l 1
EndSplineSet
EndChar

StartChar: brokenbar
Encoding: 166 166 213
Width: 500
Flags: HMW
HStem: -171 20 199 130<219 281 219 281> 679 20<219 281 281 281>
VStem: 219 62<-171 199 -171 199 329 699>
LayerCount: 2
Fore
SplineSet
219 -171 m 1
 219 199 l 1
 281 199 l 1
 281 -171 l 1
 219 -171 l 1
219 329 m 1
 219 699 l 1
 281 699 l 1
 281 329 l 1
 219 329 l 1
EndSplineSet
EndChar

StartChar: degree
Encoding: 176 176 214
Width: 329
Flags: HMW
HStem: 434 39<138 193 138 203> 670 40<138 192.5>
VStem: 27 39<544 599.5 544 611> 263 40<545 599>
LayerCount: 2
Fore
SplineSet
27 572 m 0
 27 650 89 710 165 710 c 0
 241 710 303 648 303 572 c 0
 303 497 242 434 164 434 c 0
 87 434 27 495 27 572 c 0
66 572 m 0
 66 516 111 473 165 473 c 0
 221 473 263 518 263 572 c 0
 263 626 220 670 165 670 c 0
 111 670 66 627 66 572 c 0
EndSplineSet
EndChar

StartChar: divide
Encoding: 247 247 215
Width: 833
Flags: HMW
HStem: 66 112<402 432 402 433> 270 57<124 709 124 709> 418 112<402 432.5 402 433>
VStem: 361 112<107 137.5 107 138 459 489.5>
LayerCount: 2
Fore
SplineSet
124 270 m 1
 124 327 l 1
 709 327 l 1
 709 270 l 1
 124 270 l 1
361 122 m 0
 361 154 387 178 417 178 c 0
 447 178 473 153 473 122 c 0
 473 92 449 66 417 66 c 0
 386 66 361 91 361 122 c 0
361 474 m 0
 361 505 387 530 417 530 c 0
 448 530 473 505 473 474 c 0
 473 444 449 418 417 418 c 0
 385 418 361 443 361 474 c 0
EndSplineSet
EndChar

StartChar: eth
Encoding: 240 240 216
Width: 500
Flags: HMW
HStem: -9 41<174.5 246.5 174.5 263.5> 444 37<238 279.5 238 291.5> 705 20<270 270>
VStem: 22 85<132 221> 361 82<212 315.5>
LayerCount: 2
Fore
SplineSet
22 181 m 0
 22 261 52 344 104 404 c 0
 148 455 205 481 271 481 c 0
 288 481 308 480 330 476 c 1
 316 511 301 545 284 578 c 1
 145 522 l 1
 131 559 l 1
 262 610 l 1
 227 661 l 1
 149 681 l 1
 153 709 l 1
 270 725 l 1
 331 638 l 1
 449 684 l 1
 464 649 l 1
 352 604 l 1
 411 493 443 394 443 298 c 0
 443 117 335 -9 192 -9 c 0
 89 -9 22 64 22 181 c 0
107 180 m 0
 107 84 145 32 204 32 c 0
 289 32 361 134 361 290 c 0
 361 341 354 390 340 437 c 1
 319 442 300 444 283 444 c 0
 178 444 107 338 107 180 c 0
EndSplineSet
EndChar

StartChar: micro
Encoding: 181 181 217
Width: 547
Flags: HMW
HStem: -204 20 -11 63<165.5 220> 412 20<97 169 169 169 370 443 443 443>
VStem: -39 570<-174.5 149.5>
LayerCount: 2
Fore
SplineSet
-39 -161 m 0
 -39 -120 4 -9 44 181 c 2
 97 432 l 1
 169 432 l 1
 118 192 l 2
 114 172 112 153 112 137 c 0
 112 83 141 52 190 52 c 0
 253 52 297 96 316 183 c 2
 370 432 l 1
 443 432 l 1
 387 173 l 2
 381 144 377 123 377 106 c 0
 377 74 396 53 422 53 c 0
 444 53 465 65 479 87 c 0
 502 122 501 162 518 162 c 0
 526 162 531 155 531 144 c 0
 531 132 526 104 511 71 c 0
 487 18 450 -9 399 -9 c 0
 356 -9 326 25 326 84 c 0
 326 87 326 91 326 95 c 1
 296 24 251 -11 189 -11 c 0
 126 -11 89 25 80 94 c 1
 41 -105 57 -204 0 -204 c 0
 -24 -204 -39 -188 -39 -161 c 0
EndSplineSet
EndChar

StartChar: multiply
Encoding: 215 215 218
Width: 833
Flags: HMW
HStem: 26 545<186 186 186 651>
VStem: 147 544<66 66 66 531>
LayerCount: 2
Fore
SplineSet
147 66 m 1
 379 298 l 1
 147 531 l 1
 186 571 l 1
 419 338 l 1
 651 571 l 1
 691 531 l 1
 459 298 l 1
 691 66 l 1
 651 26 l 1
 419 258 l 1
 186 26 l 1
 147 66 l 1
EndSplineSet
EndChar

StartChar: onehalf
Encoding: 189 189 219
Width: 867
Flags: HW
HStem: 0 44<575 765 575 795> 0 671<124 742 124 742 503 742 681 742 681 795> 295 24<51 240 51 51> 354 28<708.5 734> 666 11
VStem: 51 203 124 618 781 62<258 312.5>
LayerCount: 2
Fore
SplineSet
51 295 m 1
 51 319 l 1
 117 322 l 1
 127 332 l 1
 190 623 l 1
 183 628 l 1
 92 618 l 1
 92 641 l 1
 239 677 l 1xbd
 254 677 l 1
 179 330 l 1
 185 321 l 1
 240 319 l 1
 240 295 l 1
 51 295 l 1
503 0 m 1
 511 35 l 1
 685 143 781 208 781 293 c 0
 781 332 756 354 712 354 c 0
 693 354 674 349 653 340 c 1
 640 281 l 1
 630 275 620 272 610 272 c 0
 592 272 581 282 581 295 c 0
 581 310 589 326 608 342 c 0
 638 366 685 382 732 382 c 0
 803 382 843 351 843 298 c 0
 843 218 749 151 575 44 c 1xbd
 765 44 l 1
 786 92 l 1
 814 92 l 1
 795 0 l 1
 503 0 l 1
EndSplineSet
Refer: 98 8260 S 1 0 0 1 350 0 2
EndChar

StartChar: onequarter
Encoding: 188 188 220
Width: 867
Flags: HW
HStem: -21 11 0 671<124 742 124 742> 109 36<525 525 572 720 517 525 777 839> 295 24<51 240 51 51> 368 11 666 11
VStem: 51 203 124 618 517 330<109 145>
LayerCount: 2
Fore
SplineSet
51 295 m 1
 51 319 l 1
 117 322 l 1
 127 332 l 1
 190 623 l 1
 183 628 l 1
 92 618 l 1
 92 641 l 1
 239 677 l 1xbe80
 254 677 l 1
 179 330 l 1
 185 321 l 1
 240 319 l 1
 240 295 l 1
 51 295 l 1
517 109 m 1
 525 145 l 1
 790 379 l 1xbe80
 827 379 l 1
 777 145 l 1
 847 145 l 1
 839 109 l 1
 768 109 l 1
 741 -21 l 1
 692 -21 l 1
 720 109 l 1
 517 109 l 1
572 145 m 1
 728 145 l 1
 765 318 l 1
 572 145 l 1
EndSplineSet
Refer: 98 8260 S 1 0 0 1 350 0 2
EndChar

StartChar: onesuperior
Encoding: 185 185 221
Width: 367
Flags: HMW
HStem: 268 25<55 252> 666 12
VStem: 55 212
LayerCount: 2
Fore
SplineSet
55 268 m 1
 55 294 l 1
 123 297 l 1
 134 308 l 1
 200 619 l 1
 193 625 l 1
 97 614 l 1
 97 638 l 1
 251 678 l 1
 267 678 l 1
 189 305 l 1
 195 296 l 1
 252 293 l 1
 252 268 l 1
 55 268 l 1
EndSplineSet
EndChar

StartChar: plusminus
Encoding: 177 177 222
Width: 833
Flags: HMW
HStem: 20 57<124 709 124 709> 351 57<124 388 124 388 446 709>
VStem: 388 58<183 351 183 351 408 576>
LayerCount: 2
Fore
SplineSet
124 20 m 1
 124 77 l 1
 709 77 l 1
 709 20 l 1
 124 20 l 1
124 351 m 1
 124 408 l 1
 388 408 l 1
 388 576 l 1
 446 576 l 1
 446 408 l 1
 709 408 l 1
 709 351 l 1
 446 351 l 1
 446 183 l 1
 388 183 l 1
 388 351 l 1
 124 351 l 1
EndSplineSet
EndChar

StartChar: thorn
Encoding: 254 254 223
Width: 516
Flags: HMW
HStem: -218 30<-69 171 -69 -69> -4 44<191 220> 430 53<312.5 315> 680 26<60 60> 716 20<212 239 239 239>
VStem: 378 83<266 345.5>
LayerCount: 2
Fore
SplineSet
-69 -188 m 1
 -10 -176 l 1
 0 -165 l 1
 149 670 l 1
 60 680 l 1
 60 706 l 1
 212 736 l 1
 239 736 l 1
 233 703 229 681 227 671 c 2
 183 421 l 1
 241 462 291 483 334 483 c 0
 413 483 461 421 461 308 c 0
 461 221 433 148 376 85 c 0
 325 29 254 -4 186 -4 c 0
 160 -4 134 3 109 15 c 1
 76 -171 l 1
 171 -188 l 1
 171 -218 l 1
 -69 -218 l 1
 -69 -188 l 1
119 67 m 1
 149 49 177 40 205 40 c 0
 249 40 286 60 317 101 c 0
 350 145 378 226 378 306 c 0
 378 385 342 430 288 430 c 0
 258 430 221 412 176 377 c 1
 119 67 l 1
EndSplineSet
EndChar

StartChar: threequarters
Encoding: 190 190 224
Width: 868
Flags: HW
HStem: -21 11 0 671<124 742 124 742> 109 36<525 525 572 720 517 525 777 839> 289 26<110 134.5> 368 11 651 26<180.5 212.5>
VStem: 124 618 238 59<403.5 434> 261 62<577 609.5> 517 330<109 145>
LayerCount: 2
Fore
SplineSet
1 349 m 0
 1 368 14 381 35 381 c 0
 42 381 49 380 57 377 c 1
 67 329 l 1
 83 320 100 315 120 315 c 0
 188 315 238 359 238 415 c 0xb940
 238 453 210 476 161 476 c 0
 149 476 137 475 123 474 c 1
 128 506 l 1
 134 505 139 505 144 505 c 0
 215 505 261 544 261 591 c 0
 261 628 234 651 191 651 c 0
 170 651 151 645 131 633 c 1
 122 579 l 1
 110 576 100 573 93 573 c 0
 77 573 65 583 65 599 c 0
 65 636 128 677 215 677 c 0
 283 677 323 647 323 601 c 0
 323 553 280 512 201 495 c 1x0480
 263 493 297 465 297 422 c 0
 297 385 273 346 230 320 c 0
 197 300 156 289 113 289 c 0
 46 289 1 316 1 349 c 0
517 109 m 1
 525 145 l 1
 790 379 l 1xb940
 827 379 l 1
 777 145 l 1
 847 145 l 1
 839 109 l 1
 768 109 l 1
 741 -21 l 1
 692 -21 l 1
 720 109 l 1
 517 109 l 1
572 145 m 1
 728 145 l 1
 765 318 l 1
 572 145 l 1
EndSplineSet
Refer: 98 8260 S 1 0 0 1 350 0 2
EndChar

StartChar: threesuperior
Encoding: 179 179 225
Width: 367
Flags: HW
HStem: 261 29<115 140.5> 650 28<189 223>
VStem: 249 63<384 417.5> 274 64<570.5 605>
LayerCount: 2
Fore
SplineSet
1 326 m 0
 1 347 15 360 37 360 c 0
 44 360 51 359 60 356 c 1
 70 304 l 1
 87 294 105 290 125 290 c 0
 197 290 249 337 249 397 c 0xa0
 249 438 220 462 168 462 c 0
 156 462 143 461 129 460 c 1
 134 494 l 1
 140 493 145 493 150 493 c 0
 226 493 274 534 274 585 c 0
 274 625 246 650 200 650 c 0
 178 650 158 643 137 630 c 1
 128 573 l 1
 115 569 105 566 97 566 c 0
 81 566 68 577 68 594 c 0
 68 633 134 678 225 678 c 0
 296 678 338 645 338 596 c 0
 338 545 293 501 211 482 c 1x50
 275 480 312 450 312 404 c 0
 312 364 286 323 241 294 c 0
 207 273 163 261 118 261 c 0
 48 261 1 290 1 326 c 0
EndSplineSet
EndChar

StartChar: twosuperior
Encoding: 178 178 226
Width: 367
Flags: HMW
HStem: 268 47<61 259 61 291> 647 31<201 228>
VStem: 277 64<544.5 602.5>
LayerCount: 2
Fore
SplineSet
-15 268 m 1
 -7 306 l 1
 176 422 277 491 277 582 c 0
 277 623 251 647 205 647 c 0
 184 647 164 642 143 633 c 1
 129 569 l 1
 119 563 108 560 98 560 c 0
 79 560 67 570 67 584 c 0
 67 600 76 618 95 634 c 0
 127 660 176 678 226 678 c 0
 300 678 341 644 341 588 c 0
 341 501 243 429 61 315 c 1
 259 315 l 1
 282 366 l 1
 312 366 l 1
 291 268 l 1
 -15 268 l 1
EndSplineSet
EndChar

StartChar: uni0237
Encoding: 567 567 228
Width: 269
Flags: MW
HStem: -216 66<-91 -3> 430 23<25 25> 462 20<177 213 213 213>
VStem: -128 341
DStem2: 81 123 157 126 0.155393 0.987853<-179.652 298.409>
LayerCount: 2
Fore
SplineSet
-128 -163 m 0
 -128 -147 -120 -133 -106 -123 c 1
 -3 -150 l 1
 47 -96 61 -4 81 123 c 2
 126 418 l 1
 25 430 l 1
 25 453 l 1
 177 482 l 1
 213 482 l 1
 157 126 l 2
 144 42 131 -34 81 -104 c 0
 28 -179 -28 -216 -75 -216 c 0
 -107 -216 -128 -195 -128 -163 c 0
EndSplineSet
EndChar

StartChar: afii10033
Encoding: 1055 1055 259
Width: 706
Flags: W
HStem: 0 38<-28 36 151 215 379 444 557 621> 625 46<250 569> 633 38<84 149 669 735>
DStem2: 40.7259 0 127.726 0 0.190809 0.981627<75.686 624.305> 447.726 0 535.726 0 0.190809 0.981627<75.8768 636.657>
LayerCount: 2
Back
SplineSet
-28 0 m 5
 -28 38 l 5
 36 44 l 5
 52 58 l 5
 159 613 l 5
 149 628 l 5
 84 633 l 5
 84 671 l 5
 328 671 l 5
 328 633 l 5
 262 628 l 5
 247 613 l 5
 200 374 l 5
 526 374 l 5
 573 613 l 5
 561 628 l 5
 497 633 l 5
 497 671 l 5
 741 671 l 5
 741 633 l 5
 675 628 l 5
 659 613 l 5
 553 58 l 5
 563 44 l 5
 627 38 l 5
 627 0 l 5
 385 0 l 5
 385 38 l 5
 450 44 l 5
 465 58 l 5
 516 328 l 5
 191 328 l 5
 139 58 l 5
 151 44 l 5
 215 38 l 5
 215 0 l 5
 -28 0 l 5
EndSplineSet
Fore
SplineSet
-28 0 m 1xc0
 -28 38 l 1
 36 44 l 1
 52 58 l 1
 159 613 l 1
 149 628 l 1
 84 633 l 1
 84 671 l 1
 735 671 l 1
 735 633 l 1xa0
 669 628 l 1
 653 613 l 1
 547 58 l 1
 557 44 l 1
 621 38 l 1
 621 0 l 1
 379 0 l 1
 379 38 l 1
 444 44 l 1
 459 58 l 1
 569 625 l 1
 250 625 l 1
 139 58 l 1
 151 44 l 1
 215 38 l 1
 215 0 l 1
 -28 0 l 1xc0
EndSplineSet
EndChar

StartChar: afii10026
Encoding: 1048 1048 260
Width: 718
Flags: HMW
HStem: 0 38<-28 36 151 215 391 456 569 633> 633 38<85 149 263 326 506 569 683 747>
DStem2: 40.7259 0 127.726 0 0.190809 0.981627<75.686 134.719 212.185 624.496> 165 192 150 116 0.739196 0.67349<0 485.619> 460.726 0 547.726 0 0.190809 0.981627<75.686 494.078 571.543 624.496>
LayerCount: 2
Back
SplineSet
93 126 m 1
 606 594 l 1
 637 560 l 1
 124 92 l 1
 93 126 l 1
391 0 m 1
 391 38 l 1
 456 44 l 1
 472 58 l 1
 580 613 l 1
 569 628 l 1
 506 633 l 1
 506 671 l 1
 747 671 l 1
 747 633 l 1
 683 628 l 1
 667 613 l 1
 559 58 l 1
 569 44 l 1
 633 38 l 1
 633 0 l 1
 391 0 l 1
-28 0 m 1
 -28 38 l 1
 36 44 l 1
 52 58 l 1
 160 613 l 1
 149 628 l 1
 85 633 l 1
 85 671 l 1
 326 671 l 1
 326 633 l 1
 263 628 l 1
 247 613 l 1
 139 58 l 1
 151 44 l 1
 215 38 l 1
 215 0 l 1
 -28 0 l 1
EndSplineSet
Fore
SplineSet
-28 0 m 1
 -28 38 l 1
 36 44 l 1
 52 58 l 1
 160 613 l 1
 149 628 l 1
 85 633 l 1
 85 671 l 1
 326 671 l 1
 326 633 l 1
 263 628 l 1
 247 613 l 1
 165 192 l 1
 570 561 l 1
 580 613 l 1
 569 628 l 1
 506 633 l 1
 506 671 l 1
 747 671 l 1
 747 633 l 1
 683 628 l 1
 667 613 l 1
 559 58 l 1
 569 44 l 1
 633 38 l 1
 633 0 l 1
 391 0 l 1
 391 38 l 1
 456 44 l 1
 472 58 l 1
 555 485 l 1
 150 116 l 1
 139 58 l 1
 151 44 l 1
 215 38 l 1
 215 0 l 1
 -28 0 l 1
EndSplineSet
EndChar

StartChar: afii10020
Encoding: 1043 1043 261
Width: 477
Flags: W
HStem: 0 38<-26 37 155 225> 625 46<249 435> 633 38<86 150>
VStem: 447 48<500 536.273>
DStem2: 41.9203 0 129.337 0 0.190809 0.981627<77.8029 624.268>
LayerCount: 2
Back
SplineSet
-26 0 m 5
 -26 38 l 5
 37 43 l 5
 53 57 l 5
 160 613 l 5
 150 627 l 5
 86 633 l 5
 86 671 l 5
 540 671 l 5
 509 514 l 5
 461 514 l 5
 461 609 l 5
 451 625 l 5
 249 625 l 5
 199 361 l 5
 340 361 l 5
 358 376 l 5
 381 448 l 5
 425 448 l 5
 382 228 l 5
 339 228 l 5
 343 300 l 5
 331 315 l 5
 190 315 l 5
 141 60 l 5
 155 45 l 5
 225 40 l 5
 225 0 l 5
 -26 0 l 5
EndSplineSet
Fore
SplineSet
-26 0 m 1xd0
 -26 38 l 1
 37 43 l 1
 53 57 l 1
 160 613 l 1
 150 627 l 1
 86 633 l 1
 86 671 l 1
 528 671 l 1xb0
 495 500 l 1
 447 500 l 1
 447 609 l 1
 435 625 l 1
 249 625 l 1
 141 60 l 1
 155 45 l 1
 225 40 l 1
 225 0 l 1
 -26 0 l 1xd0
EndSplineSet
EndChar

StartChar: afii10040
Encoding: 1062 1062 262
Width: 707
Flags: W
HStem: -170 21G<532 585.846> 0 46<137 451> 0 38<-28 36 550 614> 633 38<84 149 263 328 485 550 664 728>
VStem: 532 50<-170 -133.6>
DStem2: 7.68129 -170 95.0139 -170 0.190809 0.981627<236.707 797.678> 409.014 -170 495.681 -170 0.190809 0.981627<248.804 797.614>
LayerCount: 2
Back
SplineSet
52 58 m 1
 160 613 l 1
 149 628 l 1
 85 633 l 1
 85 671 l 1
 326 671 l 1
 326 633 l 1
 263 628 l 1
 247 613 l 1
 137 46 l 1
452 46 m 1
 562 613 l 1
 551 628 l 1
 488 633 l 1
 488 671 l 1
 729 671 l 1
 729 633 l 1
 665 628 l 1
 649 613 l 1
 541 58 l 1
EndSplineSet
Fore
SplineSet
550 44 m 1xb8
 622 38 l 1
 582 -170 l 1
 532 -170 l 1
 532 -17 l 1
 513 0 l 1
 550 44 l 1xb8
-28 0 m 1
 -28 38 l 1xb8
 36 44 l 1
 52 58 l 1
 160 613 l 1
 149 628 l 1
 84 633 l 1
 84 671 l 1
 328 671 l 1
 328 633 l 1
 263 628 l 1
 247 613 l 1
 137 46 l 1
 451 46 l 1xd8
 561 613 l 1
 550 628 l 1
 485 633 l 1
 485 671 l 1
 728 671 l 1
 728 633 l 1
 664 628 l 1
 648 613 l 1
 540 58 l 1
 550 44 l 1
 614 38 l 1
 614 0 l 1
 -28 0 l 1
EndSplineSet
EndChar

StartChar: afii10046
Encoding: 1068 1068 263
Width: 565
Flags: W
HStem: 0 43<-28 36 137.85 316.3> 333 46<200 366.34> 633 38<84 149 262 328>
VStem: 412 99<126.672 289.584>
DStem2: 40.7259 0 128.059 0 0.190809 0.981627<63.5248 358.02 398.501 624.305>
LayerCount: 2
Back
SplineSet
-28 0 m 1
 -28 38 l 1
 35 44 l 1
 52 58 l 1
 158 613 l 1
 148 628 l 1
 84 633 l 1
 84 671 l 1xf0
 341 671 l 2
 476 671 543 633 543 546 c 0x68
 543 451 482 385 366 356 c 1
 470 351 524 305 524 223 c 0
 524 73 424 0 222 0 c 2
 -28 0 l 1
137 44 m 1xf0
 160 42 182 41 203 41 c 0
 351 41 426 100 426 216 c 0
 426 294 375 327 268 327 c 0
 250 327 224 325 191 322 c 1
 137 44 l 1xf0
199 369 m 1xf8
 221 367 237 366 250 366 c 0
 372 366 444 434 444 536 c 0
 444 602 398 632 302 632 c 0
 289 632 271 631 247 629 c 1
 199 369 l 1xf8
EndSplineSet
Fore
SplineSet
137 46 m 1
 155 44 181 43 197 43 c 0
 339 43 412 102 412 217 c 0
 412 310 349 333 257 333 c 0
 242 333 222 332 193 329 c 1
 137 46 l 1
-28 0 m 1
 -28 38 l 1
 36 44 l 1
 52 58 l 1
 159 613 l 1
 149 628 l 1
 84 633 l 1
 84 671 l 1
 328 671 l 1
 328 633 l 1
 262 628 l 1
 247 613 l 1
 200 375 l 1
 231 378 248 379 273 379 c 0
 419 379 511 332 511 222 c 0
 511 68 408 0 205 0 c 2
 -28 0 l 1
EndSplineSet
EndChar

StartChar: afii10041
Encoding: 1063 1063 264
Width: 677
Flags: W
HStem: 0 38<350 415 528 592> 259 68<224.647 376.968> 633 38<89 154 267 329 466 526 640 706>
DStem2: 44.6693 0 132.056 0 0.190809 0.981627<381.357 624.507> 418.726 0 506.726 0 0.190809 0.981627<75.8768 340.918 379.316 624.496>
LayerCount: 2
Back
SplineSet
92 58 m 1
 199 613 l 1
 189 628 l 1
 124 633 l 1
 124 671 l 1
 364 671 l 1
 364 633 l 1
 302 628 l 1
 287 613 l 1
 240 374 l 1
526 374 m 1
 573 613 l 1
 561 628 l 1
 501 633 l 1
 501 671 l 1
 741 671 l 1
 741 633 l 1
 675 628 l 1
 659 613 l 1
 553 58 l 1
 563 44 l 1
 627 38 l 1
 627 0 l 1
 385 0 l 1
 385 38 l 1
 450 44 l 1
 465 58 l 1
 516 328 l 1
EndSplineSet
Fore
SplineSet
89 633 m 1
 89 671 l 1
 329 671 l 1
 329 633 l 1
 267 628 l 1
 252 613 l 1
 217 437 l 2
 202 361 216 327 290 327 c 0
 371 327 423 345 494 390 c 1
 538 613 l 1
 526 628 l 1
 466 633 l 1
 466 671 l 1
 706 671 l 1
 706 633 l 1
 640 628 l 1
 624 613 l 1
 518 58 l 1
 528 44 l 1
 592 38 l 1
 592 0 l 1
 350 0 l 1
 350 38 l 1
 415 44 l 1
 430 58 l 1
 482 335 l 1
 418 296 352 259 271 259 c 0
 154 259 107 323 137 475 c 2
 164 613 l 1
 154 628 l 1
 89 633 l 1
EndSplineSet
EndChar

StartChar: afii10018
Encoding: 1041 1041 265
Width: 582
Flags: W
HStem: 0 43<-28 36 137.852 327.949> 343 46<201 368.957> 625 46<248 445> 633 38<85 149>
VStem: 426 99<126.812 293.949> 455 48<512 547.903>
DStem2: 40.7259 0 128.059 0 0.190809 0.981627<63.5248 368.272 408.508 624.305>
LayerCount: 2
Back
SplineSet
-28 0 m 5
 -28 38 l 5
 35 44 l 5
 52 58 l 5
 158 613 l 5
 148 628 l 5
 84 633 l 5
 84 671 l 5xf0
 341 671 l 6
 476 671 543 633 543 546 c 4x68
 543 451 482 385 366 356 c 5
 470 351 524 305 524 223 c 4
 524 73 424 0 222 0 c 6
 -28 0 l 5
137 44 m 5xf0
 160 42 182 41 203 41 c 4
 351 41 426 100 426 216 c 4
 426 294 375 327 268 327 c 4
 250 327 224 325 191 322 c 5
 137 44 l 5xf0
199 369 m 5xf8
 221 367 237 366 250 366 c 4
 372 366 444 434 444 536 c 4
 444 602 398 632 302 632 c 4
 289 632 271 631 247 629 c 5
 199 369 l 5xf8
EndSplineSet
Fore
SplineSet
-28 0 m 1xe8
 -28 38 l 1
 36 44 l 1
 52 58 l 1
 159 613 l 1
 149 627 l 1
 85 633 l 1
 85 671 l 1
 534 671 l 1
 503 512 l 1
 455 512 l 1
 455 609 l 1xd4
 445 625 l 1
 248 625 l 1
 201 385 l 1
 232 388 249 389 274 389 c 0
 419 389 525 335 525 227 c 0
 525 73 429 0 209 0 c 2
 -28 0 l 1xe8
137 46 m 1
 155 44 185 43 201 43 c 0
 366 43 426 110 426 222 c 0xc8
 426 315 354 343 258 343 c 0
 241 343 223 342 194 339 c 1
 137 46 l 1
EndSplineSet
EndChar

StartChar: afii10042
Encoding: 1064 1064 266
Width: 968
Flags: W
HStem: 0 46<137 385 472 720> 0 38<-28 36 819 883> 633 38<85 149 263 326 421 484 598 662 756 819 933 997>
DStem2: 40.7259 0 128.059 0 0.190809 0.981627<63.5248 624.496> 376.059 0 463.059 0 0.190809 0.981627<63.4614 624.433> 711.059 0 797.726 0 0.190809 0.981627<75.6225 624.433>
LayerCount: 2
Fore
SplineSet
-28 0 m 1x60
 -28 38 l 1x60
 36 44 l 1
 52 58 l 1
 160 613 l 1
 149 628 l 1
 85 633 l 1
 85 671 l 1
 326 671 l 1
 326 633 l 1
 263 628 l 1
 247 613 l 1
 137 46 l 1
 385 46 l 1
 495 613 l 1
 484 628 l 1
 421 633 l 1
 421 671 l 1
 662 671 l 1
 662 633 l 1
 598 628 l 1
 582 613 l 1
 472 46 l 1
 720 46 l 1xa0
 830 613 l 1
 819 628 l 1
 756 633 l 1
 756 671 l 1
 997 671 l 1
 997 633 l 1
 933 628 l 1
 917 613 l 1
 809 58 l 1
 819 44 l 1
 883 38 l 1
 883 0 l 1
 -28 0 l 1x60
EndSplineSet
EndChar

StartChar: afii10043
Encoding: 1065 1065 267
Width: 978
Flags: W
HStem: -170 21G<803 856.846> 0 38<-28 36 819 883> 0 46<137 385 472 720> 633 38<85 149 263 326 421 484 598 662 756 819 933 997>
VStem: 803 50<-170 -133.6>
DStem2: 40.7259 0 128.059 0 0.190809 0.981627<63.5248 624.496> 376.059 0 463.059 0 0.190809 0.981627<63.4614 624.433> 711.059 0 797.726 0 0.190809 0.981627<75.6225 624.433>
LayerCount: 2
Fore
SplineSet
819 44 m 1xb8
 893 38 l 1xd8
 853 -170 l 1
 803 -170 l 1
 803 -17 l 1
 784 0 l 1
 819 44 l 1xb8
EndSplineSet
Refer: 266 1064 N 1 0 0 1 0 0 2
EndChar

StartChar: afii10038
Encoding: 1060 1060 268
Width: 798
VWidth: 0
Flags: W
HStem: -4 38<222 286 401 465> 642 38<338 402 516 579>
VStem: 50 93<219.574 393.852> 661 93<292.148 466.426>
DStem2: 290.726 -4 377.726 -4 0.190809 0.981627<75.686 637.83>
LayerCount: 2
Fore
SplineSet
143 292 m 0
 143 224 184 161 324 161 c 9
 315 115 l 17
 75 115 50 222 50 313 c 0
 50 454 164 571 404 571 c 9
 395 525 l 17
 255 525 143 444 143 292 c 0
661 394 m 0
 661 462 620 525 480 525 c 9
 489 571 l 17
 729 571 754 464 754 373 c 0
 754 232 640 115 400 115 c 9
 409 161 l 17
 549 161 661 242 661 394 c 0
222 -4 m 1
 222 34 l 1
 286 40 l 1
 302 54 l 1
 413 622 l 1
 402 637 l 1
 338 642 l 1
 338 680 l 1
 579 680 l 1
 579 642 l 1
 516 637 l 1
 500 622 l 1
 389 54 l 1
 401 40 l 1
 465 34 l 1
 465 -4 l 1
 222 -4 l 1
EndSplineSet
EndChar

StartChar: afii10037
Encoding: 1059 1059 269
Width: 616
Flags: W
HStem: -16 21G<92 173> 633 38<66 113 219 273 476 532 609 662>
DStem2: 212 613 129 610 0.267226 -0.963634<0 400.021> 317 227 380 236 0.50538 0.862897<0 445.778>
LayerCount: 2
Back
SplineSet
563 619 m 1
 276 130 l 1
364 130 m 1
 228 619 l 1
623 619 m 1
 336 130 l 1
 280 130 l 1
 144 619 l 1
EndSplineSet
Fore
SplineSet
609 627 m 1
 380 236 l 1
 305 100 223 -16 123 -16 c 0
 61 -16 31 18 31 57 c 0
 31 90 50 135 102 130 c 1
 142 40 l 1
 187 51 214 75 261 134 c 1
 129 610 l 1
 113 628 l 1
 66 633 l 1
 66 671 l 1
 273 671 l 1
 273 633 l 1
 219 628 l 1
 212 613 l 1
 317 227 l 1
 540 613 l 1
 532 628 l 1
 476 633 l 1
 476 671 l 1
 662 671 l 1
 662 633 l 1
 609 627 l 1
EndSplineSet
EndChar

StartChar: afii10029
Encoding: 1051 1051 270
Width: 710
Flags: W
HStem: -16 21G<11 75.5> 0 38<431 491 606 655> 631 40<315 376>
DStem2: 211 254 279 270 0.440157 0.897921<-171.049 365.419> 484 671 419 559 0.169636 -0.985507<99.3504 607.169>
LayerCount: 2
Back
SplineSet
398 671 m 1
 504 52 l 1
227 165 m 2
 490 700 l 1
167 165 m 2
 430 700 l 1
484 671 m 1
 590 52 l 1
EndSplineSet
Fore
SplineSet
-40 51 m 0xa0
 -40 86 -17 119 23 117 c 1
 68 47 l 1
 100 66 139 108 211 254 c 2
 386 611 l 1
 376 625 l 1
 315 631 l 1
 315 671 l 1
 484 671 l 1
 589 61 l 1
 606 43 l 1
 655 38 l 1
 655 0 l 1
 431 0 l 1
 431 38 l 1x60
 491 43 l 1
 502 58 l 1
 419 559 l 1
 279 270 l 2
 189 84 124 -16 27 -16 c 0
 -5 -16 -40 14 -40 51 c 0xa0
EndSplineSet
EndChar

StartChar: afii10021
Encoding: 1044 1044 271
Width: 667
Flags: W
HStem: -170 21G<-73 -15.1569 520 573.846> 0 46<104 445> 631 40<244 312>
VStem: 520 50<-170 -133.6>
DStem2: 46 52 104 46 0.44529 0.895386<20.4545 593.787> 424 671 358 560 0.16883 -0.985645<98.2638 619.574>
LayerCount: 2
Back
SplineSet
598 52 m 1
 678 41 l 1
 637 -170 l 1
 583 -170 l 1
 589 -17 l 1
 570 0 l 1
 112 0 l 5
 87 -17 l 5
 33 -170 l 5
 -21 -170 l 5
 20 41 l 5
 102 52 l 13
405 671 m 1
 511 52 l 1
229 165 m 2
 497 700 l 1
169 165 m 2
 437 700 l 1
491 671 m 1
 597 52 l 1
EndSplineSet
Fore
SplineSet
-73 -170 m 1
 -32 41 l 1
 46 52 l 9
 324 611 l 1
 312 625 l 1
 244 631 l 1
 244 671 l 1
 424 671 l 1
 529 58 l 1
 539 44 l 1
 610 38 l 1
 570 -170 l 1
 520 -170 l 1
 520 -17 l 1
 501 0 l 1
 62 0 l 1
 37 -17 l 1
 -23 -170 l 1
 -73 -170 l 1
104 46 m 17
 445 46 l 1
 358 560 l 1
 104 46 l 17
EndSplineSet
EndChar

StartChar: afii10047
Encoding: 1069 1069 272
Width: 593
Flags: MW
HStem: -12 49<72.5417 265.086> 298 65<300.742 405.7> 338 65<165.702 274.612> 634 49<190.364 378.014>
VStem: 18 44<133.963 170> 459 95<370 527.467>
LayerCount: 2
Back
SplineSet
120 337 m 5xbc
 158 381 199 404 241 404 c 4xbc
 289 404 342 364 383 364 c 4
 410 364 468 368 480 429 c 5
 477 370 l 5
 437 326 401 297 354 297 c 4xdc
 306 297 251 337 210 337 c 4
 192 337 167 337 138 312 c 5
 120 337 l 5xbc
-17 21 m 5
 11 164 l 5
 64 164 l 5
 67 68 l 5
 80 52 l 5
 108 43 140 41 168 41 c 4
 239 41 313 65 366 121 c 4
 424 183 453 252 475 366 c 5
 479 377 l 5
 477 380 l 5
 497 537 435 630 297 630 c 4
 258 630 218 624 178 607 c 5
 161 589 l 5
 131 510 l 5
 78 510 l 5
 106 652 l 5
 183 674 251 683 310 683 c 4
 518 683 612 544 572 336 c 4
 539 167 407 -12 178 -12 c 4
 111 -12 43 -3 -17 21 c 5
120 337 m 5xbc
 158 381 199 404 241 404 c 4xbc
 289 404 342 364 383 364 c 4
 410 364 468 368 480 429 c 5
 477 370 l 5
 437 326 401 297 354 297 c 4xdc
 306 297 251 337 210 337 c 4
 192 337 167 337 138 312 c 5
 120 337 l 5xbc
-17 21 m 5
 11 164 l 5
 64 164 l 5
 67 68 l 5
 80 52 l 5
 108 43 140 41 168 41 c 4
 239 41 313 65 366 121 c 4
 424 183 453 252 475 366 c 5
 479 377 l 5
 477 380 l 5
 497 537 435 630 297 630 c 4
 258 630 218 624 178 607 c 5
 161 589 l 5
 131 510 l 5
 78 510 l 5
 106 652 l 5
 183 674 251 683 310 683 c 4
 518 683 612 544 572 336 c 4
 539 167 407 -12 178 -12 c 4
 111 -12 43 -3 -17 21 c 5
EndSplineSet
Fore
SplineSet
115 337 m 1xb8
 153 381 194 403 236 403 c 0xb8
 281 403 330 363 369 363 c 0
 388 363 451 368 463 429 c 1
 459 370 l 1
 419 326 387 298 340 298 c 0xd8
 295 298 244 338 205 338 c 0
 187 338 162 338 133 313 c 1
 115 337 l 1xb8
-9 31 m 1
 18 170 l 1
 62 170 l 1
 62 78 l 1
 71 59 l 1
 91 47 130 37 165 37 c 0
 391 37 444 301 457 366 c 1
 459 370 l 1
 461 409 l 1
 461 554 406 634 294 634 c 0
 251 634 200 621 168 601 c 1
 151 581 l 1
 121 506 l 1
 74 506 l 1
 102 644 l 1
 178 671 227 683 307 683 c 0
 490 683 554 530 554 413 c 0
 554 168 393 -12 175 -12 c 0
 114 -12 49 3 -9 31 c 1
EndSplineSet
EndChar

StartChar: afii10025
Encoding: 1047 1047 273
Width: 537
Flags: HW
HStem: -12 50<74.3936 274.44> 329 52<182.654 318.668> 633 50<175.868 362.575>
VStem: 19 43<136 172> 369 99<123.575 279.214> 399 98<454.783 599.324>
LayerCount: 2
Back
SplineSet
-15.7715 28 m 1xf4
 12.2188 172 l 1
 65.2188 172 l 1
 65.3643 75 l 1
 77.2539 59 l 1
 105.505 50 140.755 41 172.755 41 c 0
 293.755 41 367.919 83 388.523 189 c 0xf4
 405.629 277 347.319 332 238.319 332 c 1
 176.736 329 l 1
 186.845 381 l 1
 247.261 378 l 1
 368.261 378 411.036 418 428.919 510 c 0
 444.858 592 391.245 630 292.245 630 c 0
 245.245 630 216.856 628 172.997 603 c 1
 157.498 585 l 1
 130.142 506 l 1
 77.1416 506 l 1
 103.771 643 l 1
 181.021 670 243.547 683 310.547 683 c 0
 457.547 683 548.718 617 527.336 507 c 0xf8
 512.563 431 455.233 383 352.179 357 c 1
 468.652 344 503.269 270 486.163 182 c 0
 461.088 53 346.453 -12 179.453 -12 c 0
 106.453 -12 42.7852 0 -15.7715 28 c 1xf4
EndSplineSet
Fore
SplineSet
-7 38 m 1xf8
 21 178 l 1
 64 178 l 1
 64 79 l 1
 76 63 l 1
 100 49 141 38 177 38 c 0
 279 38 373 96 373 201 c 0xf8
 373 267 338 332 234 332 c 1
 178 329 l 1
 188 381 l 1
 243 378 l 1
 355 378 403 435 403 526 c 0
 403 584 382 633 279 633 c 0
 231 633 203 625 163 599 c 1
 149 578 l 1
 122 504 l 1
 75 504 l 1
 101 637 l 1
 167 671 215 683 296 683 c 0
 446 683 501 612 501 532 c 0xf4
 501 450 432 374 338 355 c 1
 442 329 472 274 472 208 c 0
 472 64 346 -12 183 -12 c 0
 121 -12 51 6 -7 38 c 1xf8
EndSplineSet
EndChar

StartChar: afii10028
Encoding: 1050 1050 274
Width: 642
Flags: W
HStem: -11 50<481.393 578.295> 0 38<-28 36 151 215 560.332 579> 332 46<200 280.023> 619 64<503.428 599.5> 633 38<85 149 263 326>
VStem: 581 45<556 593.1>
DStem2: 38.5878 -11 125.588 -11 0.190809 0.981627<86.8918 635.702>
LayerCount: 2
Fore
SplineSet
200 378 m 1xb4
 211 378 l 2
 283 378 352 451 393 525 c 0
 445 619 482 683 590 683 c 0
 609 683 636 674 646 662 c 1
 626 556 l 1
 581 556 l 1
 581 593 576 619 551 619 c 0
 522 619 496 605 446 511 c 0
 412 446 354 380 311 366 c 1
 354 360 430 324 452 171 c 0
 468 57 474 39 560 39 c 0
 567 39 579 40 579 40 c 1
 579 1 l 1
 549 -7 527 -11 497 -11 c 0
 412 -11 380 47 365 140 c 0
 348 246 327 332 223 332 c 2
 191 332 l 1
 200 378 l 1xb4
-28 0 m 1x6c
 -28 38 l 1
 36 44 l 1
 52 58 l 1
 160 613 l 1
 149 628 l 1
 85 633 l 1
 85 671 l 1
 326 671 l 1
 326 633 l 1
 263 628 l 1
 247 613 l 1
 139 58 l 1
 151 44 l 1
 215 38 l 1
 215 0 l 1
 -28 0 l 1x6c
EndSplineSet
EndChar

StartChar: afii10024
Encoding: 1046 1046 275
Width: 964
Flags: W
HStem: -11 50<-47.3913 53.0734 810.294 900.297> 0 38<-48 -31.3303 309 373 488 552 884.33 901> 332 46<375.841 445 534 614.604> 619 64<174.375 244.827 830.279 921.5> 633 38<422 486 600 663>
VStem: 110 43<556 593.1> 905 43<556 593.1>
DStem2: 375.588 -11 462.588 -11 0.190809 0.981627<86.8918 635.702>
LayerCount: 2
Back
SplineSet
542 378 m 5
 551 378 l 6
 645 378 691 452 736 528 c 4
 790 620 830 683 930 683 c 4
 949 683 976 674 986 662 c 5
 966 556 l 5
 913 556 l 5
 917 597 908 615 886 615 c 4
 852 615 841 602 788 511 c 4
 750 446 697 380 654 366 c 5
 697 360 786 332 798 171 c 4
 807 56 817 39 907 39 c 4
 914 39 924 40 924 40 c 5
 917 1 l 5
 887 -7 869 -11 839 -11 c 4
 732 -11 711 46 702 140 c 4
 692 248 668 332 563 332 c 6
 533 332 l 5
 542 378 l 5
453 332 m 5
 423 332 l 6
 318 332 262 248 210 140 c 4
 165 46 122 -11 15 -11 c 4
 -15 -11 -33 -7 -59 1 c 5
 -52 40 l 5
 -52 40 -42 39 -35 39 c 4
 55 39 73 56 126 171 c 4
 200 332 301 360 346 366 c 5
 309 380 280 446 268 511 c 4
 251 602 244 615 210 615 c 4
 188 615 173 597 161 556 c 5
 108 556 l 5
 128 662 l 5
 142 674 173 683 192 683 c 4
 292 683 308 620 326 528 c 4
 341 452 359 378 453 378 c 6
 462 378 l 5
 453 332 l 5
EndSplineSet
Fore
SplineSet
309 0 m 1x6e
 309 38 l 1
 373 44 l 1
 389 58 l 1
 497 613 l 1
 486 628 l 1
 422 633 l 1
 422 671 l 1
 663 671 l 1
 663 633 l 1
 600 628 l 1
 584 613 l 1
 476 58 l 1
 488 44 l 1
 552 38 l 1
 552 0 l 1
 309 0 l 1x6e
534 378 m 1
 543 378 l 2
 623 378 680 451 722 528 c 0
 774 623 812 683 912 683 c 0
 931 683 958 674 968 662 c 1
 948 556 l 1
 905 556 l 1
 905 599 895 619 870 619 c 0
 843 619 825 604 774 511 c 0
 738 445 688 378 643 366 c 1
 688 360 761 310 778 171 c 0
 792 57 807 39 884 39 c 0
 891 39 901 40 901 40 c 1
 901 1 l 1
 871 -7 851 -11 821 -11 c 0xb6
 720 -11 702 46 692 140 c 0
 681 241 660 332 555 332 c 2
 525 332 l 1
 534 378 l 1
445 332 m 1
 415 332 l 2
 317 332 257 248 207 140 c 0
 163 45 121 -11 22 -11 c 0
 -8 -11 -22 -7 -48 1 c 1
 -48 40 l 1
 -48 40 -38 39 -31 39 c 0
 46 39 72 55 123 171 c 0
 195 333 297 359 341 366 c 1
 304 380 279 446 269 511 c 0
 254 605 238 619 210 619 c 0
 191 619 165 597 153 556 c 1
 110 556 l 1
 130 662 l 1
 144 674 175 683 194 683 c 0
 291 683 305 617 320 528 c 0
 333 452 354 378 445 378 c 2
 454 378 l 1
 445 332 l 1
EndSplineSet
EndChar

StartChar: afii10049
Encoding: 1071 1071 276
Width: 637
Flags: HW
HStem: -11 50<-37.3701 57.5393> 0 38<-38 -27.1421 310 375 488 552> 292 46<292.888 436> 628 43<323.536 502 602 666>
VStem: 131 93<396.227 545.247>
DStem2: 377.588 -11 464.588 -11 0.190809 0.981627<86.8918 306.615 351.77 650.999>
LayerCount: 2
Fore
SplineSet
-38 1 m 1xb8
 -38 40 l 1
 -35 40 -30 39 -27 39 c 0xb8
 61 39 72 62 116 168 c 0
 157 266 215 293 273 312 c 1
 177 338 131 384 131 458 c 0
 131 598 229 671 409 671 c 2
 666 671 l 1
 666 633 l 1
 602 628 l 1
 586 613 l 1
 478 58 l 1
 488 44 l 1
 552 38 l 1
 552 0 l 1
 310 0 l 1
 310 38 l 1x78
 375 44 l 1
 391 58 l 1
 436 290 l 1
 418 291 399 292 374 292 c 0
 313 292 254 273 199 142 c 0
 162 53 123 -11 23 -11 c 0
 0 -11 -14 -7 -38 1 c 1xb8
224 467 m 0
 224 374 306 338 401 338 c 0
 407 338 415 338 446 339 c 1
 502 628 l 1
 434 628 l 2
 306 628 224 567 224 467 c 0
EndSplineSet
EndChar

StartChar: afii10044
Encoding: 1066 1066 277
Width: 715
Flags: W
HStem: 0 43<122 186 287.85 466.3> 333 46<350 516.34> 625 46<159 312> 633 38<412 478>
VStem: 562 99<126.672 289.584>
DStem2: 190.726 0 278.059 0 0.190809 0.981627<63.5248 358.02 398.501 636.657>
LayerCount: 2
Fore
SplineSet
55 492 m 1xe8
 89 671 l 1
 478 671 l 1
 478 633 l 1xd8
 412 628 l 1
 397 613 l 1
 350 375 l 1
 381 378 398 379 423 379 c 0
 569 379 661 332 661 222 c 0
 661 68 558 0 355 0 c 2
 122 0 l 1
 122 38 l 1
 186 44 l 1
 202 58 l 1
 312 625 l 1
 159 625 l 1
 143 610 l 1
 101 492 l 1
 55 492 l 1xe8
287 46 m 1
 305 44 331 43 347 43 c 0
 489 43 562 102 562 217 c 0
 562 310 499 333 407 333 c 0
 392 333 372 332 343 329 c 1
 287 46 l 1
EndSplineSet
EndChar

StartChar: afii10048
Encoding: 1070 1070 279
Width: 966
Flags: W
HStem: -12 48<516.5 602.5 516.5 615> 0 38<-28 36 151 215> 328 46<200 376> 633 38<84 149 262 328> 636 46<622 694.5 612 708>
VStem: 299 96<186 302 186 311> 829 98<369.5 464 364 487>
DStem2: 38.3934 -12 125.393 -12 0.190809 0.981627<87.9106 362.872 409.744 636.53>
LayerCount: 2
Fore
SplineSet
376 328 m 1x76
 191 328 l 1
 139 58 l 1
 151 44 l 1
 215 38 l 1
 215 0 l 1
 -28 0 l 1
 -28 38 l 1
 36 44 l 1
 52 58 l 1
 159 613 l 1
 149 628 l 1
 84 633 l 1
 84 671 l 1
 328 671 l 1
 328 633 l 1
 262 628 l 1
 247 613 l 1
 200 374 l 1
 386 374 l 1
 376 328 l 1x76
EndSplineSet
Refer: 47 79 N 1 0 0 1 258 0 2
EndChar

StartChar: afii10079
Encoding: 1085 1085 280
Width: 550
Flags: MW
HStem: -8 50<359.5 481.503> 0 21G<32 119.983> 230 46<121 409> 424 25<32 64.8788> 462 20G<93.0606 212>
VStem: 32 84<0 84> 319 85<47.7303 192.242> 399 84<389 473>
DStem2: 32 0 116 0 0.195333 0.980737<16.408 242.173 288.068 417.334> 328 132 414 154 0.20384 0.979004<-35.5587 112.453 158.099 348.313>
LayerCount: 2
Back
SplineSet
489 482 m 1
 393 0 l 1
324 56 m 0
 324 67.7467 325.765 96.4394 329 112 c 2
 404 473 l 1
 485 473 l 1
 414 147 l 2
 409 122 404 100 404 79 c 0
 404 58 424 40 456 40 c 0
 469 40 488 44 512 51 c 1
 512 23 l 1
 457 3 415 -8 384 -8 c 0
 343 -8 324 12 324 56 c 0
32 0 m 1
 115 409 l 1
 32 424 l 1
 32 449 l 1
 188 482 l 1
 213 482 l 1
 117 0 l 1
 32 0 l 1
128 482 m 1
 32 0 l 1
213 482 m 1
 117 0 l 1
EndSplineSet
Fore
SplineSet
121 276 m 1x3c
 412 276 l 1
 409 230 l 1
 117 230 l 1
 121 276 l 1x3c
319 56 m 0xbe
 319 68 320 95 328 132 c 2
 399 473 l 1
 483 473 l 1xbd
 414 154 l 2
 409 129 404 97 404 79 c 0
 404 61 419 42 452 42 c 0
 465 42 484 44 508 51 c 1
 508 23 l 1
 453 3 411 -8 380 -8 c 0
 339 -8 319 12 319 56 c 0xbe
32 0 m 1x7c
 115 409 l 1
 32 424 l 1
 32 449 l 1
 187 482 l 1
 212 482 l 1
 116 0 l 1
 32 0 l 1x7c
EndSplineSet
EndChar

StartChar: afii10068
Encoding: 1075 1075 281
Width: 382
VWidth: 2048
Flags: W
HStem: -9 50<101.609 234.036> 70 53<259 312> 439 44<128.475 263.225>
VStem: 12 79<51.2974 157.636> 274 68<325.93 428.204>
LayerCount: 2
Back
SplineSet
12 96 m 256
 12 196 119 232 203 287 c 256
 240 311 274 336 274 378 c 256
 274 425 247 439 207 439 c 256
 167 439 126 423 76 379 c 1
 60 410 l 1
 120 472 167 483 223 483 c 256
 310 483 342 435 342 385 c 256
 342 294 278 278 183 217 c 256
 130 183 91 149 91 98 c 256
 91 64 109 41 152 41 c 256
 174 41 232 42 296 108 c 1
 318 76 l 1
 253 9 206 -9 141 -9 c 256
 52 -9 12 41 12 96 c 256
EndSplineSet
Fore
SplineSet
12 96 m 256
 12 196 119 232 203 287 c 256
 240 311 274 336 274 378 c 256
 274 425 247 439 207 439 c 256
 169 439 129 427 68 374 c 1
 68 419 l 1
 127 477 187 483 223 483 c 256
 310 483 342 435 342 385 c 256
 342 294 278 278 183 217 c 256
 130 183 91 149 91 98 c 256
 91 64 109 41 152 41 c 256
 186 41 241 51 312 123 c 1
 312 70 l 1
 238 0 195 -9 141 -9 c 256
 52 -9 12 41 12 96 c 256
EndSplineSet
EndChar

StartChar: afii10066
Encoding: 1073 1073 282
Width: 508
Flags: MW
HStem: -9 41<154.549 267.558> 444 39<214.578 327.163>
VStem: 25 85<93.6666 329.093> 370 85<172.998 394.914> 494 31<749 749>
LayerCount: 2
Back
SplineSet
25 181 m 0
 25 262 55 343 105 400 c 0
 153 454 214 483 282 483 c 0
 386 483 452 408 452 287 c 0
 452 208 423 132 371 72 c 0
 324 18 264 -9 195 -9 c 0
 92 -9 25 65 25 181 c 0
110 180 m 0
 110 84 147 32 207 32 c 0
 292 32 367 141 367 293 c 0
 367 392 330 444 269 444 c 0
 183 444 110 335 110 180 c 0
EndSplineSet
Fore
SplineSet
455 287 m 0
 455 147 359 -9 195 -9 c 0
 82 -9 25 85 25 213 c 0
 25 332 83 462 136 523 c 0
 188 583 242 635 334 671 c 0
 415 703 474 710 494 749 c 1
 525 749 l 1
 495 668 475 641 354 595 c 0
 260 559 226 544 165 489 c 0
 134 462 101 393 88 344 c 1
 91 344 l 1
 134 422 199 483 289 483 c 0
 393 483 455 408 455 287 c 0
110 183 m 0
 110 91 147 32 207 32 c 0
 292 32 370 141 370 293 c 0
 370 392 336 444 276 444 c 0
 190 444 110 335 110 183 c 0
EndSplineSet
EndChar

StartChar: afii10089
Encoding: 1095 1095 283
Width: 532
Flags: W
HStem: -8 49<341.5 463.503> 182 50<167.889 278.319> 424 25<24 56.8788> 453 20G<85.0606 204 376.836 465>
VStem: 81 81<239.056 389.93> 301 83<46.0283 192.242> 381 84<389 473>
DStem2: 23.0208 -8 103.632 -8 0.190809 0.981627<311.652 425.363> 282.787 -8 364.51 -8 0.190809 0.981627<102.61 490.903>
LayerCount: 2
Back
SplineSet
301 56 m 0xbe
 301 68 302 95 310 132 c 2
 381 473 l 1
 465 473 l 1xbd
 396 154 l 2
 391 129 386 97 386 79 c 0
 386 61 401 42 434 42 c 0
 447 42 466 44 490 51 c 1
 490 23 l 1
 435 3 401 -8 370 -8 c 0
 329 -8 301 12 301 56 c 0xbe
24 0 m 1x7c
 107 409 l 1
 24 424 l 1
 24 449 l 1
 179 482 l 1
 204 482 l 1
 108 0 l 1
 24 0 l 1x7c
EndSplineSet
Fore
SplineSet
301 56 m 0xfc
 301 68 302 95 310 132 c 2
 381 473 l 1
 465 473 l 1xfa
 396 154 l 2
 391 129 384 94 384 76 c 0
 384 58 396 41 434 41 c 0
 447 41 466 44 490 51 c 1
 490 23 l 1
 435 3 393 -8 362 -8 c 0
 321 -8 301 22 301 56 c 0xfc
24 424 m 1
 24 449 l 1
 179 482 l 1
 204 482 l 1
 167 318 l 2
 164 304 162 292 162 282 c 0
 162 237 192 232 220 232 c 0
 259 232 294 247 346 276 c 1
 340 237 l 1
 291 206 241 182 171 182 c 0
 107 182 81 222 81 274 c 0
 81 287 83 302 86 316 c 2
 107 409 l 1
 24 424 l 1
EndSplineSet
EndChar

StartChar: afii10090
Encoding: 1096 1096 284
Width: 810
Flags: W
HStem: -9 61<109.809 209.987 375.742 472.464> -8 48<630.891 741.503> 424 26<30 63.303> 463 10G<91.8485 203 379.176 466 651.224 738>
VStem: 47 83<59.2064 202.688> 383 83<390 473> 580 79<46.2275 136.639> 655 83<390 473>
DStem2: 26.1497 -9 102.262 -9 0.190809 0.981627<143.168 426.892> 290.398 -9 369.262 -9 0.190809 0.981627<138.787 490.814> 563.204 -9 639.677 -9 0.190809 0.981627<119.119 490.66>
LayerCount: 2
Back
SplineSet
582 112 m 1
 657 473 l 1
 738 473 l 1
 667 147 l 2
 662 122 657 100 657 79 c 0
 657 58 677 40 709 40 c 0
 722 40 741 44 765 51 c 1
 765 23 l 1
 710 3 668 -8 637 -8 c 0
 596 -8 577 12 577 56 c 0
 577 62 577 68 578 75 c 1
30 424 m 1
 30 450 l 1
 187 483 l 1
 203 469 l 1
 140 178 l 2
 133 144 129 119 129 104 c 0
 129 69 151 49 187 49 c 0
 222 49 273 68 329 112 c 1
 404 473 l 1
 485 473 l 1
 414 147 l 2
 409 122 404 100 404 79 c 0
 404 58 424 40 456 40 c 0
 469 40 488 44 512 51 c 1
 512 23 l 1
 457 3 415 -8 384 -8 c 0
 343 -8 324 12 324 56 c 0
 324 62 324 68 325 75 c 1
 258 19 198 -8 144 -8 c 0
 84 -8 47 27 47 86 c 0
 47 103 50 123 55 146 c 2
 113 409 l 1
 30 424 l 1
EndSplineSet
Fore
SplineSet
30 424 m 1xbe
 30 450 l 1
 187 483 l 1
 203 469 l 1
 139 180 l 2
 132 151 130 130 130 116 c 0
 130 74 146 52 179 52 c 0
 217 52 272 79 318 133 c 1
 383 473 l 1
 466 473 l 1
 406 180 l 2
 400 148 397 125 397 111 c 0
 397 74 414 52 449 52 c 0
 475 52 528 77 591 134 c 1
 655 473 l 1
 738 473 l 1xbd
 670 147 l 2
 665 122 659 92 659 76 c 0
 659 55 680 40 712 40 c 0
 725 40 744 44 768 51 c 1
 768 23 l 1
 713 3 671 -8 640 -8 c 0x7e
 599 -8 580 12 580 56 c 0
 580 62 580 76 582 86 c 1
 504 22 443 -9 396 -9 c 0
 346 -9 316 23 315 82 c 1
 242 21 177 -9 129 -9 c 0
 81 -9 47 23 47 76 c 0
 47 98 51 126 59 160 c 2
 113 409 l 1
 30 424 l 1xbe
EndSplineSet
EndChar

StartChar: afii10095
Encoding: 1101 1101 285
Width: 436
Flags: W
HStem: -9 42<83.3063 204.361> 214 49<178.326 274.934> 242 49<88.6439 192.013> 365 45<62 107> 442 41<135.487 260.1>
VStem: -8 86<42.6023 123.406> 300 83<161.981 392.83>
LayerCount: 2
Back
SplineSet
-42 181 m 0
 -42 262 -12 343 38 400 c 0
 86 454 149 483 217 483 c 0
 321 483 385 408 385 287 c 0
 385 208 356 132 304 72 c 0
 257 18 197 -9 128 -9 c 0
 25 -9 -42 65 -42 181 c 0
43 180 m 0
 43 84 80 32 140 32 c 0
 225 32 300 141 300 293 c 0
 300 392 263 444 202 444 c 0
 116 444 43 335 43 180 c 0
EndSplineSet
Fore
SplineSet
-8 72 m 0xde
 -8 114 14 131 41 131 c 0
 60 131 66 126 78 114 c 1
 78 57 l 1
 99 41 110 33 144 33 c 0
 240 33 300 160 300 273 c 0
 300 348 292 442 207 442 c 0
 169 442 135 432 62 365 c 1
 62 410 l 1
 136 477 171 483 220 483 c 0
 346 483 383 383 383 263 c 0
 383 151 295 -9 133 -9 c 0
 45 -9 -8 28 -8 72 c 0xde
60 242 m 1xbe
 95 280 119 291 147 291 c 0xbe
 183 291 212 263 243 263 c 0
 259 263 298 279 302 315 c 1
 300 266 l 1
 276 232 257 214 224 214 c 0xde
 188 214 157 242 126 242 c 0
 112 242 101 242 74 221 c 1
 60 242 l 1xbe
EndSplineSet
EndChar

StartChar: afii10072
Encoding: 1078 1078 286
Width: 854
Flags: W
HStem: -9 53<639.832 735.415> -9 43<79 132.043> 0 21G<329 416.89> 230 46<270 558> 429 53<94.5847 190.168> 439 43<697.957 751> 453 20G<417.11 505>
VStem: 216 78<180.15 402.995> 329 84<0 84> 421 84<389 473> 536 78<70.0046 260.669>
DStem2: 327.251 -9 411.251 -9 0.190809 0.981627<25.1964 491.033>
LayerCount: 2
Fore
SplineSet
294 314 m 0x59e0
 294 114 171 -9 68 -9 c 0
 22 -9 -8 25 -8 59 c 0
 -8 97 10 113 53 113 c 1
 79 35 l 1
 82 35 84 34 89 34 c 0
 157 34 216 171 216 300 c 0
 216 376 196 429 147 429 c 0
 111 429 82 408 29 361 c 1
 29 401 l 1
 73 449 109 482 167 482 c 0
 228 482 294 427 294 314 c 0x59e0
270 276 m 1
 561 276 l 1
 558 230 l 1
 266 230 l 1
 270 276 l 1
536 159 m 0
 536 359 659 482 762 482 c 0
 808 482 838 448 838 414 c 0
 838 376 820 360 777 360 c 1
 751 438 l 1
 748 438 746 439 741 439 c 0
 673 439 614 302 614 173 c 0
 614 97 634 44 683 44 c 0
 719 44 748 65 801 112 c 1
 801 72 l 1
 757 24 721 -9 663 -9 c 0x95e0
 602 -9 536 46 536 159 c 0
329 0 m 1x33e0
 421 473 l 1
 505 473 l 1
 413 0 l 1
 329 0 l 1x33e0
EndSplineSet
EndChar

StartChar: afii10094
Encoding: 1100 1100 287
Width: 476
Flags: W
HStem: -9 42<149.367 279.285> 267 45<200.435 322.003> 424 26<30 63.0312> 462 20G<86.625 204>
VStem: 339 79<95.4085 250.979>
DStem2: 23.9296 -9 100.901 -9 0.190809 0.981627<97.0308 248.556 282.796 427.316>
LayerCount: 2
Back
SplineSet
30 424 m 5
 30 450 l 5
 187 483 l 5
 203 469 l 5
 140 178 l 6
 133 144 129 119 129 104 c 4
 129 69 151 49 187 49 c 4
 222 49 273 68 329 112 c 5
 404 473 l 5
 485 473 l 5
 414 147 l 6
 409 122 404 100 404 79 c 4
 404 58 424 40 456 40 c 4
 469 40 488 44 512 51 c 5
 512 23 l 5
 457 3 415 -8 384 -8 c 4
 343 -8 324 12 324 56 c 4
 324 62 324 68 325 75 c 5
 258 19 198 -8 144 -8 c 4
 84 -8 47 27 47 86 c 4
 47 103 50 123 55 146 c 6
 113 409 l 5
 30 424 l 5
EndSplineSet
Fore
SplineSet
30 424 m 1
 30 450 l 1
 181 482 l 1
 204 482 l 1
 153 254 l 1
 194 300 236 312 291 312 c 0
 366 312 418 265 418 178 c 0
 418 91 353 -9 204 -9 c 0
 72 -9 37 79 63 192 c 2
 113 409 l 1
 30 424 l 1
139 187 m 1
 121 106 114 33 217 33 c 0
 277 33 339 84 339 182 c 0
 339 241 316 267 270 267 c 0
 237 267 200 260 139 187 c 1
EndSplineSet
EndChar

StartChar: afii10069
Encoding: 1076 1076 288
Width: 514
Flags: W
HStem: -9 41<148.356 257.282> 442 41<210.584 343.41> 695 41<190.108 348.206>
VStem: 22 85<82.0514 292.914> 419 71<432.227 589.458>
LayerCount: 2
Back
SplineSet
22 181 m 4
 22 262 52 343 102 400 c 4
 150 454 211 483 279 483 c 4
 383 483 449 408 449 287 c 4
 449 208 420 132 368 72 c 4
 321 18 261 -9 192 -9 c 4
 89 -9 22 65 22 181 c 4
107 180 m 4
 107 84 144 32 204 32 c 4
 289 32 364 141 364 293 c 4
 364 392 327 444 266 444 c 4
 180 444 107 335 107 180 c 4
EndSplineSet
Fore
SplineSet
22 181 m 0
 22 336 138 483 280 483 c 0
 338 483 375 458 411 430 c 1
 418 469 419 475 419 508 c 0
 419 614 370 695 279 695 c 0
 231 695 213 694 152 660 c 9
 152 698 l 17
 213 728 236 736 280 736 c 0
 410 736 490 624 490 454 c 0
 490 356 446 -9 187 -9 c 0
 94 -9 22 65 22 181 c 0
107 180 m 0
 107 84 144 32 199 32 c 0
 344 32 395 311 395 363 c 1
 367 415 321 442 286 442 c 0
 176 442 107 335 107 180 c 0
EndSplineSet
EndChar

StartChar: afii10067
Encoding: 1074 1074 290
Width: 488
Flags: W
HStem: -9 39<125.616 282.097> 444 39<206.773 341.615>
VStem: 345 79<85.0303 204.383> 356 72<328.99 430.43>
DStem2: 5.06543 -9 81.3722 -9 0.190809 0.981627<88.5227 246.742 273.172 413.809>
LayerCount: 2
Back
SplineSet
10 424 m 1
 10 450 l 1
 161 482 l 1
 184 482 l 1
 133 254 l 1
 174 300 216 312 271 312 c 0
 346 312 398 265 398 178 c 0
 398 91 333 -9 184 -9 c 0
 52 -9 17 79 43 192 c 2
 93 409 l 1
 10 424 l 1
119 187 m 1
 101 106 94 33 197 33 c 0
 257 33 319 84 319 182 c 0
 319 241 296 267 250 267 c 0
 217 267 180 260 119 187 c 1
EndSplineSet
Fore
SplineSet
130 245 m 1xd0
 253 267 356 298 356 391 c 0
 356 438 306 444 271 444 c 0
 206 444 164 405 143 306 c 2
 130 245 l 1xd0
35 145 m 2
 65 301 l 2
 88 423 188 483 296 483 c 0
 376 483 428 445 428 399 c 0xd0
 428 295 344 272 305 262 c 1
 369 254 424 229 424 149 c 0xe0
 424 55 322 -9 192 -9 c 0
 81 -9 13 28 35 145 c 2
203 30 m 0
 272 30 345 68 345 157 c 0xe0
 345 203 296 230 254 230 c 0
 217 230 188 224 124 210 c 1
 115 164 l 2
 98 75 100 30 203 30 c 0
EndSplineSet
EndChar

StartChar: afii10073
Encoding: 1079 1079 291
Width: 440
Flags: W
HStem: -9 42<86.2794 248.187> 238 42<135 259.503> 365 45<63 108> 442 41<142.34 297.404>
VStem: -9 85<47.5312 132.028> 297 79<78.3284 206.291> 313 72<327.228 426.222>
LayerCount: 2
Fore
SplineSet
-9 80 m 0xfc
 -9 122 12 139 39 139 c 0
 58 139 64 135 76 123 c 1
 76 61 l 1
 96 43 124 33 160 33 c 0
 237 33 297 62 297 155 c 0xfc
 297 202 258 238 178 238 c 1
 126 236 l 1
 135 282 l 1
 185 280 l 1
 245 280 313 319 313 385 c 0
 313 424 281 442 216 442 c 0
 181 442 131 428 63 365 c 1
 63 410 l 1
 127 470 169 483 228 483 c 0
 354 483 385 428 385 383 c 0xfa
 385 307 327 281 262 264 c 1
 328 256 376 220 376 150 c 0
 376 40 273 -9 154 -9 c 0
 48 -9 -9 36 -9 80 c 0xfc
EndSplineSet
EndChar

StartChar: afii10077
Encoding: 1083 1083 292
Width: 576
Flags: W
HStem: -6 49<396 508.495> 424 59<335.297 402.681>
VStem: 345 83<46.1446 177.188> 406 76<257.648 422.041>
DStem2: 328.452 -8 407.733 -8 0.190809 0.981627<108.133 392.02>
LayerCount: 2
Back
SplineSet
347 56 m 0xbe
 347 68 348 95 356 132 c 2
 427 473 l 1
 511 473 l 1xbd
 442 154 l 2
 437 129 432 97 432 79 c 0
 432 61 447 42 480 42 c 0
 493 42 512 44 536 51 c 1
 536 23 l 1
 481 3 439 -8 408 -8 c 0
 367 -8 347 12 347 56 c 0xbe
EndSplineSet
Fore
SplineSet
-10 48 m 0xd0
 -10 80 10 103 41 105 c 1
 80 53 l 1
 135 88 188 185 238 306 c 0
 286 422 319 483 400 483 c 0
 452 483 482 451 482 402 c 0xd0
 482 377 480 349 472 313 c 2
 440 158 l 2
 434 129 428 99 428 82 c 0
 428 46 446 43 479 43 c 0
 493 43 513 48 536 54 c 1
 536 26 l 1
 484 6 447 -6 416 -6 c 0
 376 -6 345 14 345 54 c 0xe0
 345 67 346 86 351 108 c 2
 394 300 l 2
 401 329 406 362 406 377 c 0
 406 402 401 424 373 424 c 0
 342 424 327 404 274 283 c 0
 224 169 144 -8 48 -8 c 0
 13 -8 -10 15 -10 48 c 0xd0
EndSplineSet
EndChar

StartChar: afii10088
Encoding: 1094 1094 293
Width: 554
Flags: MW
HStem: -190 21G<422 493> -8 57<138.518 232.499> -8 48<356.5 471.027> 424 26<30 63.303> 463 10G<91.8485 203 399.845 485>
VStem: 47 82<59.3553 206.461> 325 79<44.4012 75> 404 81<392 473> 472 40<-90.2189 9>
DStem2: -10.3118 -190 68.468 -190 0.190809 0.981627<315.878 611.524> 270.297 -190 348.494 -190 0.190809 0.981627<287.594 676.331>
LayerCount: 2
Back
SplineSet
30 424 m 1
 30 450 l 1
 187 483 l 1
 203 469 l 1
 140 178 l 2
 133 144 129 119 129 104 c 0
 129 69 151 49 187 49 c 0
 222 49 273 68 329 112 c 1
 404 473 l 1
 485 473 l 1
 414 147 l 2
 409 122 404 100 404 79 c 0
 404 58 424 40 456 40 c 0
 469 40 488 44 512 51 c 1
 512 23 l 1
 457 3 415 -8 384 -8 c 0
 343 -8 324 12 324 56 c 0
 324 62 324 68 325 75 c 1
 258 19 198 -8 144 -8 c 0
 84 -8 47 27 47 86 c 0
 47 103 50 123 55 146 c 2
 113 409 l 1
 30 424 l 1
EndSplineSet
Fore
SplineSet
30 424 m 1xdf
 30 450 l 1
 187 483 l 1
 203 469 l 1
 140 178 l 2
 133 144 129 119 129 104 c 0
 129 69 151 49 187 49 c 0xdf
 222 49 273 68 329 112 c 1
 404 473 l 1
 485 473 l 1
 414 147 l 2
 409 122 404 97 404 76 c 0
 404 51 422 40 454 40 c 0
 467 40 488 45 512 55 c 1
 512 23 l 2
 512 -45 499 -135 487 -190 c 1
 422 -190 l 1
 441 -141 464 -57 472 9 c 1
 436 -2 406 -8 384 -8 c 0xbf
 329 -8 325 33 325 75 c 1
 258 19 198 -8 144 -8 c 0
 84 -8 47 27 47 86 c 0
 47 103 50 123 55 146 c 2
 113 409 l 1
 30 424 l 1xdf
EndSplineSet
EndChar

StartChar: afii10091
Encoding: 1097 1097 294
Width: 810
Flags: MW
HStem: -190 21G<678 749> -9 61<109.809 209.987 375.742 472.464> -8 48<623.332 727.027> 424 26<30 63.303> 463 10G<91.8485 203 379.176 466 651.224 738>
VStem: 47 83<59.2064 202.688> 383 83<390 473> 655 83<390 473> 728 40<-90.2189 9>
DStem2: -9.03311 -190 67.0793 -190 0.190809 0.981627<327.556 611.28> 255.215 -190 334.079 -190 0.190809 0.981627<323.175 675.201> 528.021 -190 604.494 -190 0.190809 0.981627<303.354 675.048>
LayerCount: 2
Back
SplineSet
30 424 m 1xbe
 30 450 l 1
 187 483 l 1
 203 469 l 1
 139 180 l 2
 132 151 130 130 130 116 c 0
 130 74 146 52 179 52 c 0
 217 52 272 79 318 133 c 1
 383 473 l 1
 466 473 l 1
 406 180 l 2
 400 148 397 125 397 111 c 0
 397 74 414 52 449 52 c 0
 475 52 528 77 591 134 c 1
 655 473 l 1
 738 473 l 1xbd
 670 147 l 2
 665 122 659 92 659 76 c 0
 659 55 680 40 712 40 c 0
 725 40 744 44 768 51 c 1
 768 23 l 1
 713 3 671 -8 640 -8 c 0x7e
 599 -8 580 12 580 56 c 0
 580 62 580 76 582 86 c 1
 504 22 443 -9 396 -9 c 0
 346 -9 316 23 315 82 c 1
 242 21 177 -9 129 -9 c 0
 81 -9 47 23 47 76 c 0
 47 98 51 126 59 160 c 2
 113 409 l 1
 30 424 l 1xbe
EndSplineSet
Fore
SplineSet
30 424 m 1xdf
 30 450 l 1
 187 483 l 1
 203 469 l 1
 139 180 l 2
 132 151 130 130 130 116 c 0
 130 74 146 52 179 52 c 0
 217 52 272 79 318 133 c 1
 383 473 l 1
 466 473 l 1
 406 180 l 2
 400 148 397 125 397 111 c 0
 397 74 414 52 449 52 c 0xdf
 475 52 528 77 591 134 c 1
 655 473 l 1
 738 473 l 1
 670 147 l 2
 664 117 659 90 659 76 c 0
 659 51 678 40 710 40 c 0
 723 40 744 45 768 55 c 1
 768 23 l 2
 768 -45 755 -135 743 -190 c 1
 678 -190 l 1
 697 -141 720 -57 728 9 c 1
 692 -2 662 -8 640 -8 c 0xbf
 585 -8 578 36 582 86 c 1
 504 22 443 -9 396 -9 c 0
 346 -9 316 23 315 82 c 1
 242 21 177 -9 129 -9 c 0
 81 -9 47 23 47 76 c 0
 47 98 51 126 59 160 c 2
 113 409 l 1
 30 424 l 1xdf
EndSplineSet
EndChar

StartChar: cyrbreve
Encoding: 63188 63188 295
Width: 552
Flags: W
HStem: 542 41<266.921 375.476>
VStem: 182 98<632.5 680.522>
LayerCount: 2
Back
SplineSet
113.656 631 m 0
 118.735 653 125.813 662 140.045 676 c 9
 210.045 676 l 1
 193.653 605 l 1
 215.651 579 233.959 576 268.959 576 c 0
 303.959 576 323.651 579 357.653 605 c 1
 374.045 676 l 1
 444.045 676 l 17
 451.813 662 454.735 653 449.656 631 c 0
 439.498 587 389.955 537 259.955 537 c 0
 129.955 537 103.498 587 113.656 631 c 0
EndSplineSet
Fore
SplineSet
182 631 m 0
 182 671 200 689 227 689 c 0
 249 689 265 680 280 661 c 1
 266 604 l 1
 277 590 290 583 308 583 c 0
 386 583 421 644 446 702 c 1
 480 702 l 1
 448 613 398 542 303 542 c 0
 237 542 182 585 182 631 c 0
EndSplineSet
EndChar

StartChar: afii10076
Encoding: 1082 1082 298
Width: 504
Flags: W
HStem: -7 47<379.755 470.668> 0 21G<32 119.983> 230 44<169 224.656> 420 65<362.422 404> 424 25<32 64.8788>
VStem: 32 84<0 84>
DStem2: 30.6393 -7 114.639 -7 0.190809 0.981627<23.159 424.454>
LayerCount: 2
Fore
SplineSet
160 230 m 1xb4
 169 274 l 1
 177 274 l 2
 216 274 262 326 294 382 c 0
 329 443 369 485 428 485 c 0
 475 485 490 454 490 435 c 0
 490 414 477 386 441 378 c 9
 404 420 l 17
 374 420 348 399 325 358 c 0
 305 322 278 276 227 259 c 1
 286 251 334 211 354 132 c 0
 370 69 382 40 416 40 c 0
 424 40 456 41 477 47 c 1
 477 19 l 1
 459 6 424 -7 387 -7 c 0
 339 -7 312 14 292 90 c 0
 269 179 234 230 179 230 c 2
 160 230 l 1xb4
32 0 m 1x6c
 115 409 l 1
 32 424 l 1
 32 449 l 1
 187 482 l 1
 212 482 l 1
 116 0 l 1
 32 0 l 1x6c
EndSplineSet
EndChar

StartChar: afii10078
Encoding: 1084 1084 299
Width: 708
Flags: MW
HStem: -9 64<62.3023 96.1621> -8 50<531.801 639.621> 425 25<149 182.25> 462 20G<206 325.326> 462 11G<206 325.326 542.329 645>
VStem: 477 85<46.6437 188.156>
DStem2: 324 482 262 373 0.0633645 -0.99799<104.852 362.793> 348 120 319 -5 0.509802 0.860292<0 317.065> 458.592 -9 540.316 -9 0.190809 0.981627<101.068 389.306>
LayerCount: 2
Back
SplineSet
471 56 m 0xbe
 471 68 472 95 480 132 c 2
 551 473 l 1
 635 473 l 1xbd
 566 154 l 2
 561 129 556 97 556 79 c 0
 556 61 571 42 604 42 c 0
 617 42 636 44 660 51 c 1
 660 23 l 1
 605 3 563 -8 532 -8 c 0
 491 -8 471 12 471 56 c 0xbe
EndSplineSet
Fore
SplineSet
-11 47 m 0xa4
 -11 68 1 95 33 98 c 1
 68 55 l 1
 145 86 208 311 228 411 c 9
 149 425 l 1
 149 450 l 1
 301 482 l 1
 324 482 l 1xb4
 348 120 l 1
 554 473 l 1
 645 473 l 1
 638 446 630 414 619 364 c 2
 572 154 l 2
 566 129 562 91 562 73 c 0
 562 55 577 42 610 42 c 0
 623 42 642 44 666 51 c 1
 666 23 l 1
 611 3 572 -8 541 -8 c 0x6c
 500 -8 477 13 477 55 c 0
 477 67 478 95 486 132 c 2
 522 292 l 2
 529 325 532 336 543 373 c 1
 319 -5 l 1
 286 -5 l 1
 262 373 l 17
 245 288 170 -9 50 -9 c 0
 10 -9 -11 19 -11 47 c 0xa4
EndSplineSet
EndChar

StartChar: afii10092
Encoding: 1098 1098 300
Width: 570
Flags: HMW
HStem: -9 42<243.826 373.285> 267 45<291.734 416.003> 404 74<98 270.511> 463 20G<302.5 370>
VStem: 146 76<52.5143 191.721> 433 79<95.4085 250.979>
LayerCount: 2
Back
SplineSet
140 424 m 1
 140 450 l 1
 291 482 l 1
 314 482 l 1
 263 254 l 1
 304 300 346 312 401 312 c 0
 476 312 528 265 528 178 c 0
 528 91 463 -9 314 -9 c 0
 182 -9 147 79 173 192 c 2
 223 409 l 1
 140 424 l 1
249 187 m 1
 231 106 224 33 327 33 c 0
 387 33 449 84 449 182 c 0
 449 241 426 267 380 267 c 0
 347 267 310 260 249 187 c 1
EndSplineSet
Fore
SplineSet
233 187 m 1xcc
 227 160 222 135 222 112 c 0
 222 66 242 33 311 33 c 0
 371 33 433 84 433 182 c 0
 433 241 410 267 364 267 c 0
 331 267 281 255 233 187 c 1xcc
23 338 m 1
 50 478 l 1
 90 478 l 1xec
 158 464 262 471 343 483 c 1
 370 483 l 1xdc
 318 415 254 312 241 254 c 1
 282 300 330 312 385 312 c 0
 460 312 512 265 512 178 c 0
 512 91 447 -9 298 -9 c 0
 195 -9 146 50 146 125 c 0
 146 245 221 365 297 435 c 1
 231 408 160 391 98 404 c 1xec
 83 394 l 1
 62 338 l 1
 23 338 l 1
EndSplineSet
EndChar

StartChar: afii10097
Encoding: 1103 1103 301
Width: 546
Flags: MW
HStem: -8 62<65.8 102.476 448.614 476.783> -8 50<355.5 477.503> 204 40<232.707 339> 432 41<243.343 385.343>
VStem: 103 79<274.839 381.813> 315 85<47.7303 193.875>
DStem2: 296.787 -8 378.51 -8 0.190809 0.981627<105.935 216.16 256.951 445.994>
LayerCount: 2
Fore
SplineSet
-14 41 m 0x7c
 -14 68 3 90 28 94 c 1
 70 54 l 1xbc
 101 63 119 93 132 128 c 0
 148 170 173 207 214 220 c 1
 160 230 103 261 103 325 c 0
 103 389 172 473 335 473 c 2
 479 473 l 1
 410 154 l 2
 405 129 400 97 400 79 c 0
 400 61 415 42 448 42 c 0
 461 42 480 44 504 51 c 1
 504 23 l 1
 449 3 407 -8 376 -8 c 0
 335 -8 315 12 315 56 c 0
 315 68 316 95 324 132 c 2
 339 204 l 1
 298 204 l 2
 245 204 194 165 175 114 c 0
 140 19 105 -8 50 -8 c 0
 19 -8 -14 11 -14 41 c 0x7c
182 321 m 0
 182 283 221 244 295 244 c 2
 347 244 l 1
 386 429 l 1
 372 431 357 432 347 432 c 0
 259 432 182 401 182 321 c 0
EndSplineSet
EndChar

StartChar: afii10086
Encoding: 1092 1092 302
Width: 655
Flags: HMW
HStem: -218 30<109 151 324.353 361> -6 41<227 235> 439 41<313 321> 664 26<265 300.7>
VStem: 22 83<96.7349 303.251> 519 83<170.749 377.265>
DStem2: 185.698 -218 262.864 -218 0.190809 0.981627<62.6037 888.092>
LayerCount: 2
Fore
SplineSet
313 439 m 1
 163 416 105 313 105 181 c 0
 105 78 171 41 235 35 c 1
 227 -6 l 1
 132 1 22 48 22 192 c 0
 22 367 152 468 321 480 c 1
 313 439 l 1
311 35 m 1
 461 58 519 161 519 293 c 0
 519 396 453 433 389 439 c 1
 397 480 l 1
 492 473 602 426 602 282 c 0
 602 107 472 6 303 -6 c 1
 311 35 l 1
272 -171 m 1
 361 -188 l 1
 361 -218 l 1
 109 -218 l 1
 109 -188 l 1
 187 -175 l 1
 196 -165 l 1
 354 654 l 1
 265 664 l 1
 265 690 l 1
 418 720 l 1
 445 720 l 1
 439 694 435 673 431 651 c 2
 272 -171 l 1
EndSplineSet
EndChar

StartChar: afii10096
Encoding: 1102 1102 303
Width: 732
Flags: W
HStem: -9 41<404 456.5> 0 21G<32 119.983> 230 46<121 319> 424 25<32 64.8788> 444 39<475 526.5> 462 20G<93.0606 212>
VStem: 32 84<0 84> 252 85<132 221.5> 594 85<247.5 342.5>
LayerCount: 2
Fore
SplineSet
121 276 m 1x2380
 322 276 l 1
 319 230 l 1
 117 230 l 1
 121 276 l 1x2380
32 0 m 1x7780
 115 409 l 1
 32 424 l 1
 32 449 l 1
 187 482 l 1
 212 482 l 1
 116 0 l 1
 32 0 l 1x7780
EndSplineSet
Refer: 79 111 N 1 0 0 1 230 0 2
EndChar

StartChar: afii61352
Encoding: 8470 8470 304
Width: 996
Flags: W
HStem: -7 44<-47.4332 62.6662> 0 39<-48 2.29469 643 867> 119 33<751.901 825.441> 384 33<780.559 854.099> 633 38<119 184 739.244 768> 634 44<657.334 767.433>
VStem: 673 63<162.148 331.535> 870 63<204.465 373.852>
DStem2: 74.5104 -7 129.983 -7 0.190809 0.981627<64.8768 572.072> 286 646 238 544 0.383651 -0.923478<75.7795 527.615> 456.733 -7 514.639 -7 0.190809 0.981627<169.107 643.554>
LayerCount: 2
Back
SplineSet
603 39 m 5x73c0
 839 39 l 5
 831 0 l 5
 595 0 l 5
 603 39 l 5x73c0
638 268 m 4
 659 378 735 417 795 417 c 4
 855 417 915 378 894 268 c 4
 873 158 797 119 737 119 c 4
 677 119 617 158 638 268 c 4
705 268 m 4
 692 203 698 152 743 152 c 4
 788 152 814 203 827 268 c 4
 840 333 833 384 788 384 c 4
 743 384 718 333 705 268 c 4
471 111 m 1
 245 654 l 1
426 0 m 1
 200 543 l 1
-31 0 m 1
 -31 38 l 1
 33 44 l 1
 49 58 l 1
 156 613 l 1
 146 628 l 1
 81 633 l 1
 81 671 l 1
 253 671 l 1
 253 646 l 1
 447 139 l 1
 539 613 l 1
 529 628 l 1
 465 633 l 1
 465 671 l 1
 675 671 l 1
 675 633 l 1
 611 628 l 1
 595 613 l 1
 478 0 l 1
 420 0 l 1
 202 556 l 1
 105 58 l 1
 116 44 l 1
 180 38 l 1
 180 0 l 1
 -31 0 l 1
-31 0 m 1
 -31 38 l 1
 33 44 l 1
 49 58 l 1
 156 613 l 1
 146 628 l 1
 81 633 l 1
 81 671 l 1
 253 671 l 1
 253 646 l 1
 492 139 l 1
 584 613 l 1
 574 628 l 1
 510 633 l 1
 510 671 l 1
 720 671 l 1
 720 633 l 1
 656 628 l 1
 640 613 l 1
 523 0 l 1
 465 0 l 1
 202 556 l 1
 105 58 l 1
 116 44 l 1
 180 38 l 1
 180 0 l 1
 -31 0 l 1
EndSplineSet
Fore
SplineSet
-48 0 m 1x73
 -48 39 l 1x73
 -42 38 -24 37 -19 37 c 0
 57 37 88 60 106 155 c 2
 194 613 l 1
 184 628 l 1
 119 633 l 1
 119 671 l 1
 286 671 l 1xbb
 286 646 l 1
 489 159 l 1
 556 503 l 2
 584 646 635 678 717 678 c 0x37
 732 678 750 677 768 671 c 1x3b
 768 632 l 1
 762 633 744 634 739 634 c 0
 663 634 632 611 614 516 c 2
 516 0 l 1
 464 0 l 1x77
 238 544 l 1
 164 168 l 2
 136 25 85 -7 3 -7 c 0xb3
 -12 -7 -30 -6 -48 0 c 1x73
635 0 m 1
 643 39 l 1
 875 39 l 1
 867 0 l 1
 635 0 l 1
673 241 m 0
 673 346 747 417 822 417 c 0
 873 417 933 391 933 295 c 0
 933 190 859 119 784 119 c 0
 733 119 673 145 673 241 c 0
736 233 m 0
 736 176 753 152 788 152 c 0
 846 152 870 243 870 303 c 0
 870 360 853 384 818 384 c 0
 760 384 736 293 736 233 c 0
EndSplineSet
EndChar

StartChar: .notdef
Encoding: 0 0 305
Width: 656
VWidth: 0
Flags: W
HStem: 0 57<135 521> 100 80<282.181 352.607> 482 21G<243.5 259> 552 32<302 360.254> 643 57<135 521>
VStem: 75 60<57 643> 278 79<104.393 175.607> 299 37<226 315.046> 400 64<385.937 520.449> 521 60<57 643>
LayerCount: 2
Fore
SplineSet
75 0 m 1xfcc0
 75 700 l 1
 581 700 l 1
 581 0 l 1
 75 0 l 1xfcc0
135 57 m 1
 521 57 l 1
 521 643 l 1
 135 643 l 1
 135 57 l 1
215 519 m 0
 215 554 256 584 318 584 c 0
 408 584 464 533 464 457 c 0
 464 391 422 345 336 308 c 1
 336 226 l 1
 299 226 l 1
 299 328 l 1xfdc0
 366 353 400 395 400 453 c 0
 400 515 364 552 302 552 c 1
 271 484 l 1
 267 483 261 482 257 482 c 0
 230 482 215 496 215 519 c 0
278 140 m 0xfec0
 278 162 295 180 317 180 c 0
 339 180 357 162 357 140 c 0
 357 118 339 100 317 100 c 0
 295 100 278 118 278 140 c 0xfec0
EndSplineSet
EndChar
